<?xml version="1.0" encoding="utf-8"?>
<!-- Generator: $$$/GeneralStr/196=Adobe Illustrator 27.6.0, SVG Export Plug-In . SVG Version: 6.00 Build 0)  -->
<svg version="1.1"
	 id="svg133" xmlns:sodipodi="http://sodipodi.sourceforge.net/DTD/sodipodi-0.dtd" xmlns:inkscape="http://www.inkscape.org/namespaces/inkscape" xmlns:cc="http://creativecommons.org/ns#" xmlns:rdf="http://www.w3.org/1999/02/22-rdf-syntax-ns#" xmlns:svg="http://www.w3.org/2000/svg" xmlns:dc="http://purl.org/dc/elements/1.1/" sodipodi:docname="figure-c.1-independent-did-controllers.svg"
	 xmlns="http://www.w3.org/2000/svg" xmlns:xlink="http://www.w3.org/1999/xlink" x="0px" y="0px" viewBox="0 0 824 504"
	 style="enable-background:new 0 0 824 504;" xml:space="preserve">
<style type="text/css">
	.st0{fill-rule:evenodd;clip-rule:evenodd;}
	.st1{fill:none;stroke:#4A7DBA;stroke-linejoin:round;stroke-miterlimit:10;}
	.st2{fill-rule:evenodd;clip-rule:evenodd;fill-opacity:0;}
	.st3{fill-rule:evenodd;clip-rule:evenodd;fill-opacity:0.2;}
	.st4{fill:none;stroke:#000000;stroke-width:2;stroke-linejoin:round;stroke-miterlimit:10;}
	.st5{fill:none;stroke:#119209;stroke-width:4;stroke-linejoin:round;stroke-miterlimit:10;}
	.st6{fill-rule:evenodd;clip-rule:evenodd;fill:#119209;stroke:#119209;stroke-width:4;stroke-miterlimit:10;}
	.st7{fill:none;stroke:#2B40CD;stroke-width:4;stroke-linejoin:round;stroke-miterlimit:10;}
	.st8{fill-rule:evenodd;clip-rule:evenodd;fill:#2B40CD;stroke:#2B40CD;stroke-width:4;stroke-miterlimit:10;}
	.st9{font-family:'SimHei';}
	.st10{font-size:18px;}
	.st11{fill:#62B62F;}
	.st12{font-size:14px;}
	.st13{fill:#1E4098;}
</style>
<sodipodi:namedview  bordercolor="#666666" borderopacity="1" fit-margin-bottom="0" fit-margin-left="0" fit-margin-right="0" fit-margin-top="0" gridtolerance="10" guidetolerance="10" id="namedview135" inkscape:current-layer="svg133" inkscape:cx="516.06925" inkscape:cy="341.92168" inkscape:pageopacity="0" inkscape:pageshadow="2" inkscape:window-height="1016" inkscape:window-maximized="1" inkscape:window-width="1920" inkscape:window-x="0" inkscape:window-y="27" inkscape:zoom="0.91702911" objecttolerance="10" pagecolor="#ffffff" showgrid="false">
	</sodipodi:namedview>
<path id="path7" class="st0" d="M120,30.5L120,30.5c0-8.8,7.2-16,16-16l0,0c4.2,0,8.3,1.7,11.3,4.7c3,3,4.7,7.1,4.7,11.3l0,0
	c0,8.8-7.2,16-16,16l0,0C127.2,46.5,120,39.4,120,30.5z"/>
<path id="path9" class="st1" d="M120,30.5L120,30.5c0-8.8,7.2-16,16-16l0,0c4.2,0,8.3,1.7,11.3,4.7c3,3,4.7,7.1,4.7,11.3l0,0
	c0,8.8-7.2,16-16,16l0,0C127.2,46.5,120,39.4,120,30.5z"/>
<path class="st2" d="M4.4,56.5c-1.5-0.3-2.9-0.7-4.4-1.1v12.5h1.9C2,63.9,3,60.2,4.4,56.5z"/>
<path class="st2" d="M1.1-1.2v25.8c2.2,0,4.1,1.4,4.9,3.6c1.3,3.6,6.4,5,10.6,5.8c2.2-2.1,6.2-1.4,7.8,1.2c3.6,0.4,7.2,0.7,10.8,1.1
	c5-0.7,11.3-1.6,15.3,1.7c0.4,0.4,0.8,0.8,1.2,1.1c2.6,0.3,5.1,0.4,7.7,0.4c0.8-0.1,1.6-0.2,2.4-0.2c2.6-1.3,5.3-2.4,8.2-3
	c2.4-0.4,5.4-0.7,8.2-0.1c-0.4-2-0.6-4-1.1-5.9c-0.5-1.9-0.9-1.6-3-2c-2.8-0.5-5.7-0.9-8.6-1c-0.7,0-1.3,0-2,0
	c1.5,2.1,1.3,4.8-1.9,8.1c-2.1,2.2-6.4,1.9-7.9-1c-0.4-0.8-0.7-1.8-1.1-2.8c-1.1-0.3-2.3-0.6-3.4-0.9c-1.9-0.4-4.4-0.8-5.7-0.9
	c-3.7-0.5-7.4-5.5-3.5-8.5c0.4-0.3,0.8-0.6,1.2-0.9c-0.2-0.2-0.4-0.4-0.6-0.6c-0.4-0.5-0.8-1-1-1.6c-3.7,0.2-7.5,0.5-11.2,1.1
	c0,0,0,0,0,0c-0.4,0.1-0.9,0.2-1.3,0.2c-5.6,0.7-6.8-9-1.3-9.8c0.5-0.1,1-0.1,1.5-0.2c7.9-1.1,15.4-5,23.5-3.3
	c0.6,0.1,1.1,0.3,1.5,0.6c0.6-1.7,2.1-3.1,4.5-3.1C62,3.6,67.1,3,71.8,4.9c4,0.3,7.9,0.7,11.9,0.9c5.6,0.4,9.5,3,10.7,8.7
	c1.6,7.5-0.9,15-3,22.5c1.4,0.2,2.9,0.2,4,0.6c1.6,0.6,3.1,1.6,4.4,2.9c1.1-0.5,2.2-0.8,3.3-0.9c0.7-0.1,1.3,0.1,2,0.4
	c2-4.4,8.9-3.7,9.5,1.9c0.4,4,1.3,9.2,0,13.3c0,0.3,0,0.5,0,0.8c0,2.9-2,4.5-4.3,4.8c-4.1,2.6-10.5,3.7-14.7,2.4
	c-2.6-0.8-4.3-2.1-5.2-3.8c-1.9,0.8-3.9,1.2-6.1,1.3c-2,0.1-4.5-1.6-4.8-3.7c-0.1-0.5-0.1-1.1-0.2-1.6c-1-0.2-2.1-0.4-3.1-0.6
	c-1.1,0.7-2.2,1.3-3.2,1.8c-0.4,0.9-1.1,1.7-2.3,2.3c-10.7,4.9-23.4,3.3-34.8,1.7c-0.9-0.1-1.6-0.5-2.2-1.1c-4.5,1.8-9,3.3-13.8,3.6
	c-0.8,0.1-1.7-0.2-2.5-0.6c-0.8,1.4-1.7,2.8-2.6,4.1h108.2V-1.2H1.1z"/>
<path class="st2" d="M83.2,24.3c0.2-1.5,1.2-5.3,0.4-6.7c-0.1-0.2-0.2-0.3-0.4-0.4c-0.6,1.7-1.7,3.3-2.9,4.6
	C81.4,22.6,82.4,23.4,83.2,24.3C83.2,24.4,83.2,24.4,83.2,24.3z"/>
<path class="st2" d="M498.2,186.2c-0.1,0-0.2-0.1-0.2-0.1c-5.6,2-12.6,4.4-17,8.6c2.2,0,4.5,1.2,4.9,3.6c0.4,3,0.3,5.8-0.4,8.4
	c0,0,0.1,0,0.1,0c1.4-6.5,8.3-12.2,13.5-15.7c1.6-1.1,3.3-2.1,5-3C502.1,187.6,500.1,187,498.2,186.2z"/>
<path class="st2" d="M501.3,201.5c0.9,0,1.9-0.1,2.8-0.1c0-0.7,0.1-1.5,0.4-2.1c-0.5,0.3-0.9,0.6-1.4,0.9
	C502.5,200.6,501.9,201.1,501.3,201.5z"/>
<path class="st2" d="M456,160v168h106.8l21.4-21.4V160H456z M575.6,216.4c-1,3.9-5.9,4.6-8.4,2.1c-3,1.7-6.2,3-9.6,3.6
	c-1,0.2-2,0.3-3,0.3c-1.2,1.4-3.2,1.9-5.2,1.6c-2.2-0.3-4.2-1.2-6.1-2.2c-0.5,0.1-0.9,0.2-1.4,0.3c-8.7,1.7-19.1,5.3-27.5,1.4
	c-2-0.9-2.6-3.2-2.3-5.2c-1,0.3-2,0.4-3,0.6c-0.5,2.6-2.8,5.1-6.2,4.3c-7.4-1.7-15-3.7-21.7-7.5c-1.4,2.2-2.7,4.5-3.5,7
	c-0.1,0.6-0.3,1.2-0.5,1.7c-1.9,6.2-10.9,3.6-9.6-2.7c0.2-0.8,0.4-1.6,0.6-2.4c0.3-1.3,0.6-2.6,0.9-3.9c-4.8-4.7-2.7-12.7-0.9-18.7
	c2.3-7.7,8.6-11.9,15.5-15.4c4.8-2.4,9.9-4.4,15-6.1c-0.8-2.4,0-5.1,3.3-5.9c5.8-1.3,11.5-3,17.4-1.8c0.8,0.2,1.5,0.6,2.1,1.2
	c1.8-0.4,3.6-0.6,5.5-0.7c5.2-0.2,10.4,0.8,15.6,1.1c5.2,0.4,6.2,7,2.9,9.3c1,0.5,1.8,1.3,2.6,2.3c4.1,5.2-0.1,9.9-5.8,10.2
	c-4.8,0.2-9.5-0.2-14.2-0.7c-2.9,0.7-5.9,1.4-8.8,2.2c-3.4,1-6.6,2.2-9.6,3.8c9.3,0.1,18.9,0.9,27.6,4.4c7.7,0.1,15.3,0.4,23,1.1
	c1.4-1.5,2.9-3,4.6-4.2c1.7-1.2,4.7-0.7,6.1,0.8c2.4,2.7,3.1,5.5,3.6,8.5c0.9,0.9,1.6,2.2,1.7,3.6
	C576.4,212.5,576.2,214.4,575.6,216.4z"/>
<path id="path19" class="st2" d="M562.8,328l4.3-17.1l17.1-4.3L562.8,328z"/>
<path class="st2" d="M501.3,201.5c0.9,0,1.9-0.1,2.8-0.1c0-0.7,0.1-1.5,0.4-2.1c-0.5,0.3-0.9,0.6-1.4,0.9
	C502.5,200.6,501.9,201.1,501.3,201.5z"/>
<path class="st2" d="M498.2,186.2c-0.1,0-0.2-0.1-0.2-0.1c-5.6,2-12.6,4.4-17,8.6c2.2,0,4.5,1.2,4.9,3.6c0.4,3,0.3,5.8-0.4,8.4
	c0,0,0.1,0,0.1,0c1.4-6.5,8.3-12.2,13.5-15.7c1.6-1.1,3.3-2.1,5-3C502.1,187.6,500.1,187,498.2,186.2z"/>
<path class="st2" d="M456,160v168h106.8l4.3-17.1l17.1-4.3V160H456z M575.6,216.4c-1,3.9-5.9,4.6-8.4,2.1c-3,1.7-6.2,3-9.6,3.6
	c-1,0.2-2,0.3-3,0.3c-1.2,1.4-3.2,1.9-5.2,1.6c-2.2-0.3-4.2-1.2-6.1-2.2c-0.5,0.1-0.9,0.2-1.4,0.3c-8.7,1.7-19.1,5.3-27.5,1.4
	c-2-0.9-2.6-3.2-2.3-5.2c-1,0.3-2,0.4-3,0.6c-0.5,2.6-2.8,5.1-6.2,4.3c-7.4-1.7-15-3.7-21.7-7.5c-1.4,2.2-2.7,4.5-3.5,7
	c-0.1,0.6-0.3,1.2-0.5,1.7c-1.9,6.2-10.9,3.6-9.6-2.7c0.2-0.8,0.4-1.6,0.6-2.4c0.3-1.3,0.6-2.6,0.9-3.9c-4.8-4.7-2.7-12.7-0.9-18.7
	c2.3-7.7,8.6-11.9,15.5-15.4c4.8-2.4,9.9-4.4,15-6.1c-0.8-2.4,0-5.1,3.3-5.9c5.8-1.3,11.5-3,17.4-1.8c0.8,0.2,1.5,0.6,2.1,1.2
	c1.8-0.4,3.6-0.6,5.5-0.7c5.2-0.2,10.4,0.8,15.6,1.1c5.2,0.4,6.2,7,2.9,9.3c1,0.5,1.8,1.3,2.6,2.3c4.1,5.2-0.1,9.9-5.8,10.2
	c-4.8,0.2-9.5-0.2-14.2-0.7c-2.9,0.7-5.9,1.4-8.8,2.2c-3.4,1-6.6,2.2-9.6,3.8c9.3,0.1,18.9,0.9,27.6,4.4c7.7,0.1,15.3,0.4,23,1.1
	c1.4-1.5,2.9-3,4.6-4.2c1.7-1.2,4.7-0.7,6.1,0.8c2.4,2.7,3.1,5.5,3.6,8.5c0.9,0.9,1.6,2.2,1.7,3.6
	C576.4,212.5,576.2,214.4,575.6,216.4z"/>
<path id="path23" class="st3" d="M562.8,328l4.3-17.1l17.1-4.3L562.8,328z"/>
<path id="path25" class="st4" d="M562.8,328l4.3-17.1l17.1-4.3L562.8,328H456V160h128.2v146.6"/>
<path id="path31" class="st0" d="M692.3,244L692.3,244c0-8.8,7.2-16,16-16l0,0c4.2,0,8.3,1.7,11.3,4.7c3,3,4.7,7.1,4.7,11.3l0,0
	c0,8.8-7.2,16-16,16l0,0C699.4,260,692.3,252.8,692.3,244z"/>
<path id="path33" class="st1" d="M692.3,244L692.3,244c0-8.8,7.2-16,16-16l0,0c4.2,0,8.3,1.7,11.3,4.7c3,3,4.7,7.1,4.7,11.3l0,0
	c0,8.8-7.2,16-16,16l0,0C699.4,260,692.3,252.8,692.3,244z"/>
<path class="st2" d="M719.9,213.5v67.9h29c-1.9-2.1-1.6-5.9,1.1-7.8c0.5-0.4,1-0.8,1.6-1.1c-1.6,0.3-4.4,0.7-6.3,1.5
	c-0.8,0.7-1.6,1.5-2.5,2.2c-1.1,0.9-2.4,1.2-3.7,1.1c-2.8,2.5-8.3,1.5-8.3-3.5V272c-1.4-1.5-1.9-3.6-0.5-5.6
	c0.6-0.8,1.3-1.6,1.9-2.4c1.5-7.4,3.8-14.6,4.7-22.2c0.6-5.1,7-6.3,9.2-2.8c1.1-1.7,2.3-3.3,3.5-4.9c-1.9-0.8-3.1-2.4-4-4.5
	c-1.4-3.3,2-6,4.8-6.3c2.6-0.3,5.1,0.1,7.7,0.2c0.9-1,1.7-1.9,2.6-2.9c2.4-2.5,6.6-1.5,8,1.4c0.7-0.1,1.5-0.2,2.2-0.3
	c0.9-0.1,1.9-0.1,2.9,0c0.7-2.5,2.9-4.5,5.8-3.3c1.9,0.8,4.1,2.4,6.1,4.4c3-2,8.1,0.2,7.9,4.2c-0.1,1.6-0.6,3.2-1.4,4.7
	c3.4,6.6,4.2,13.9-1.7,17.8c-2.3,1.5-4.8,2.8-7.4,4c1.8-0.2,3.5-0.3,5.3-0.4c4-0.2,7.8,0.1,11.7,0.5c1.5,0.1,3,0.3,4.5,0.4
	c2.6-1.4,5.4-1.9,8.8-1.4c4.3,0.6,4.8,7.3,1.2,9.1c-2.2,1.1-4.5,1.7-6.7,1.9c-0.2,0.2-0.4,0.3-0.5,0.5c-0.4,0.4-0.9,0.7-1.3,0.9
	c2.6,2.2,2.6,7.1-1.7,8.6c-4.9,1.8-10,2.8-15.2,3.4c-6.5,1.5-12.9,3-19.4,4.1H824v-67.9H719.9z"/>
<path class="st2" d="M754.1,245.2c-1.2,1.8-2.4,3.7-3.6,5.5c1.8-1,3.7-2,5.5-3c-0.7-0.4-1.3-1-1.6-1.8
	C754.3,245.7,754.2,245.4,754.1,245.2z"/>
<path id="path41" class="st2" d="M152,30.5L456,176"/>
<path id="path43" class="st5" d="M152,30.5l276.9,132.5"/>
<path id="path45" class="st6" d="M425.1,171l25.6,2.5l-18-18.4L425.1,171z"/>
<path id="path47" class="st2" d="M584.2,244h108.1"/>
<path id="path49" class="st7" d="M584.2,244h78.1"/>
<path id="path51" class="st8" d="M662.3,252.8l24.2-8.8l-24.2-8.8V252.8z"/>
<path class="st2" d="M223.1,48.3v32.3h117.5V48.3H223.1z M320.1,62.4c-1.2,2.1-3.1,3.8-5.5,5c3.9,3.1,1.3,10.7-4.2,8.8
	c-3.2-1.1-5.9-2.8-7.9-4.9c-1.5,0.3-2.9,0.6-4.1,0.8c-7.5,1.5-18.2,3.8-24.3-2.2c-0.3-0.3-0.6-0.6-0.8-1c-0.2,2.4-1.8,4.6-4.8,4.5
	c-6.4-0.1-28.6-3.1-20.1-14.3c4.6-6.1,13.2-4.4,19.6-3.2c9.1,1.7,18.1,0.2,27.3,0.4c2.3,0.1,3.9,1.4,4.5,3.2c0.6-1.7,1.7-3.4,3.3-5
	c3.2-3.3,8.1-5.5,12.6-3.5C320,53.1,322.5,58,320.1,62.4z"/>
<path class="st2" d="M584.2,247.4v32.3H680v-32.3H584.2z M671.5,272.5c-6.4,0.2-13.2-1.8-19.4-3.3c0.1,2.6-1.5,5-4.8,4.7
	c-5-0.4-10.1-0.9-15.1-1.3c-8.9,0.5-18.1-0.6-25.9-2.1c-0.5,2-1.2,4-2.3,5.9c-3.4,5.4-12.1,0.4-8.6-5c2.1-3.3,1.8-7.5,2-11.3
	c0.2-2.8,2.2-4.9,5-5c6.2-0.2,11.7,2.3,17.5,4.1c6.6,2,10.8,0.4,17-1.6c1.6-0.5,3.1-0.8,4.4-0.9c1.5-0.9,3.5-1.3,5.2-0.5
	c8,3.5,28.1-2.7,30,10.1C676.8,269.4,675.1,272.4,671.5,272.5z"/>
<path id="path61" class="st0" d="M120.3,244L120.3,244c0-8.8,7.2-16,16-16l0,0c4.2,0,8.3,1.7,11.3,4.7s4.7,7.1,4.7,11.3l0,0
	c0,8.8-7.2,16-16,16l0,0C127.5,260,120.3,252.8,120.3,244z"/>
<path id="path63" class="st1" d="M120.3,244L120.3,244c0-8.8,7.2-16,16-16l0,0c4.2,0,8.3,1.7,11.3,4.7s4.7,7.1,4.7,11.3l0,0
	c0,8.8-7.2,16-16,16l0,0C127.5,260,120.3,252.8,120.3,244z"/>
<path class="st2" d="M17.1,241.9c1.6,0.4,3,1.5,3.4,3.4c0.4,1.7,0.6,3.5,0.8,5.2c1-1.8,2.2-3.5,3.5-5.1c2-2.4,6.5-1.7,7.9,1
	c0.2,0.4,0.4,0.8,0.5,1.2c0.8-0.3,1.6-0.4,2.5-0.3c-1.6-1.9-2.1-4.8,0-6.8C29.6,241.2,23.3,241.6,17.1,241.9z"/>
<path class="st2" d="M62.5,252.8c1.5,0,5.1,0.3,6.2-0.6c3.1-2.4,6.9-1.4,8.1,2c0.4,0.1,0.8,0.3,1.1,0.5c0.6-0.5,1.2-0.9,1.9-1.1
	c0.8-1.2,2.1-2.1,3.4-2.5c-1-2.2-1.6-4.6-2.2-7c-0.1-0.1-0.3-0.1-0.4-0.2c-1.5-0.5-2.9-1-4.4-1.4c-4.2-1-8.5-1.4-12.8-1.7
	c-2.6-0.2-5.3-0.4-7.9-0.5c-4.5,2.8-9.4,5.1-13.8,8.1c-0.9,0.6-1.9,0.9-2.7,0.8c0.4,0.4,0.7,0.8,1,1.3c1.8-1.6,3.9-2.6,6.5-2.6
	c2.6,0,4.5,1,5.9,2.5c0.2-0.1,0.3-0.2,0.5-0.3c1.8-1,4.6-1,6.1,0.8c0.4,0.5,0.7,0.9,1.1,1.4c0.5,0.1,1.1,0.4,1.5,0.7
	C61.9,252.8,62.2,252.8,62.5,252.8z"/>
<path class="st2" d="M99.8,280.3c-0.8-2.4-1.6-4.9-2.5-7.4c-1.5,2.4-3.1,4.8-5,6.7c-3.4,3.2-8,0.6-8.5-3.5c-0.1-0.9-0.2-1.7-0.2-2.6
	c-0.9,1.6-2.7,2.3-4.4,2.2c-0.7,2.1-1.3,4-1.8,5.6h23C100.1,281,100,280.7,99.8,280.3z"/>
<path class="st2" d="M0.3,213.5v67.9h58.6c-0.6-1.3-1.1-2.6-1.4-3.9c-1.7,0-3.3-0.9-4.2-2.7c-0.3-0.2-0.5-0.4-0.8-0.6
	c-0.5-0.5-0.9-1.1-1.2-1.8c-1.8,0.2-3.6,0.1-5.4-0.3c-2.4,2.2-6.9,1-8.1-2.1c-2.3,0-4.5,0.3-6.6,0.8c-5.4,1.4-11.5,4.6-17.1,3.2
	c-11.7-2.7-5-21-3.2-28.5c0.4-1.6,1.6-2.7,3-3.2c-2.5,0.1-5,0.3-7.6,0.4c-4.3,0.3-6.6-5.7-3.5-8.5c3.6-3.3,8.2-4.5,12.8-5.5
	c5.3-1.2,10.4-2.8,15.4-4.7c5.3-2,12.4-6.9,18.2-5.6c4.2,0.9,7.6,3.7,11.6,5.1c1.7-1.5,3.7-2.6,5.9-3.2c2-0.5,4.7,0.3,5.6,2.3
	c0.4,0.9,0.8,1.8,1.2,2.8c2-1.3,4.7-1.4,6.4,0.3c1.5,0.2,3.1,0.8,4.6,2.1c3.4,2.9,4.5,7.9,5.6,12.1c0.7,1.2,1,2.6,1.1,4.2
	c0.3,1.1,0.6,2.2,1.1,3.2c1.5,3.1,4.3,5.7,6.5,8.4c0,0,0,0.1,0.1,0.1c0.5-0.4,0.9-0.7,1.4-1c-0.1-0.9-0.1-1.7-0.2-2.6
	c-0.4-5.7,8.5-6.7,9.8-1.3c0.8,3.4,1.3,6.7,1.4,10.1c3.1,1.3,4.4,5.5,3.3,9.3c-1,3.6-3,8.2-5.5,11.3h12.8v-67.9H0.3z"/>
<path id="path71" class="st2" d="M147.6,232.7H456"/>
<path id="path73" class="st5" d="M147.6,232.7H426"/>
<path id="path75" class="st6" d="M426,241.5l24.2-8.8l-24.2-8.8V241.5z"/>
<path class="st2" d="M223.1,200v32.3h117.5V200H223.1z M317.7,224.9c-14.6-3-29.6-0.1-44.3-1.9c-0.9-0.1-1.7-0.4-2.3-0.8
	c-6.1,1.3-12.2,2.2-18.4,0.6c-4.3-1.1-4.6-6.6-1.5-8.9c-3.4-2.7-2.5-9.3,2.8-8.9c16.8,1.4,33.7-0.3,50.5,1.9c2.4,0.3,3.5,2.1,3.6,4
	c1.5-0.1,2.9-0.2,4.4-0.5c3.3-0.5,5.6,1.8,6.1,4.4c0.6,0.1,1.2,0.2,1.8,0.3C326.7,216.6,324,226.2,317.7,224.9z"/>
<path id="path81" class="st0" d="M120,466.7L120,466.7c0-8.8,7.2-16,16-16l0,0c4.2,0,8.3,1.7,11.3,4.7s4.7,7.1,4.7,11.3l0,0
	c0,8.8-7.2,16-16,16l0,0C127.2,482.7,120,475.5,120,466.7z"/>
<path id="path83" class="st1" d="M120,466.7L120,466.7c0-8.8,7.2-16,16-16l0,0c4.2,0,8.3,1.7,11.3,4.7s4.7,7.1,4.7,11.3l0,0
	c0,8.8-7.2,16-16,16l0,0C127.2,482.7,120,475.5,120,466.7z"/>
<path class="st2" d="M98.2,492.3c0.3,0.3,0.5,0.5,0.8,0.8c0.6,0.6,1.4,1.5,2.3,2.3c0-0.2-0.1-0.5-0.1-0.8c0-0.8,0-1.7,0.1-2.7
	C100.3,492.4,99.2,492.5,98.2,492.3z"/>
<path class="st2" d="M47.1,437c0.5,2.3,0.7,4.5,0.8,6.7c1.1-0.5,2.2-0.5,3.3-0.2c1.2-1.8,2.7-3.5,4.5-4.8c2.1-1.5,5.8-0.5,6.8,1.8
	c0.9,2,1.4,3.9,1.5,5.9c0.8-0.2,1.5-0.4,2.3-0.5c1-0.2,2,0,2.9,0.4c0.5-0.2,1.1-0.4,1.6-0.5c-1-3.1-1.7-6.4-1.9-9.6H46.7
	C46.9,436.4,47,436.7,47.1,437z"/>
<path class="st2" d="M83.4,495.3c-0.1-0.3-0.2-0.5-0.2-0.8c-2.8,0.4-5.7,0.3-8.1,0.1c-2.2-0.2-4.5-0.4-6.7-0.6
	c-0.7,1.4-2.1,2.5-4.3,2.6c-0.7,0-1.4,0-2.1-0.1c1.4,1,2.8,2.1,4.1,3.3c1.4,1.3,1.7,2.8,1.5,4.1h29.4c-2.2-1.6-4.4-3.7-6.5-5.5
	C87.7,499.9,84.3,498.2,83.4,495.3z"/>
<path class="st2" d="M1.8,484.2c0.8-1,1.6-1.9,2.4-2.9c1.5-1.7,3.5-1.8,5.2-1.1c0,0,0,0,0,0c0.1-0.2,0.2-0.3,0.3-0.5
	c-3-1-5.6-2.5-7-5.5c-2.8-5.9,4-10.2,9.3-8.6c2.8,0.9,4.5,3,5.9,5.4c0.9,0,1.9,0.2,2.6,0.7c3.2,0.7,6.4,1.5,9.6,2.3
	c1-0.1,2-0.1,3.1-0.1c0.1,0,0.3-0.1,0.4-0.1c1.3-0.5,2.8-0.1,4,0.7c1.9,0.4,3.6,1.2,5,2.3c5.4-3.8,12.7-4.7,19.8-5
	c-0.1-0.9-0.2-1.8-0.2-2.8c-2.4-0.1-4.6-1.7-4.3-4.8c0-0.2,0-0.4,0.1-0.7c-0.6,0.2-1.3,0.4-1.9,0.3c1.3,2.8-0.2,7.3-4.3,7.7
	c-2.7,0.3-5-0.7-7.2-2.1c-2.9,2.4-7.8-0.3-8.1-4.1c-0.2-3.4,0.2-6.9,0.6-10.4c-3.4-5-2.1-12.8,0.5-18.9H0v49.2
	C0.6,484.9,1.2,484.5,1.8,484.2z"/>
<path class="st2" d="M39.7,494.9c-0.3-0.2-0.5-0.4-0.8-0.6c-2,1.1-4.2,1.9-6.2,2.7c0.1,0.2,0.1,0.5,0.2,0.7c1.8,6.2-7.9,8.8-9.6,2.7
	c-0.5-1.8-1.3-3.6-2.1-5.2c-0.4,0.5-0.9,1-1.3,1.5c-2.9,3.1-8.8,0.8-8.5-3.5c0-0.4,0.1-0.8,0.2-1.2c-0.3,0.2-0.6,0.4-0.9,0.5
	c-1.1,0.6-2.3,0.8-3.3,0.6c-2.2,2.5-4.5,5-7.3,7v4h55.2C50.2,500.7,44.5,498.6,39.7,494.9z"/>
<path class="st2" d="M81.9,436.1c0.8,4.3,1.1,8.7,1.1,13.1c2,0.4,3.8,2,3.9,4.7c0,0.9,0.1,1.8,0.2,2.6c0.6,1.1,1.2,2.1,1.8,3.2
	c0.7,1.4,1.6,3,2.5,4.7c1.2,0.4,2.4,1.1,3.1,2.2c0.8,1.3,1.3,2.7,1.6,4.2c0.8,0.2,1.6,0.6,2.3,1.3c1,1,1.8,2,2.4,3.1
	c2.2-2.7,6.5-3.1,8.4,0.3c0.4,0.7,0.7,1.5,1,2.2c2.7-0.4,5.9,2,6.1,5c0.5,6.9-2.6,16.5-7.8,21.2c0,0,0,0-0.1,0h13.2v-67.9H81.9z"/>
<path id="path91" class="st2" d="M136,450.7l320-163.3"/>
<path id="path93" class="st5" d="M136,450.7L429.3,301"/>
<path id="path95" class="st6" d="M433.3,308.9l17.5-18.8l-25.5,3.1L433.3,308.9z"/>
<path class="st2" d="M223.1,331.9v32.3h117.5v-32.3H223.1z M317.8,347.5c-5.7,11.4-21.2,15.8-32.7,11.4c-1.6-0.6-3.1-2.1-3.6-3.9
	c-0.4,0.1-0.7,0.1-1.1,0.2c-4.2,0.8-8.2,1.3-12.3-0.6c-0.1,0-0.1-0.1-0.2-0.1c-4.9,1.6-9.6,3.5-14.9,3.9c-2.2,0.2-4.2-1.7-4.8-3.7
	c-0.9-3.1-0.2-6,0.9-8.8c-0.5-2.5,0.9-5.6,3.5-6.2c4.8-1.1,8.9-0.6,13.2,1.7c1.4,0.8,2.5,1.5,3.6,2.2c1.6-0.5,3.2-1,4.8-1.3
	c6.3-1.2,12.6-2,19-2.5c0.9-0.9,1.7-1.8,2.5-2.7c1.7-2,3.8-2,5.5-1c1.4-1,2.9-2,4.6-2.6c3.4-1.2,6,1.9,6.3,4.8
	c0.1,0.6,0.1,1.1,0.1,1.6c0.4-0.1,0.7-0.1,1.1-0.1C317.5,339.8,319.4,344.3,317.8,347.5z"/>
<path class="st2" d="M230.5,129.1v32.3h102.6v-32.3H230.5z M326.1,157.1c-10.9-0.2-21.3-3.2-31.8-5.7c-1.2,4.6-8.3,6.1-9.4,1
	c-1.6,0.8-3.1,1.6-4.8,2.4c-6.2,3.1-12.5,5.2-19.4,5.7c-4.4,0.3-10,0.3-14.3-1.6c-3.4,0.1-6.8-0.1-10.2-0.9
	c-4.3-0.9-4.8-7.1-1.2-9.1c2-1.1,4.2-2.1,6.4-3.1c0.2-1.3,0.8-2.6,2.2-3.6c5.4-4,11.7-3.9,18.2-3.9c7.2,0,14.4-0.2,21.5,0.7
	c1.8,0.2,3.5,0.5,5.2,0.9c0.7-0.3,1.4-0.5,2.1-0.7c8.1-2.5,17.3-2,25.5-0.3c7.1,1.4,12.1,5.4,14.8,12
	C332.2,153.8,329,157.1,326.1,157.1z"/>
<path id="path105" class="st2" d="M452.6,198.6L136,46.5"/>
<path id="path107" class="st5" d="M452.6,198.6L163,59.5"/>
<path id="path109" class="st6" d="M166.8,51.6l-25.6-2.5l18,18.4L166.8,51.6z"/>
<path id="path111" class="st2" d="M456,256H147.6"/>
<path id="path113" class="st5" d="M456,256H177.6"/>
<path id="path115" class="st6" d="M177.6,247.2l-24.2,8.8l24.2,8.8V247.2z"/>
<path class="st2" d="M327.7,282.7c-15.6-4.2-31.7-3.7-47.7-3.1c-8.1,0.3-16.2,0.3-24.4,0.6c-6.3,0.2-13.7,1.9-19.8,0.5
	c-5.3-1.2-4.2-8,0-9.6c2.6-1,5.3-1.7,8-2.3c0.6-1,1.5-1.8,2.9-2.1c6.2-1.6,12.7-2.2,19.2-2.1c1.4-0.2,2.9-0.4,4.4-0.7
	c8.8-1.3,17.2-2.6,26.1-2.3c7,0.3,14,0.8,21,1.3c5.3,0.4,11.2,0.8,15.8,3.6v-9.6H230.5v32.3h102.6v-8.7
	C332.2,282.2,330.2,283.3,327.7,282.7z"/>
<path class="st2" d="M310.4,442.6c-2.2,1.6-4.5,2.9-6.8,3.8c-3.1,1.2-6.3-1.8-6.3-4.8c0-0.9,0.1-1.7,0.3-2.4c-0.2,0-0.4,0.1-0.6,0.1
	c-2,1.4-4.2,2.5-6.4,3.3c-1.9,0.7-3.5,0.1-4.6-1.1c-5.1,1.3-10.1,2.7-15.5,2.7c-7.1,0-14.5-0.7-21.3-2.7c-5.5-1.6-9.4-6.7-8-12.7
	c1.6-7,8.5-8.5,14.7-8.6c5.8-0.1,15.3-0.6,20.4,3.2c8.6-2.1,17.1-4.3,26-4.6c2.3-0.1,4.7,1.9,5,4.2c1.3-0.2,2.5-0.4,3.8-0.4
	c3.5-2.6,6.8-5.7,9.2-9h-89.7v35.5h80.2C310.1,447.1,310.1,444.9,310.4,442.6z"/>
<path class="st2" d="M330.7,415.8c-3,5.8-4.9,12-7.2,18c-0.7,1.8-2.2,4.9-3,7.8c5-3.8,9-9.4,12.7-14v-13.9h-1.8
	C331.3,414.4,331.1,415.1,330.7,415.8z"/>
<path class="st2" d="M326.6,449.2h6.6V443C331.1,445.3,328.9,447.4,326.6,449.2z"/>
<path class="st2" d="M279.3,433.1c1.6-0.5,3.2-1,4.8-1.4c-1.5,0.3-3,0.7-4.5,1.1C279.5,432.8,279.4,432.9,279.3,433.1
	C279.3,433,279.3,433,279.3,433.1z"/>
<path id="path125" class="st2" d="M456,312.6L152,466.7"/>
<path id="path127" class="st5" d="M456,312.6L178.8,453.1"/>
<path id="path129" class="st6" d="M174.8,445.3L157.2,464l25.5-3.1L174.8,445.3z"/>
<text transform="matrix(1 0 0 1 13.2988 39.5857)" class="st9 st10">DID控制者</text>
<text transform="matrix(1 0 0 1 14.7989 249.484)" class="st9 st10">DID控制者</text>
<text transform="matrix(1 0 0 1 14.0721 474.4924)" class="st9 st10">DID控制者</text>
<text transform="matrix(1 0 0 1 296.0001 83.626)" class="st11 st9 st12">控制</text>
<text transform="matrix(1 0 0 1 261.4953 225.0534)" class="st11 st9 st12">控制</text>
<text transform="matrix(1 0 0 1 290.6155 348.0796)" class="st11 st9 st12">控制</text>
<text transform="matrix(1 0 0 1 263.9171 149.0021)" class="st11 st9 st12">控制者</text>
<text transform="matrix(1 0 0 1 253.5051 277.132)" class="st11 st9 st12">控制者</text>
<text transform="matrix(1 0 0 1 310.8231 406.9997)" class="st11 st9 st12">控制者</text>
<text transform="matrix(1 0 0 1 607.9651 263.5491)" class="st13 st9 st12">描述</text>
<text transform="matrix(1 0 0 1 480.9581 186.0235)" class="st9 st10">DID 文档</text>
<text transform="matrix(1 0 0 1 736.9003 250.6852)" class="st9 st10">DID对象</text>
</svg>
