<?xml version="1.0" encoding="utf-8"?>
<!-- Generator: $$$/GeneralStr/196=Adobe Illustrator 27.6.0, SVG Export Plug-In . SVG Version: 6.00 Build 0)  -->
<svg version="1.1"
	 id="svg111" xmlns:sodipodi="http://sodipodi.sourceforge.net/DTD/sodipodi-0.dtd" xmlns:inkscape="http://www.inkscape.org/namespaces/inkscape" xmlns:cc="http://creativecommons.org/ns#" xmlns:rdf="http://www.w3.org/1999/02/22-rdf-syntax-ns#" xmlns:svg="http://www.w3.org/2000/svg" xmlns:dc="http://purl.org/dc/elements/1.1/" sodipodi:docname="figure-c.2-group-did-controllers.svg"
	 xmlns="http://www.w3.org/2000/svg" xmlns:xlink="http://www.w3.org/1999/xlink" x="0px" y="0px" viewBox="0 0 888 297.3"
	 style="enable-background:new 0 0 888 297.3;" xml:space="preserve">
<style type="text/css">
	.st0{fill-rule:evenodd;clip-rule:evenodd;fill-opacity:0;}
	.st1{fill:none;stroke:#000000;stroke-width:2.6667;stroke-linejoin:round;stroke-miterlimit:10;}
	.st2{fill-opacity:0;}
	.st3{fill-rule:evenodd;clip-rule:evenodd;fill-opacity:0.2;}
	.st4{fill:none;stroke:#000000;stroke-width:2;stroke-linejoin:round;stroke-miterlimit:10;}
	.st5{fill-rule:evenodd;clip-rule:evenodd;}
	.st6{fill:none;stroke:#4A7DBA;stroke-linejoin:round;stroke-miterlimit:10;}
	.st7{fill:none;stroke:#119209;stroke-width:4;stroke-linejoin:round;stroke-miterlimit:10;}
	.st8{fill-rule:evenodd;clip-rule:evenodd;fill:#119209;stroke:#119209;stroke-width:4;stroke-miterlimit:10;}
	.st9{fill:none;stroke:#2B40CD;stroke-width:4;stroke-linejoin:round;stroke-miterlimit:10;}
	.st10{fill-rule:evenodd;clip-rule:evenodd;fill:#2B40CD;stroke:#2B40CD;stroke-width:4;stroke-miterlimit:10;}
	.st11{fill:none;stroke:#000000;stroke-width:1.3333;stroke-linejoin:round;stroke-miterlimit:10;}
	.st12{enable-background:new    ;}
	.st13{font-family:'SimHei';}
	.st14{font-size:18px;}
	.st15{fill:#62B62F;}
	.st16{font-size:14px;}
	.st17{fill:#1E4098;}
</style>
<sodipodi:namedview  bordercolor="#666666" borderopacity="1" fit-margin-bottom="0" fit-margin-left="0" fit-margin-right="0" fit-margin-top="0" gridtolerance="10" guidetolerance="10" id="namedview113" inkscape:current-layer="svg111" inkscape:cx="422.40349" inkscape:cy="145.27963" inkscape:pageopacity="0" inkscape:pageshadow="2" inkscape:window-height="1016" inkscape:window-maximized="1" inkscape:window-width="1920" inkscape:window-x="0" inkscape:window-y="27" inkscape:zoom="1.296875" objecttolerance="10" pagecolor="#ffffff" showgrid="false">
	</sodipodi:namedview>
<path id="path7" class="st0" d="M331.9,149.4L331.9,149.4c0-8.8,7.2-16,16-16l0,0c4.2,0,8.3,1.7,11.3,4.7c3,3,4.7,7.1,4.7,11.3l0,0
	c0,8.8-7.2,16-16,16l0,0C339,165.4,331.9,158.3,331.9,149.4z"/>
<path id="path9" class="st1" d="M331.9,149.4L331.9,149.4c0-8.8,7.2-16,16-16l0,0c4.2,0,8.3,1.7,11.3,4.7c3,3,4.7,7.1,4.7,11.3l0,0
	c0,8.8-7.2,16-16,16l0,0C339,165.4,331.9,158.3,331.9,149.4z"/>
<path class="st0" d="M588.6,94.2c-3,0.8-6.2,1-9.3,1c-6.4,0.1-13.8-0.4-19.8-3.3c-1,0.8-2.1,1.7-3.1,2.6c-3.6,3.2-7,6.5-9.9,10.2
	c6.8-0.8,13.7,0.6,20.4,1.4c8,1,16,1.9,24,2.8c0.4-0.3,0.8-0.5,1.3-0.7c4.5-1.5,9-0.8,13.6,0c1.1,0.2,1.9,0.6,2.5,1.2
	c0.8-0.1,1.5-0.2,2.3-0.4c0.6-0.1,1.2-0.2,1.8-0.3c-5.2-1.4-10.6-2.4-15.5-4.6C592.7,102.2,588.9,98.7,588.6,94.2z"/>
<path class="st0" d="M520,65.4v168h106.8l21.4-21.4V65.4H520z M632.4,128.8c-1.7-1.3-2.8-2.7-3.5-4.2c-7.7,2.8-15.4,1.9-22.7-0.6
	c-0.6,0.1-1.1,0.3-1.7,0.4c-8.6,1.9-17.3,2.2-26.1,1.8c-11.7-0.5-23.5-1-35.2-2.1c-0.3,0-0.6,0-0.9-0.1c-1.3-0.1-2.5-0.3-3.8-0.4
	c-0.1,0.6-0.1,1.1-0.2,1.7c-0.3,5.4-8.8,7.1-9.8,1.3c-0.3-1.5-0.5-3-0.6-4.5c-3.5-0.8-4.4-6-1.9-8.3c0.5-0.5,1-0.9,1.5-1.2
	c0.1-2.8,0.3-5.5,0.7-8.3c0.5-3.8,5.5-4.5,8.1-2.4c3.5-5.3,8-10.2,13-14.6c1-0.9,2-1.7,2.9-2.5c-0.3-2,0.3-4.2,2.3-5.1
	c3.2-1.4,6.4-1.9,9.7-2.1c1.2-0.4,2.3-0.7,3.6-0.9c1.7-0.3,3.3-0.5,5-0.5c0.8-0.9,2-1.5,3.7-1.6c6.9-0.1,13.7-0.8,20,0.6
	c0.2,0,0.4,0,0.7-0.1c1.4-0.2,2.7,0.4,3.5,1.4c2.5,1.1,4.9,2.6,7.2,4.9c3.1,3.1,6,7.4,3.9,11.9c-0.8,1.8-2.2,3-3.9,3.8
	c2.5,0.7,5.1,1.3,7.6,1.9c5.6,1.5,11.7,3,16.1,7.1c0.8,0.8,1.6,1.7,2.2,2.6c1,0.7,1.8,1.8,2.1,2.8c0.1,0.3,0.1,0.7,0.2,1.1
	c1.5,3.3,2.5,7,3.7,10.4C641.1,127.1,635.9,131.4,632.4,128.8z"/>
<path id="path13" class="st0" d="M626.8,233.4l4.3-17.1l17.1-4.3L626.8,233.4z"/>
<path class="st2" d="M588.6,94.2c-3,0.8-6.2,1-9.3,1c-6.4,0.1-13.8-0.4-19.8-3.3c-1,0.8-2.1,1.7-3.1,2.6c-3.6,3.2-7,6.5-9.9,10.2
	c6.8-0.8,13.7,0.6,20.4,1.4c8,1,16,1.9,24,2.8c0.4-0.3,0.8-0.5,1.3-0.7c4.5-1.5,9-0.8,13.6,0c1.1,0.2,1.9,0.6,2.5,1.2
	c0.8-0.1,1.5-0.2,2.3-0.4c0.6-0.1,1.2-0.2,1.8-0.3c-5.2-1.4-10.6-2.4-15.5-4.6C592.7,102.2,588.9,98.7,588.6,94.2z"/>
<polygon class="st2" points="648.2,212.1 648.2,212.1 626.8,233.4 "/>
<path class="st2" d="M520,65.4v168h106.8l4.3-17.1l17.1-4.3V65.4H520z M632.4,128.8c-1.7-1.3-2.8-2.7-3.5-4.2
	c-7.7,2.8-15.4,1.9-22.7-0.6c-0.6,0.1-1.1,0.3-1.7,0.4c-8.6,1.9-17.3,2.2-26.1,1.8c-11.7-0.5-23.5-1-35.2-2.1c-0.3,0-0.6,0-0.9-0.1
	c-1.3-0.1-2.5-0.3-3.8-0.4c-0.1,0.6-0.1,1.1-0.2,1.7c-0.3,5.4-8.8,7.1-9.8,1.3c-0.3-1.5-0.5-3-0.6-4.5c-3.5-0.8-4.4-6-1.9-8.3
	c0.5-0.5,1-0.9,1.5-1.2c0.1-2.8,0.3-5.5,0.7-8.3c0.5-3.8,5.5-4.5,8.1-2.4c3.5-5.3,8-10.2,13-14.6c1-0.9,2-1.7,2.9-2.5
	c-0.3-2,0.3-4.2,2.3-5.1c3.2-1.4,6.4-1.9,9.7-2.1c1.2-0.4,2.3-0.7,3.6-0.9c1.7-0.3,3.3-0.5,5-0.5c0.8-0.9,2-1.5,3.7-1.6
	c6.9-0.1,13.7-0.8,20,0.6c0.2,0,0.4,0,0.7-0.1c1.4-0.2,2.7,0.4,3.5,1.4c2.5,1.1,4.9,2.6,7.2,4.9c3.1,3.1,6,7.4,3.9,11.9
	c-0.8,1.8-2.2,3-3.9,3.8c2.5,0.7,5.1,1.3,7.6,1.9c5.6,1.5,11.7,3,16.1,7.1c0.8,0.8,1.6,1.7,2.2,2.6c1,0.7,1.8,1.8,2.1,2.8
	c0.1,0.3,0.1,0.7,0.2,1.1c1.5,3.3,2.5,7,3.7,10.4C641.1,127.1,635.9,131.4,632.4,128.8z"/>
<path id="path17" class="st3" d="M626.8,233.4l4.3-17.1l17.1-4.3L626.8,233.4z"/>
<path id="path19" class="st4" d="M626.8,233.4l4.3-17.1l17.1-4.3L626.8,233.4H520v-168h128.2v146.6"/>
<path id="path25" class="st5" d="M756.3,149.4L756.3,149.4c0-8.8,7.2-16,16-16l0,0c4.2,0,8.3,1.7,11.3,4.7c3,3,4.7,7.1,4.7,11.3l0,0
	c0,8.8-7.2,16-16,16l0,0C763.4,165.4,756.3,158.3,756.3,149.4z"/>
<path id="path27" class="st6" d="M756.3,149.4L756.3,149.4c0-8.8,7.2-16,16-16l0,0c4.2,0,8.3,1.7,11.3,4.7c3,3,4.7,7.1,4.7,11.3l0,0
	c0,8.8-7.2,16-16,16l0,0C763.4,165.4,756.3,158.3,756.3,149.4z"/>
<path class="st0" d="M783.9,118.9v67.9H888v-67.9H783.9z M874.9,179c0.4,5.9-8.1,6.4-9.8,1.3c-0.3-1-0.6-2-0.8-3.2
	c-1.6,0.6-3.2,1.1-4.8,1.4c-1,0.2-1.8,0.3-2.6,0.3c-0.2,0.1-0.4,0.2-0.6,0.3c-2,0.8-3.7,0.1-4.8-1.3c-1.2,0.7-2.5,1.4-3.7,2
	c-1.9,0.9-3.7,0.6-5.1-0.3c-3.1,0.8-6.2,1.3-9.3,2c-5.6,1.3-11.1,3.1-17,2.8c-3.5-0.2-5.9-3.6-4.6-6.9c-4.4,3.2-9,6-14.4,7.9
	c-2.1,0.8-4.5-0.6-5.6-2.3c-2.1-3.2-1.9-6.9-1.3-10.5c0.6-3.4,2.9-8.2,1.3-11.5c-1.3-2.8-0.4-6.6,3-7.3c5.7-1.3,10.7,0.8,16.1,2.1
	c0.8-1.5,1.2-3.2,1.5-5.6c1-6.3,1.3-12.3,3.9-18.3c1.2-2.9,4.5-3,6.8-1.6c2.5-3.4,5.6-6.2,10-8.1c1.8-0.8,3.9,0.3,5.1,1.6
	c1,0.1,1.9,0.6,2.7,1.4c0.5,0.6,1,1.1,1.4,1.7c1.2-1,2.5-1.7,4-2.1c2-0.5,4.7,0.3,5.6,2.3c2,4.1,2.5,7.9,2.1,11.2
	c1.6,3.7-0.2,6.4-3.2,7.8c-3,4.4-7.7,8-12.7,11.3c-0.2,0.2-0.4,0.4-0.6,0.6c0.8,0.2,1.6,0.6,2.2,1.1c0.6-0.6,1.3-1,2.1-1.3
	c4.9-1.9,7.5-1.1,11.8,1.4c1.4,0.8,2.2,2.4,2.3,4.1c1.3-1.6,2.7-3.1,4.3-4.5c1.9-1.6,4.6-1.9,6.6-0.4c2.3-1.3,5.5-0.9,6.9,1.7
	c1.7,3.2,1.8,6,0.8,8.5C875.3,171.8,874.7,175.6,874.9,179z"/>
<path class="st0" d="M821.3,155.7c0.9-0.2,1.8-0.5,2.7-0.9c0.3-0.2,0.5-0.4,0.8-0.6c1-0.7,2.2-1.5,3.5-2.3c1.1-2.2,2.4-4.4,4.1-6.2
	c-3.4,1.4-7,2.2-10.1,2.5C822.1,150.8,821.9,153.3,821.3,155.7z"/>
<path id="path35" class="st0" d="M359.2,138.1h159.7"/>
<path id="path37" class="st7" d="M359.2,138.1h129.7"/>
<path id="path39" class="st8" d="M488.9,146.9l24.2-8.8l-24.2-8.8V146.9z"/>
<path id="path41" class="st0" d="M648.2,149.4h108.1"/>
<path id="path43" class="st9" d="M648.2,149.4h78.1"/>
<path id="path45" class="st10" d="M726.3,158.2l24.2-8.8l-24.2-8.8V158.2z"/>
<path class="st0" d="M359.2,105.4v32.3h158.3v-32.3H359.2z M472.9,122.1c-0.5,2.6-0.2,5.6-1.5,8.1c-1.7,3.1-5.4,5-8.8,3.5
	c-2.3-1-3.6-2.8-4.2-5c-2.2,0.3-4.3,0.5-6,0.6c-4.3,0.3-8.7,0.1-13-0.5c-13.2,1.7-26.2,4.8-39.5,6.2c-4.4,0.5-6.5-5.8-3.5-8.5
	c1.9-1.7,3.9-2.8,6-3.6c-2.1-0.4-4.2-1-6.2-1.8c-3.5-1.5-3-7,0-8.6c7-3.8,15.1-3.3,22.8-3.6c3.3-0.1,4.9,2.4,4.8,4.9
	c2.7,0.1,5.4,0.2,8.1,0.2c6.1,0,12.2-0.1,18.2-0.8c4.9-0.6,9.5-1.6,14.4-0.6c0.6,0.1,1.2,0.4,1.7,0.8c2.9-2,7.9,0.5,7.9,4.3
	C474.1,119.4,473.7,120.9,472.9,122.1z"/>
<path class="st0" d="M715.2,181c-0.5-0.1-1-0.1-1.5-0.2c-2.7-0.4-3.7-2.8-3.5-5.2c-2.5,0.3-5.1,0.5-7.6,0.6c-0.7,0-1.3,0.1-2,0.1
	c-0.7,1.7-2.1,3.1-4.4,3.4c-9.9,1.1-21.1,2.4-30.2-2.7c-1.2-0.7-1.9-1.8-2.2-3c-0.9,0.8-1.7,1.6-2.4,2.1c-5.3,3.7-10.3-5-5-8.6
	c5.3-3.7,8.4-7.2,15.3-5.7c7.2,1.6,14.7-1.7,21.8-2.6c7.2-0.9,14,0.5,20.8,2.8c1.9,0.6,3.8,1.3,5.6,2c7.8-1.3,16.3-1.7,18.9,6.2
	c0.6,1.8,0,3.5-1.1,4.6c2.3,0.8,4.4,1.8,6.5,3v-25.1h-95.8v32.3h87.9C729.7,182.3,722,181.9,715.2,181z"/>
<path id="path55" class="st5" d="M168,28.1L168,28.1c0-8.8,7.2-16,16-16l0,0c4.2,0,8.3,1.7,11.3,4.7s4.7,7.1,4.7,11.3l0,0
	c0,8.8-7.2,16-16,16l0,0C175.2,44.1,168,37,168,28.1z"/>
<path id="path57" class="st6" d="M168,28.1L168,28.1c0-8.8,7.2-16,16-16l0,0c4.2,0,8.3,1.7,11.3,4.7s4.7,7.1,4.7,11.3l0,0
	c0,8.8-7.2,16-16,16l0,0C175.2,44.1,168,37,168,28.1z"/>
<path class="st0" d="M39.4,122.1c-0.9,2.7-2.1,5.2-3.4,7.7c-1.5,2.7-3.2,5.4-5.3,7.8c-1.3,1.6-3,2.9-4.5,4.4c1.3,0,2.5,0,3.8-0.1
	c3.8-0.2,7.5-1,11.2-1.2c0.4-0.6,0.9-1.1,1.4-1.6c4.2-4,10.3-4.2,15.5-2.2c2.4,0.9,4.6,2.1,6.8,3.4c1.6-0.3,3.2-0.6,4.9-0.9
	c0.3,0,0.6-0.1,0.9-0.1c-0.6-1.7-1.2-3.4-1.6-5.2c-8.2-2.2-17.5-0.8-25.7-0.9c-4.7-0.1-6.1-5.3-3.5-8.5c0.5-0.7,1.1-1.3,1.7-1.9
	c-0.4-1.2-0.4-2.6,0.1-3.8C40.1,119.3,40.1,120,39.4,122.1z"/>
<path class="st0" d="M63.8,173.1c2-0.8,4-1.4,6-1.1c1.8,0.3,3.2,1.1,4.1,2.3c0.9-0.5,1.8-0.7,2.6-0.6c-0.1-2.4-0.3-4.7-0.5-7.1
	c-0.2-1.9,0.7-3.3,2.1-4.1c-0.2-0.9-0.5-1.9-0.7-2.8c-1.1,0-2.3,0.1-3.4,0.1c-3.7,1.3-7.9,1.3-11.7,1.6c-2,0.2-4,0.3-6,0.3
	c0.3,0.4,0.5,0.9,0.6,1.4c0.6,2.1,0.7,4.1,0.4,6C59.6,170.3,61.8,171.6,63.8,173.1z"/>
<path class="st0" d="M100.3,165c-0.5,2.2-0.9,4.4-1.1,6.7c0.1-0.8,0.3-1.6,0.4-2.3c0.3-1.4,0.6-2.8,1-4.3
	C100.5,165.1,100.4,165,100.3,165z"/>
<path class="st0" d="M0,100.9v96.9h76.2c-0.3-0.5-0.4-1.1-0.5-1.8c-0.1-2-0.1-4,0.1-5.9c-2.1,0.2-4.1,0.7-6.6,1.6
	c-4.1,1.7-8.1,3.6-12.4,4.6c-5.2,1.2-14.1-0.5-14.3-6.2c-1.4,0.8-3.2,0.7-4.7,0.1c-1,0.5-2.1,1-3,1.7c-3.8,2.5-7.2-0.9-7.3-4.4
	c-2,1.8-4.2,3.4-6.6,4.7c-3.7,2-8.7-1.3-7.3-5.6c1.5-5,6.9-9.5,10.4-13.1c1.3-1.3,2.6-2.7,4-4c-1.5-0.6-2.9-1.1-4.4-1.8
	c-2.6-1.1-5.5-2.6-7.7-4.6c-1.5,0.8-3.1,1.6-4.7,2.3c-2.7,1.1-5.3-1.2-6.2-3.5c-3.2-8.1,1.3-15.5,8.6-18.3
	c2.2-6.5,8.2-10.2,11.8-15.8c1.9-3,3.4-6.1,4.5-9.4c0.9-2.7,1.8-5.2,4.2-6.9c5.1-3.8,12.1-2.2,17.9-1.4c8.6,1.3,22.8-4,29.6,3
	c2.8,2.9,1.8,6.2,2.5,9.7c0.6,3.1,3.1,4.8,5.4,6.8c4.7,4,9.7,7.7,14.4,11.6c2.5-2.2,6.8-1.5,8.1,2.3c3,9.1-1,18.3-2.8,27.2
	c-1.9,9.3-2.7,19-8.3,27c0,0-0.1,0.1-0.1,0.1h20.6v-96.9H0z"/>
<path id="path67" class="st0" d="M195.3,39.4l141.3,98.7"/>
<path id="path69" class="st7" d="M195.3,39.4L312,120.9"/>
<path id="path71" class="st8" d="M306.9,128.1l24.8,6.6l-14.8-21L306.9,128.1z"/>
<path id="path73" class="st5" d="M168,149.4L168,149.4c0-8.8,7.2-16,16-16l0,0c4.2,0,8.3,1.7,11.3,4.7s4.7,7.1,4.7,11.3l0,0
	c0,8.8-7.2,16-16,16l0,0C175.2,165.4,168,158.3,168,149.4z"/>
<path id="path75" class="st6" d="M168,149.4L168,149.4c0-8.8,7.2-16,16-16l0,0c4.2,0,8.3,1.7,11.3,4.7s4.7,7.1,4.7,11.3l0,0
	c0,8.8-7.2,16-16,16l0,0C175.2,165.4,168,158.3,168,149.4z"/>
<path id="path77" class="st0" d="M200,149.4h131.9"/>
<path id="path79" class="st7" d="M200,149.4h101.9"/>
<path id="path81" class="st8" d="M301.9,158.2l24.2-8.8l-24.2-8.8V158.2z"/>
<path id="path83" class="st5" d="M168,268.1L168,268.1c0-8.8,7.2-16,16-16l0,0c4.2,0,8.3,1.7,11.3,4.7s4.7,7.1,4.7,11.3l0,0
	c0,8.8-7.2,16-16,16l0,0C175.2,284.1,168,277,168,268.1z"/>
<path id="path85" class="st6" d="M168,268.1L168,268.1c0-8.8,7.2-16,16-16l0,0c4.2,0,8.3,1.7,11.3,4.7s4.7,7.1,4.7,11.3l0,0
	c0,8.8-7.2,16-16,16l0,0C175.2,284.1,168,277,168,268.1z"/>
<path id="path87" class="st0" d="M195.3,256.8l141.3-96.1"/>
<path id="path89" class="st7" d="M195.3,256.8l116.5-79.2"/>
<path id="path91" class="st8" d="M316.7,184.9l15-20.9l-24.9,6.3L316.7,184.9z"/>
<path id="path93" class="st0" d="M518.9,160.8H359.2"/>
<path id="path95" class="st7" d="M518.9,160.8H389.2"/>
<path id="path97" class="st8" d="M389.2,152l-24.2,8.8l24.2,8.8V152z"/>
<path class="st0" d="M359.2,165.4v32.3h158.3v-32.3H359.2z M482.2,185.2c-2.2,4.9-8.5,5.9-13.2,6.5c-8.5,1.1-17.1,1.6-25.7,2
	c-10.3,0.5-24.9,2.6-35.4-2.1c-3.1,2-8-1.2-7.5-5.4c-0.2-0.2-0.3-0.4-0.5-0.6c-1.7-2.1-2.1-5.1,0-7.1c0.7-0.6,1.4-1.2,2.2-1.8
	c-0.3-2.3,1-4.8,3.6-5.4c2.9-0.7,4.4,0.1,6.4,1.1c6-1.5,12.5-1.8,18.1-2.6c12.1-1.7,24.5-4.1,36.4,0c1.8,0.6,2.8,1.9,3.2,3.3
	c1.5-0.4,2.9-0.5,4.5-0.3C479.9,173.7,484.8,179.7,482.2,185.2z"/>
<path id="path103" class="st0" d="M157.6,289.4c-11.1,0-20.1-14.3-20.1-32v-76c0-17.7-9-32-20.1-32l0,0c11.1,0,20.1-14.3,20.1-32
	v-76l0,0c0-17.7,9-32,20.1-32V289.4z"/>
<path id="path105" class="st0" d="M157.6,289.4c-11.1,0-20.1-14.3-20.1-32v-76c0-17.7-9-32-20.1-32l0,0c11.1,0,20.1-14.3,20.1-32
	v-76l0,0c0-17.7,9-32,20.1-32"/>
<path id="path107" class="st11" d="M157.6,289.4c-11.1,0-20.1-14.3-20.1-32v-76c0-17.7-9-32-20.1-32l0,0c11.1,0,20.1-14.3,20.1-32
	v-76l0,0c0-17.7,9-32,20.1-32"/>
<text transform="matrix(1 0 0 1 31.3398 143.5046)" class="st12"><tspan x="0" y="0" class="st13 st14">DID控制者</tspan><tspan x="0" y="21.6" class="st13 st14">   集体</tspan></text>
<text transform="matrix(1 0 0 1 425.3265 126.5144)" class="st15 st13 st16">控制</text>
<text transform="matrix(1 0 0 1 417.5033 181.2007)" class="st15 st13 st16">控制者</text>
<text transform="matrix(1 0 0 1 546.5791 88.7712)" class="st13 st14">DID 文档</text>
<text transform="matrix(1 0 0 1 798.949 158.2297)" class="st13 st14">DID对象</text>
<text transform="matrix(1 0 0 1 676.476 168.3658)" class="st17 st13 st16">描述</text>
</svg>
