<?xml version="1.0" encoding="utf-8"?>
<!-- Generator: $$$/GeneralStr/196=Adobe Illustrator 27.6.0, SVG Export Plug-In . SVG Version: 6.00 Build 0)  -->
<svg version="1.1"
	 id="svg173" xmlns:sodipodi="http://sodipodi.sourceforge.net/DTD/sodipodi-0.dtd" xmlns:inkscape="http://www.inkscape.org/namespaces/inkscape" xmlns:cc="http://creativecommons.org/ns#" xmlns:rdf="http://www.w3.org/1999/02/22-rdf-syntax-ns#" xmlns:svg="http://www.w3.org/2000/svg" xmlns:dc="http://purl.org/dc/elements/1.1/" sodipodi:docname="figure-b.1-controller-and-subject-equivalence.svg"
	 xmlns="http://www.w3.org/2000/svg" xmlns:xlink="http://www.w3.org/1999/xlink" x="0px" y="0px" viewBox="0 0 667.4 516.2"
	 style="enable-background:new 0 0 667.4 516.2;" xml:space="preserve">
<style type="text/css">
	.st0{fill-rule:evenodd;clip-rule:evenodd;}
	.st1{fill:none;stroke:#4A7DBA;stroke-linejoin:round;stroke-miterlimit:10;}
	.st2{fill-rule:evenodd;clip-rule:evenodd;fill-opacity:0;}
	.st3{fill:none;stroke:#15A50A;stroke-width:4;stroke-linejoin:round;stroke-miterlimit:10;}
	.st4{fill-rule:evenodd;clip-rule:evenodd;fill:#15A50A;stroke:#15A50A;stroke-width:4;stroke-miterlimit:10;}
	.st5{fill:#FF0000;}
	.st6{fill-rule:evenodd;clip-rule:evenodd;fill-opacity:0.2;}
	.st7{fill:none;stroke:#000000;stroke-width:2;stroke-linejoin:round;stroke-miterlimit:10;}
	.st8{fill:none;stroke:#2B40CD;stroke-width:4;stroke-linejoin:round;stroke-miterlimit:10;}
	.st9{fill-rule:evenodd;clip-rule:evenodd;fill:#2B40CD;stroke:#2B40CD;stroke-width:4;stroke-miterlimit:10;}
	.st10{fill:none;stroke:#FF0000;stroke-width:4;stroke-linejoin:round;stroke-miterlimit:10;}
	.st11{fill-rule:evenodd;clip-rule:evenodd;fill:#FF0000;stroke:#FF0000;stroke-width:4;stroke-miterlimit:10;}
	.st12{fill:none;stroke:#FF0000;stroke-width:3;stroke-linejoin:round;stroke-miterlimit:10;stroke-dasharray:12,9;}
	.st13{fill-rule:evenodd;clip-rule:evenodd;fill:#FF0000;stroke:#FF0000;stroke-width:3;stroke-miterlimit:10;}
	.st14{fill:none;stroke:#15A50A;stroke-width:3;stroke-linejoin:round;stroke-miterlimit:10;}
	.st15{fill-rule:evenodd;clip-rule:evenodd;fill:#15A50A;stroke:#15A50A;stroke-width:3;stroke-miterlimit:10;}
	.st16{font-family:'SimHei';}
	.st17{font-size:18px;}
	.st18{fill:#D23719;}
	.st19{font-size:14px;}
	.st20{fill:#E63B10;}
	.st21{fill:#62B62F;}
	.st22{fill:#1E4098;}
</style>
<sodipodi:namedview  bordercolor="#666666" borderopacity="1" fit-margin-bottom="0" fit-margin-left="0" fit-margin-right="0" fit-margin-top="0" gridtolerance="10" guidetolerance="10" id="namedview175" inkscape:current-layer="svg173" inkscape:cx="381.09918" inkscape:cy="383.24915" inkscape:pageopacity="0" inkscape:pageshadow="2" inkscape:window-height="1016" inkscape:window-maximized="1" inkscape:window-width="1920" inkscape:window-x="0" inkscape:window-y="27" inkscape:zoom="0.91702911" objecttolerance="10" pagecolor="#ffffff" showgrid="false">
	</sodipodi:namedview>
<path id="path7" class="st0" d="M74,114L74,114c0-8.8,7.2-16,16-16l0,0c4.2,0,8.3,1.7,11.3,4.7c3,3,4.7,7.1,4.7,11.3l0,0
	c0,8.8-7.2,16-16,16l0,0C81.1,130,74,122.8,74,114z"/>
<path id="path9" class="st1" d="M74,114L74,114c0-8.8,7.2-16,16-16l0,0c4.2,0,8.3,1.7,11.3,4.7c3,3,4.7,7.1,4.7,11.3l0,0
	c0,8.8-7.2,16-16,16l0,0C81.1,130,74,122.8,74,114z"/>
<path id="path11" class="st2" d="M101.3,125.3l155.8,157.5"/>
<path id="path13" class="st3" d="M101.3,125.3L236,261.5"/>
<path id="path15" class="st4" d="M229.7,267.7l23.2,11l-10.7-23.4L229.7,267.7z"/>
<path id="path25" class="st5" d="M340,90c0,1.9-0.2,3.4-0.7,4.8c-0.5,1.3-1.2,2.4-2.1,3.2c-0.9,0.8-2,1.4-3.3,1.8
	c-1.3,0.4-2.8,0.6-4.6,0.6h-4.8c-0.3,0-0.6-0.1-0.9-0.3c-0.2-0.2-0.3-0.5-0.3-1V81.5c0-0.5,0.1-0.8,0.3-1c0.2-0.2,0.5-0.3,0.9-0.3
	h5.2c1.8,0,3.3,0.2,4.6,0.6c1.3,0.4,2.3,1,3.2,1.9c0.9,0.8,1.5,1.8,2,3.1C339.7,87,340,88.4,340,90z M335.7,90.1
	c0-1-0.1-1.8-0.3-2.7c-0.2-0.8-0.6-1.5-1.1-2.1c-0.5-0.6-1.1-1.1-1.9-1.4c-0.8-0.3-1.8-0.5-3-0.5h-2.1v13.8h2.1
	c1.1,0,2.1-0.1,2.8-0.4c0.8-0.3,1.4-0.7,1.9-1.3c0.5-0.6,0.9-1.3,1.2-2.2C335.6,92.3,335.7,91.3,335.7,90.1z M347.5,99.8
	c0,0.1,0,0.2-0.1,0.3c-0.1,0.1-0.2,0.2-0.3,0.2c-0.2,0.1-0.4,0.1-0.6,0.1c-0.3,0-0.6,0-1,0c-0.4,0-0.7,0-1,0c-0.3,0-0.5-0.1-0.6-0.1
	c-0.2-0.1-0.3-0.1-0.3-0.2c-0.1-0.1-0.1-0.2-0.1-0.3V80.7c0-0.1,0-0.2,0.1-0.3c0.1-0.1,0.2-0.2,0.3-0.2c0.2-0.1,0.4-0.1,0.6-0.1
	c0.3,0,0.6,0,1,0c0.4,0,0.7,0,1,0c0.3,0,0.5,0.1,0.6,0.1c0.2,0.1,0.3,0.1,0.3,0.2c0.1,0.1,0.1,0.2,0.1,0.3V99.8z M368.7,90
	c0,1.9-0.2,3.4-0.7,4.8c-0.5,1.3-1.2,2.4-2.1,3.2c-0.9,0.8-2,1.4-3.3,1.8c-1.3,0.4-2.8,0.6-4.6,0.6h-4.8c-0.3,0-0.6-0.1-0.9-0.3
	c-0.2-0.2-0.3-0.5-0.3-1V81.5c0-0.5,0.1-0.8,0.3-1c0.2-0.2,0.5-0.3,0.9-0.3h5.2c1.8,0,3.3,0.2,4.6,0.6c1.3,0.4,2.3,1,3.2,1.9
	c0.9,0.8,1.5,1.8,2,3.1C368.4,87,368.7,88.4,368.7,90z M364.4,90.1c0-1-0.1-1.8-0.3-2.7c-0.2-0.8-0.6-1.5-1.1-2.1
	c-0.5-0.6-1.1-1.1-1.9-1.4c-0.8-0.3-1.8-0.5-3-0.5H356v13.8h2.1c1.1,0,2.1-0.1,2.8-0.4c0.8-0.3,1.4-0.7,1.9-1.3
	c0.5-0.6,0.9-1.3,1.2-2.2C364.3,92.3,364.4,91.3,364.4,90.1z"/>
<path class="st2" d="M281.5,301.5c0.4-0.3,0.8-0.5,1.2-0.7c0.4-0.2,0.9-0.3,1.3-0.5c-1,0-2,0-3,0
	C281.2,300.7,281.3,301.1,281.5,301.5z"/>
<path class="st2" d="M257.2,281.4v226.8h146.1l29.2-29.2V281.4H257.2z M425.2,305.4c-1,0.2-2,0.3-3,0.3c1.9,3.3-0.7,8-5.6,7.3
	c-11.3-1.6-22.5-3.4-33.8-4.5c0.6,2.9-1.6,6.4-4.9,6.4c-0.9,0-1.8,0-2.8,0c-6.1,2.8-15.6,1.6-21,0.1c-3-0.9-4-3.9-3.3-6.4
	c-3.8,0.4-7.6,0.8-11.4,1.3c-6.3,0.8-12.6,1.4-18.8,2.4c-5.6,0.9-11.2,2-16.8,2.1c-6.5,0.1-15.4,0.4-21.2-3.5
	c-0.2,2.5-0.4,5.1,0.6,7.1c2.9,5.7-5.8,10.8-8.6,5c-2.1-4.2-1.9-8-1.7-12.6c0.2-4.8-2.4-8.6-3.8-13c-0.8-2.5,0.9-5.6,3.5-6.2
	c11.2-2.4,22.5,0.8,33.7,1.7c3,0.3,5.9,0.5,8.9,0.7c0.9-1.4,2.4-2.4,4.1-2.6c3.7-0.4,8.8-0.1,11.5,2.7c1.7,0.1,3.4,0.2,5.1,0.4
	c2.5,0.3,5,0.6,7.5,1c0.8,0,1.6,0.1,2.4,0.1c13.2,0.6,26.5,1.2,39.7,1c6.4-0.1,12.8-0.4,19.2-0.5c0.1,0,0.3,0,0.4,0
	c4.8-6.7,17.5-4.6,22.3,1.2C429.5,299.6,429.4,304.8,425.2,305.4z"/>
<path id="path33" class="st2" d="M403.3,508.2l5.8-23.4l23.4-5.8L403.3,508.2z"/>
<path class="st2" d="M281.5,301.5c0.4-0.3,0.8-0.5,1.2-0.7c0.4-0.2,0.9-0.3,1.3-0.5c-1,0-2,0-3,0
	C281.2,300.7,281.3,301.1,281.5,301.5z"/>
<path class="st2" d="M257.2,281.4v226.8h146.1l5.8-23.4l23.4-5.8V281.4H257.2z M425.2,305.4c-1,0.2-2,0.3-3,0.3
	c1.9,3.3-0.7,8-5.6,7.3c-11.3-1.6-22.5-3.4-33.8-4.5c0.6,2.9-1.6,6.4-4.9,6.4c-0.9,0-1.8,0-2.8,0c-6.1,2.8-15.6,1.6-21,0.1
	c-3-0.9-4-3.9-3.3-6.4c-3.8,0.4-7.6,0.8-11.4,1.3c-6.3,0.8-12.6,1.4-18.8,2.4c-5.6,0.9-11.2,2-16.8,2.1c-6.5,0.1-15.4,0.4-21.2-3.5
	c-0.2,2.5-0.4,5.1,0.6,7.1c2.9,5.7-5.8,10.8-8.6,5c-2.1-4.2-1.9-8-1.7-12.6c0.2-4.8-2.4-8.6-3.8-13c-0.8-2.5,0.9-5.6,3.5-6.2
	c11.2-2.4,22.5,0.8,33.7,1.7c3,0.3,5.9,0.5,8.9,0.7c0.9-1.4,2.4-2.4,4.1-2.6c3.7-0.4,8.8-0.1,11.5,2.7c1.7,0.1,3.4,0.2,5.1,0.4
	c2.5,0.3,5,0.6,7.5,1c0.8,0,1.6,0.1,2.4,0.1c13.2,0.6,26.5,1.2,39.7,1c6.4-0.1,12.8-0.4,19.2-0.5c0.1,0,0.3,0,0.4,0
	c4.8-6.7,17.5-4.6,22.3,1.2C429.5,299.6,429.4,304.8,425.2,305.4z"/>
<path id="path37" class="st6" d="M403.3,508.2l5.8-23.4l23.4-5.8L403.3,508.2z"/>
<path id="path39" class="st7" d="M403.3,508.2l5.8-23.4l23.4-5.8L403.3,508.2H257.2V281.4h175.3V479"/>
<path class="st2" d="M390.7,196.1v32.3h44.2c-0.1-0.8-0.3-1.6-0.4-2.4c-2.3-0.3-4.5-2-4.7-4.9c-0.2-3,0.2-4.2-3.2-3.2
	c-2,0.6-4.1,1.8-5.2,3.6c-0.9,1.6-2.7,2.4-4.5,2.4c-3.4,2.8-8.5-1.6-7.6-5.6c0.6-2.6,1.7-4.6,3.3-6.6c0.7-0.9,1.8-1.3,2.9-1.4
	c1.8-2.3,3.3-4.9,3.6-7.7c0.6-6.4,10.7-6.4,10,0c-0.2,1.8-0.6,3.4-1.1,5c0.2,0,0.5,0,0.7,0c2.8,0,4.9,0.8,6.5,2.1
	c0.4-0.5,0.7-1.1,1.1-1.6c1.5-2.3,5.5-3.6,7.6-1.3c5.1-2.9,11.7-4.6,14.9-0.5c1.4-2,2.7-4.1,3.7-6.5c2.3-5.4,10.4-1.4,9.1,3.9
	c-0.1,0.6-0.3,1.2-0.4,1.8c1.8-1.7,4-2.8,6.6-2.6c1.5,0.1,2.6,0.6,3.6,1.2c0.1-0.1,0.2-0.1,0.3-0.2c5.8-2.9,10.8,5.8,5,8.6
	c-0.9,0.4-0.4,2.2-0.7,2.2c0.1,0.5,0.2,0.9,0.4,1.3c1.5,4.5-5.3,8.9-8.4,4.9c-0.5-0.7-0.9-1.4-1.2-2.2c0,0,0,0,0,0
	c-0.1-0.2-0.2-0.7-0.4-1.3c-0.8,3.8-6.8,4.6-8.8,1.5c-1.2,3.4-2.8,6.7-4.9,9.6h48.9v-32.3H390.7z"/>
<path id="path47" class="st2" d="M433.7,281.4l155.8-156"/>
<path id="path49" class="st8" d="M433.7,281.4l134.6-134.7"/>
<path id="path51" class="st9" d="M574.5,152.9l10.9-23.3l-23.3,10.9L574.5,152.9z"/>
<path class="st2" d="M70.3,195.7V228h87.9c0.5-1.6,1.2-3.2,1.9-4.9c0-0.1,0.1-0.2,0.2-0.4c-5.2,1.6-11.4,0.1-16.5-0.9
	c-6.3-1.2-12.5-2.7-18.8-4.1c-1.4,0.2-2.7,0.4-4.1,0.6c-5.1,0.6-11.3,2.4-15.4-1.9c-3.1-3.3-4.8-9.2-1.4-12.9
	c3.9-4.3,8.7-1.4,12.5,1.2c2.2,1.5,4.9,2.4,7.8,3c1.2-0.2,2.4-0.4,3.6-0.6c12.4-2.4,27.4-8.3,38.6,0.4c7.8,6.1,4.8,13.1,2.2,20.4
	h31.5v-32.3H70.3z"/>
<path id="path57" class="st0" d="M584.8,114.1L584.8,114.1c0-8.8,7.2-16,16-16l0,0c4.2,0,8.3,1.7,11.3,4.7c3,3,4.7,7.1,4.7,11.3l0,0
	c0,8.8-7.2,16-16,16l0,0C592,130.1,584.8,123,584.8,114.1z"/>
<path id="path59" class="st1" d="M584.8,114.1L584.8,114.1c0-8.8,7.2-16,16-16l0,0c4.2,0,8.3,1.7,11.3,4.7c3,3,4.7,7.1,4.7,11.3l0,0
	c0,8.8-7.2,16-16,16l0,0C592,130.1,584.8,123,584.8,114.1z"/>
<path class="st2" d="M582.1,42.4c0.7,0.3,1.4,0.7,1.9,1.2c2.2-0.8,4.3-1.6,6.5-2.5c0-0.1,0.1-0.2,0.1-0.3c-1.1,0.2-2.2,0.4-3.3,0.6
	C585.6,41.7,583.8,42,582.1,42.4z"/>
<path class="st2" d="M534.2,0v67.9h133.2V0H534.2z M645.5,54.7c-1.7,0.2-3.3,0.3-5,0.4c0.6,2.5-0.6,5.4-3.4,6.1
	c-12.7,2.7-25.6,2-38.4,1.9c-1.2,0-2.1-0.3-2.8-0.8c-4.3,0.1-8.6,0.5-12.9,0.8c-5.2,0.4-11.9,1.8-16.7-1.1
	c-4.6-2.7-5.9-8.9-5.2-13.8c0.8-5.7,4.7-9.9,9.7-12.5c7.8-4.1,17.3-4.5,25.8-6.3c0,0,0.1,0,0.1,0c-2.9-0.8-5.8-1.3-8.5-1.9
	c-7.5-1.6-15-2.9-21.9-6.3c-4.2-2-2.5-7.8,1.2-9.1c9.9-3.5,20.9-4.4,31.4-4.2c10.5,0.2,21.5,1.3,31.4,5.1c4.1,1.6,4.8,6.5,1.2,9.1
	c-1.4,1-2.9,1.8-4.5,2.5c-1.9,4.5-6.3,7.4-10.8,9.4c-0.2,0.5-0.5,0.9-0.8,1.3c2,0.2,3.4,1.3,4.2,2.7c7.3-2,15.2-2.8,20.8,1.5
	c1.3,1,2.4,2.6,2.5,4.3c1.4,0.4,2.8,0.7,4.2,1C652.9,45.8,650.6,54.2,645.5,54.7z"/>
<path id="path67" class="st2" d="M106,114l478.9,0.2"/>
<path id="path69" class="st10" d="M106,114l448.9,0.1"/>
<path id="path71" class="st11" d="M554.8,122.9l24.2-8.8l-24.1-8.8L554.8,122.9z"/>
<g id="p7.1" transform="translate(-135.1724,-44)">
	<path class="st2" d="M318.4,158.9l-4.8,161.9l168,3.6C483.6,235.3,410.7,161.4,318.4,158.9z M451.9,269.7c-5.9,1.6-12.3-3.5-17-6.3
		c-1.6-1-3.2-2.1-4.9-3.1c0.5,2.3-1.3,5.2-3.6,5.7c-10,1.9-20.3,0.8-30.3-1.2c-2.7,0.6-5.3,0.7-7.8,0c-1.8,2.3-3.2,4.2-6.6,5.1
		c-3.4,0.9-6.9,0.6-9.8-1.5c-6-4.4-5.2-12.9,0-17.5c2.6-2.3,6.1-3.6,9.5-2c1.1,0.5,2,1.4,2.9,2.2c6.6-2.8,14.9-4.9,21.7-2.4
		c1.4-0.3,2.8-0.5,4.3-0.5c3.4-1,6.5-0.9,9.3,0c4.7-1.8,9-0.2,13.1,2.2c2,0.3,4,0.5,5.9,0.6c6.7,0.4,14.6-5.3,19.1,2.8
		C460.5,258.9,457.9,268.1,451.9,269.7z"/>
	<path class="st2" d="M318.4,158.9l88.5,89.8c1.1-0.2,2.3-0.3,3.4-0.4c3.4-1,6.5-0.9,9.3,0c4.7-1.8,9-0.2,13.1,2.2
		c2,0.3,4,0.5,5.9,0.6c6.7,0.4,14.6-5.3,19.1,2.8c2.8,5.1,0.2,14.4-5.7,15.9c-5.9,1.6-12.3-3.5-17-6.3c-1.6-1-3.2-2.1-4.9-3.1
		c0.5,2.3-1.3,5.2-3.6,5.7c-0.7,0.1-1.4,0.2-2.1,0.3l57.2,58C483.6,235.3,410.7,161.4,318.4,158.9z"/>
	<path id="path96" class="st12" d="M480.5,301.9l0-0.1c-0.1-0.7-0.2-1.3-0.3-2c-0.4-2.7-0.8-5.3-1.3-8c-2-10.5-5-20.7-9-30.5
		c-8-19.5-19.8-37.1-34.5-52.1c-29.5-29.9-70.8-49-117-50.3"/>
	<path id="path98" class="st13" d="M473.9,302.2l7.5,17.8l5.7-18.4L473.9,302.2z"/>
</g>
<path class="st2" d="M222.5,194.8v32.3h114.4v-32.3H222.5z M316.8,225.7c-5.9,1.6-12.3-3.5-17-6.3c-1.6-1-3.2-2.1-4.9-3.1
	c0.5,2.3-1.3,5.2-3.6,5.7c-10,1.9-20.3,0.8-30.3-1.2c-2.7,0.6-5.3,0.7-7.8,0c-1.8,2.3-3.2,4.2-6.6,5.1c-3.4,0.9-6.9,0.6-9.8-1.5
	c-6-4.4-5.2-12.9,0-17.5c2.6-2.3,6.1-3.6,9.5-2c1.1,0.5,2,1.4,2.9,2.2c6.6-2.8,14.9-4.9,21.7-2.4c1.4-0.3,2.8-0.5,4.3-0.5
	c3.4-1,6.5-0.9,9.3,0c4.7-1.8,9-0.2,13.1,2.2c2,0.3,4,0.5,5.9,0.6c6.7,0.4,14.6-5.3,19.1,2.8C325.3,214.9,322.7,224.1,316.8,225.7z"
	/>
<g id="p7.2" transform="translate(-135.1724,-44)">
	<path class="st2" d="M480.3,80.5c-94,0.5-182.9,24.8-243.1,66.5l213,102.4c2.6-0.1,4.9,0.6,6.8,3.2l26.1,12.5l242.3-120.6
		C664,103.5,574.4,80.1,480.3,80.5z M522.7,188.8c-29.2,0-58.6,1.3-87.5-3.7c-4.6-0.8-4.3-6.9-1.2-9.1c2.8-1.9,6.2-3.3,9.8-4.2
		c0.3-0.4,0.8-0.8,1.3-1.1c8.6-5.2,20.1-3.5,29.5-2.3c0.4,0,0.7,0.1,1.1,0.1c0.8-1.1,2-1.9,3.7-2.1c12.3-1.5,24.1,2.5,36.2,3.5
		c4.3,0.4,6.5,6.4,3.6,8.8c1.2,0,2.3,0,3.5,0C529.2,178.8,529.2,188.8,522.7,188.8z"/>
	<path class="st2" d="M462.7,176.9c-0.2,0.5-0.4,0.9-0.7,1.3c5.6,0.4,11.2,0.6,16.8,0.7c-0.2,0-0.4-0.1-0.6-0.1
		C473.8,178.3,468.2,177.1,462.7,176.9z"/>
	<path id="path126" class="st2" d="M237.2,147L237.2,147c60.2-41.7,149.1-66,243.1-66.5s183.7,23,245.1,64"/>
	<path id="path128" class="st12" d="M256.2,134.9l0.2-0.1c0.5-0.3,1-0.6,1.5-0.9c1-0.6,2.1-1.2,3.1-1.8c8.4-4.7,17.2-9,26.3-13.1
		c18.3-8.1,38-15.1,58.7-20.8c41.5-11.3,87.2-17.5,134.3-17.8S573.3,86,615.1,97c20.9,5.5,40.8,12.2,59.3,20.2
		c9.3,4,18.2,8.3,26.7,12.8c1.1,0.6,2.1,1.1,3.2,1.7c0.5,0.3,1.1,0.6,1.6,0.9l0.4,0.2"/>
	<path id="path130" class="st13" d="M252.7,129.4l-11.8,15.3l18.8-4.1L252.7,129.4z"/>
	<path id="path132" class="st13" d="M702.8,138.4l18.9,3.8l-12-15.1L702.8,138.4z"/>
</g>
<g id="p7.3" transform="translate(-135.1724,-44)">
	<path class="st2" d="M372.1,251c2.6-2.3,6.1-3.6,9.5-2c1.1,0.5,2,1.4,2.9,2.2c3.8-1.6,8.1-3,12.4-3.4l0.3-8.6l-174.4-66.1
		c-21.2,56.6-14,120,19.6,170.3c33.5,50.3,89.1,81.2,149.3,83l4.8-161.6c0,0-0.1,0-0.1,0c-2.7,0.6-5.3,0.7-7.8,0
		c-1.8,2.3-3.2,4.2-6.6,5.1c-3.4,0.9-6.9,0.6-9.8-1.5C366,264.1,366.9,255.6,372.1,251z M302.1,278.2c-1.2,6.3-10.8,3.6-9.6-2.7
		c0.6-3,1.7-5.6,2.8-8.4c0-0.1,0.1-0.2,0.2-0.4c-5.2,1.6-11.4,0.1-16.5-0.9c-6.3-1.2-12.5-2.7-18.8-4.1c-1.4,0.2-2.7,0.4-4.1,0.6
		c-5.1,0.6-11.3,2.4-15.4-1.9c-3.1-3.3-4.8-9.2-1.4-12.9c3.9-4.3,8.7-1.4,12.5,1.2c2.2,1.5,4.9,2.4,7.8,3c1.2-0.2,2.4-0.4,3.6-0.6
		c12.4-2.4,27.4-8.3,38.6,0.4C311.8,259.4,303.9,268.7,302.1,278.2z"/>
	<path class="st2" d="M294.1,280.4c-0.7-0.6-1.2-1.4-1.5-2.3l-7.4-11.1c-2.2-0.3-4.3-0.8-6.3-1.2c-6.3-1.2-12.5-2.7-18.8-4.1
		c-1.4,0.2-2.7,0.4-4.1,0.6c-5.1,0.6-11.3,2.4-15.4-1.9c-3.1-3.3-4.8-9.2-1.4-12.9c3.9-4.3,8.7-1.4,12.5,1.2c2.2,1.5,4.9,2.4,7.8,3
		c1.2-0.2,2.4-0.4,3.6-0.6c3.2-0.6,6.6-1.5,10.1-2.2l-50.5-75.8c-21.2,56.6-14,120,19.6,170.3c33.5,50.3,89.1,81.2,149.3,83
		L294.1,280.4z"/>
	<path id="path162" class="st14" d="M216,194.7L216,194.7c-1.8,7.3-3.1,14.6-4,21.9c-1.8,14.7-1.8,29.5-0.1,44.1
		c3.4,29.2,13.6,57.6,30.3,82.8c33.5,50.3,89.1,81.2,149.3,83"/>
	<path id="path164" class="st15" d="M222.3,196.6l-1-19.3l-11.6,15.4L222.3,196.6z"/>
</g>
<path class="st2" d="M0,273.8v32.3h57.5c-0.7-0.1-1.4-0.2-2.1-0.3c-4.2-0.6-4.9-7.5-1.2-9.1c0.5-0.2,1-0.4,1.5-0.6
	c-0.3-0.1-0.4-0.2,0,0c0,0,0,0,0,0c-0.6-0.3-1.2-0.6-1.7-1c-2.6,0.4-5.2,0.8-7.7,1.2c-12.7,2.1-25.2,7.3-38.2,7.1
	c-2.1,0-4.4-1.5-4.8-3.7c-1.2-5.4-1.7-12.8,4.8-15.1c2.4-0.8,4.8-0.5,7.2,0.3c1-2.1,3.8-3.4,6.1-2.9c7.6,1.6,15.2-0.3,22.7-1.3
	c7-0.9,14.2-0.8,21.3-1.1c4.9-0.2,10.4-0.1,15.3,1.3c0.5-0.3,1.1-0.5,1.6-0.7c3.7-1.4,6.1,1.7,6,4.8c1.3,1.2,2.5,2.6,3.4,4.4
	c2.4,4.4,1.8,8.3-0.5,11.3c-0.5,2.4-3,4.5-5.5,4.3c-0.9,0.4-1.9,0.8-3,1.1h19.8v-32.3H0z"/>
<text transform="matrix(1 0 0 1 41.8154 67.8563)" class="st16 st17">DID控制者</text>
<text transform="matrix(1 0 0 1 578.983 67.8567)" class="st16 st17">DID对象</text>
<text transform="matrix(1 0 0 1 330.3981 134.9418)" class="st18 st16 st19">标记</text>
<text transform="matrix(1 0 0 1 264.8331 209.3058)" class="st20 st16 st19">解析为</text>
<text transform="matrix(1 0 0 1 46.0736 300.3492)" class="st21 st16 st19">控制者</text>
<text transform="matrix(1 0 0 1 127.9637 213.6807)" class="st21 st16 st19">控制</text>
<text transform="matrix(1 0 0 1 464.4709 210.7277)" class="st22 st16 st19">描述</text>
<text transform="matrix(1 0 0 1 312.8191 306.1592)" class="st16 st17">DID 文档</text>
<text transform="matrix(1 0 0 1 323.6494 28.6936)" class="st18 st16 st19">等同于</text>
</svg>
