<?xml version="1.0" encoding="utf-8"?>
<!-- Generator: $$$/GeneralStr/196=Adobe Illustrator 27.6.0, SVG Export Plug-In . SVG Version: 6.00 Build 0)  -->
<svg version="1.1"
	 id="svg139" xmlns:sodipodi="http://sodipodi.sourceforge.net/DTD/sodipodi-0.dtd" xmlns:inkscape="http://www.inkscape.org/namespaces/inkscape" xmlns:cc="http://creativecommons.org/ns#" xmlns:rdf="http://www.w3.org/1999/02/22-rdf-syntax-ns#" xmlns:svg="http://www.w3.org/2000/svg" xmlns:dc="http://purl.org/dc/elements/1.1/" sodipodi:docname="figure-a.1-did-and-did-document-graph.svg"
	 xmlns="http://www.w3.org/2000/svg" xmlns:xlink="http://www.w3.org/1999/xlink" x="0px" y="0px" viewBox="0 0 667.4 494.9"
	 style="enable-background:new 0 0 667.4 494.9;" xml:space="preserve">
<style type="text/css">
	.st0{clip-path:url(#SVGID_00000152980651514073492200000009610469395518113715_);}
	.st1{fill-rule:evenodd;clip-rule:evenodd;}
	.st2{fill:none;stroke:#4A7DBA;stroke-linejoin:round;stroke-miterlimit:10;}
	.st3{fill-rule:evenodd;clip-rule:evenodd;fill-opacity:0;}
	.st4{fill:none;stroke:#15A50A;stroke-width:4;stroke-linejoin:round;stroke-miterlimit:10;}
	.st5{fill-rule:evenodd;clip-rule:evenodd;fill:#15A50A;stroke:#15A50A;stroke-width:4;stroke-miterlimit:10;}
	.st6{fill:#FF0000;}
	.st7{fill-rule:evenodd;clip-rule:evenodd;fill-opacity:0.2;}
	.st8{fill:none;stroke:#000000;stroke-width:2;stroke-linejoin:round;stroke-miterlimit:10;}
	.st9{fill:none;stroke:#2B40CD;stroke-width:4;stroke-linejoin:round;stroke-miterlimit:10;}
	.st10{fill-rule:evenodd;clip-rule:evenodd;fill:#2B40CD;stroke:#2B40CD;stroke-width:4;stroke-miterlimit:10;}
	.st11{fill:none;stroke:#FF0000;stroke-width:4;stroke-linejoin:round;stroke-miterlimit:10;}
	.st12{fill-rule:evenodd;clip-rule:evenodd;fill:#FF0000;stroke:#FF0000;stroke-width:4;stroke-miterlimit:10;}
	.st13{fill:none;stroke:#FF0000;stroke-width:3;stroke-linejoin:round;stroke-miterlimit:10;stroke-dasharray:12,9;}
	.st14{fill-rule:evenodd;clip-rule:evenodd;fill:#FF0000;stroke:#FF0000;stroke-width:3;stroke-miterlimit:10;}
	.st15{fill:none;stroke:#15A50A;stroke-width:3;stroke-linejoin:round;stroke-miterlimit:10;}
	.st16{fill-rule:evenodd;clip-rule:evenodd;fill:#15A50A;stroke:#15A50A;stroke-width:3;stroke-miterlimit:10;}
	.st17{font-family:'SimHei';}
	.st18{font-size:18px;}
	.st19{fill:#D23719;}
	.st20{font-size:14px;}
	.st21{fill:#62B62F;}
	.st22{fill:#E63B10;}
	.st23{fill:#1E4098;}
</style>
<sodipodi:namedview  bordercolor="#666666" borderopacity="1" fit-margin-bottom="0" fit-margin-left="0" fit-margin-right="0" fit-margin-top="0" gridtolerance="10" guidetolerance="10" id="namedview141" inkscape:current-layer="g137" inkscape:cx="163.16556" inkscape:cy="329.76879" inkscape:pageopacity="0" inkscape:pageshadow="2" inkscape:window-height="1016" inkscape:window-maximized="1" inkscape:window-width="1920" inkscape:window-x="0" inkscape:window-y="27" inkscape:zoom="0.91702911" objecttolerance="10" pagecolor="#ffffff" showgrid="false">
	</sodipodi:namedview>
<g>
	<defs>
		<rect id="SVGID_1_" x="-135.2" y="-67.4" width="960" height="600"/>
	</defs>
	<clipPath id="SVGID_00000128456245828413369490000010695540419498290072_">
		<use xlink:href="#SVGID_1_"  style="overflow:visible;"/>
	</clipPath>
	
		<g id="g137" transform="translate(-135.1724,-67.36441)" style="clip-path:url(#SVGID_00000128456245828413369490000010695540419498290072_);">
		<path id="path7" class="st1" d="M209.1,158L209.1,158c0-8.8,7.2-16,16-16l0,0c4.2,0,8.3,1.7,11.3,4.7c3,3,4.7,7.1,4.7,11.3l0,0
			c0,8.8-7.2,16-16,16l0,0C216.3,174,209.1,166.8,209.1,158z"/>
		<path id="path9" class="st2" d="M209.1,158L209.1,158c0-8.8,7.2-16,16-16l0,0c4.2,0,8.3,1.7,11.3,4.7c3,3,4.7,7.1,4.7,11.3l0,0
			c0,8.8-7.2,16-16,16l0,0C216.3,174,209.1,166.8,209.1,158z"/>
		<path id="path11" class="st3" d="M236.5,169.3l155.8,157.5"/>
		<path id="path13" class="st4" d="M236.5,169.3l134.7,136.2"/>
		<path id="path15" class="st5" d="M364.9,311.7l23.2,11l-10.7-23.4L364.9,311.7z"/>
		<path class="st3" d="M250.5,99.7c0.3-0.1,0.6-0.2,0.9-0.3c-1.4-0.5-2.8-1.1-3.8-1.4c-0.9-0.3-1.9-0.5-2.8-0.8
			c-2.7,0.6-5.5,1-8.3,1.2c0.9,1.1,1.3,2.5,1.1,3.9C242,101.8,246.3,100.9,250.5,99.7z"/>
		<path class="st3" d="M177.8,105.4c5.1,0.6,10,1.8,15,2.8c4.4,0.8,9,1.3,13.5,1.7c0.2-0.8,0.7-1.6,1.5-2.1c-2.5-0.3-5-0.6-7.5-1
			c-4.2-0.6-4.4-5.1-2.2-7.8c-0.6-1.1-0.8-2.6-0.4-3.7c1.1-3,2.8-5.3,4.9-6.9c-3.9-2.1-7-5.1-8.2-9.8c-0.6-2.5,0.8-5.6,3.5-6.2
			c7.8-1.6,16.5,0.1,24.5,0.7c6,0.5,12.8,1.1,17.2,5.4c2.4-0.5,4.9-0.8,7.3-1c4.9-0.3,6.2,5.9,3.3,8.7c0.3,0.2,0.7,0.3,1,0.5
			c1.1,0.6,1.8,1.5,2.1,2.4c1.8,0.6,3.7,1.1,5.5,1.8c9.3,3.2,9.7,12,1.1,16c-0.1,0-0.1,0-0.2,0.1c5.9-0.1,11.8,0.2,17.4,2.2
			c3.3,1.2,4.3,4.5,2.9,7.2c3.9,0.3,7.8,0.7,11.7,1.2v-50H158.5v41.7C163.9,105.6,170.5,104.5,177.8,105.4z"/>
		<path class="st3" d="M261.6,125.4c-6.4-0.3-12.8-0.8-19.1-1.4c-5.1,0.6-10.2,1.2-15.3,1.8c-6.9,0.8-13.9,0.4-20.8-0.1
			c-0.4,0.7-1,1.4-2,1.8c-9.1,3.9-18.8,2.2-28.2,0.5c-4.8-0.9-9.4-1.7-14.3-2c-1.2-0.1-2.3-0.2-3.4-0.4v9.8h133.2v-7.8
			C281.8,126.2,271.7,125.9,261.6,125.4z"/>
		<path class="st3" d="M166.5,116.3c0,0,0.1,0,0.1,0c1.6,0.2,3.2,0.4,4.7,0.7c0.5-0.5,1.2-1,2.1-1.3c0.6-0.2,1.3-0.4,1.9-0.5
			C172.2,114.9,169.2,115.1,166.5,116.3z"/>
		<path id="path23" class="st3" d="M414.5,109.7h132.1v48.5H414.5V109.7z"/>
		<path id="path25" class="st6" d="M475.1,134c0,1.9-0.2,3.4-0.7,4.8c-0.5,1.3-1.2,2.4-2.1,3.2s-2,1.4-3.3,1.8
			c-1.3,0.4-2.8,0.6-4.6,0.6h-4.8c-0.3,0-0.6-0.1-0.9-0.3c-0.2-0.2-0.3-0.5-0.3-1v-17.6c0-0.5,0.1-0.8,0.3-1
			c0.2-0.2,0.5-0.3,0.9-0.3h5.2c1.8,0,3.3,0.2,4.6,0.6c1.3,0.4,2.3,1,3.2,1.9c0.9,0.8,1.5,1.8,2,3.1S475.1,132.4,475.1,134z
			 M470.9,134.1c0-1-0.1-1.8-0.3-2.7c-0.2-0.8-0.6-1.5-1.1-2.1c-0.5-0.6-1.1-1.1-1.9-1.4c-0.8-0.3-1.8-0.5-3-0.5h-2.1v13.7h2.1
			c1.1,0,2.1-0.1,2.8-0.4s1.4-0.7,1.9-1.3c0.5-0.6,0.9-1.3,1.2-2.2C470.8,136.3,470.9,135.3,470.9,134.1z M482.6,143.8
			c0,0.1,0,0.2-0.1,0.3c-0.1,0.1-0.2,0.2-0.3,0.2c-0.2,0.1-0.4,0.1-0.6,0.1s-0.6,0-1,0c-0.4,0-0.7,0-1,0c-0.3,0-0.5-0.1-0.6-0.1
			s-0.3-0.1-0.3-0.2c-0.1-0.1-0.1-0.2-0.1-0.3v-19.1c0-0.1,0-0.2,0.1-0.3c0.1-0.1,0.2-0.2,0.3-0.2c0.2-0.1,0.4-0.1,0.6-0.1
			s0.6,0,1,0c0.4,0,0.7,0,1,0s0.5,0.1,0.6,0.1c0.2,0.1,0.3,0.1,0.3,0.2c0.1,0.1,0.1,0.2,0.1,0.3V143.8z M503.8,134
			c0,1.9-0.2,3.4-0.7,4.8c-0.5,1.3-1.2,2.4-2.1,3.2s-2,1.4-3.3,1.8c-1.3,0.4-2.8,0.6-4.6,0.6h-4.8c-0.3,0-0.6-0.1-0.9-0.3
			c-0.2-0.2-0.3-0.5-0.3-1v-17.6c0-0.5,0.1-0.8,0.3-1c0.2-0.2,0.5-0.3,0.9-0.3h5.2c1.8,0,3.3,0.2,4.6,0.6c1.3,0.4,2.3,1,3.2,1.9
			c0.9,0.8,1.5,1.8,2,3.1S503.8,132.4,503.8,134z M499.6,134.1c0-1-0.1-1.8-0.3-2.7c-0.2-0.8-0.6-1.5-1.1-2.1
			c-0.5-0.6-1.1-1.1-1.9-1.4c-0.8-0.3-1.8-0.5-3-0.5h-2.1v13.7h2.1c1.1,0,2.1-0.1,2.8-0.4s1.4-0.7,1.9-1.3c0.5-0.6,0.9-1.3,1.2-2.2
			C499.5,136.3,499.6,135.3,499.6,134.1z"/>
		<path class="st3" d="M414.5,158.7V191h132.1v-32.3H414.5z M518.3,181.9c-1.9,3-5.5,5-8.8,2.9c-1.8-1.2-2.4-3.1-2.8-4.9
			c-0.1,0-0.2-0.1-0.3-0.1c1.7,3.6-0.9,8.9-5.5,7c-10-4-20.7-4.3-31.4-4.6c-8.6-0.3-19.1,1.4-27.2-1.9c-4.8-1.9-4.7-7.7,0-9.6
			c2.9-1.2,5.8-1.8,8.8-2.1c0.5-0.6,1.2-1.1,2.1-1.4c3.6-1.4,7.9-1.1,11,1.2c0.5,0,0.9,0,1.4,0c2.3-0.5,4.7-1,7.1-1.5
			c5.6-1,11.1-1.2,16.7-0.5c4.4,0.5,8.8,1.5,13.3,1.8c2.8,0.2,5.6,0.2,8.4,0.7C517.5,170.2,522.3,175.5,518.3,181.9z"/>
		<path class="st3" d="M392.4,325.4v226.8h146.1l29.2-29.2V325.4H392.4z M556.7,347.5c-1.2,4.7-5.8,6.4-10.2,6.8
			c-3.6,0.3-7.3-0.2-10.9-0.8c1.9,3.2-1.4,6.9-4.6,7.1c-10.1,0.5-20.2-1.2-30.2-2.8c-10.2-1.6-20.4-2.3-30.6-2.6
			c-10.6-0.3-21,0.1-31.5,1.1c-7.5,0.7-15.4,1.9-22.9,0.5c1.2,4.9-6.2,8.7-9.2,3.6c-3-5.2-7.9-10.1-8-16.5
			c-0.2-6.8,5.1-10.1,11.4-10c7.8,0.1,15.8,1.9,23.5,2.7c3.9,0.4,7.7,0.7,11.6,0.9c0.6-1.7,2.1-3,4.5-2.9c15,0.6,30,2.5,44.8,4.8
			c8.5,0.1,16.9-0.2,25.1-1.4c9.6-1.4,21.8-4.6,31.2-1.2C555.1,338.4,557.9,342.7,556.7,347.5z"/>
		<path id="path33" class="st3" d="M538.5,552.2l5.8-23.4l23.4-5.8L538.5,552.2z"/>
		<path class="st3" d="M392.4,325.4v226.8h146.1l5.8-23.4l23.4-5.8V325.4H392.4z M556.7,347.5c-1.2,4.7-5.8,6.4-10.2,6.8
			c-3.6,0.3-7.3-0.2-10.9-0.8c1.9,3.2-1.4,6.9-4.6,7.1c-10.1,0.5-20.2-1.2-30.2-2.8c-10.2-1.6-20.4-2.3-30.6-2.6
			c-10.6-0.3-21,0.1-31.5,1.1c-7.5,0.7-15.4,1.9-22.9,0.5c1.2,4.9-6.2,8.7-9.2,3.6c-3-5.2-7.9-10.1-8-16.5
			c-0.2-6.8,5.1-10.1,11.4-10c7.8,0.1,15.8,1.9,23.5,2.7c3.9,0.4,7.7,0.7,11.6,0.9c0.6-1.7,2.1-3,4.5-2.9c15,0.6,30,2.5,44.8,4.8
			c8.5,0.1,16.9-0.2,25.1-1.4c9.6-1.4,21.8-4.6,31.2-1.2C555.1,338.4,557.9,342.7,556.7,347.5z"/>
		<path id="path37" class="st7" d="M538.5,552.2l5.8-23.4l23.4-5.8L538.5,552.2z"/>
		<path id="path39" class="st8" d="M538.5,552.2l5.8-23.4l23.4-5.8L538.5,552.2H392.4V325.4h175.3V523"/>
		<path class="st3" d="M545.6,266.1c0.2-0.4,0.4-0.7,0.6-1.1c-5.6,0.2-7.5-7.6-1.7-9.7c0.1-0.1,0.3-0.1,0.4-0.2
			c-1.1-3.1,0.4-6.9,4.4-6.5c2.5,0.3,5,0.7,7.4,1.5c0.9-0.5,1.9-0.6,2.8-0.5c0.5-0.1,0.9-0.3,1.4-0.4c6.9-3.5,14.5-7.5,21.1-5
			c1.8-1.4,3.6-2.8,5.5-4.1h-61.6v32.3h21C545.3,270.9,544.5,268.3,545.6,266.1z"/>
		<path class="st3" d="M593,240.1c0.6,0.4,1.2,1,1.6,1.6c1.5,2.3,1.9,4.8,1.6,7.5c1.5-0.4,3-0.6,4.4-0.6c1,0,1.8,0.3,2.6,0.8
			c0.3-0.1,0.5-0.3,0.8-0.4c1.6-0.7,3.9-0.8,5.4,0.2c2.9-1.5,6.2-2.8,9.1-2c4.5,1.1,5,4.6,4.1,8.1c0.8,2,0.4,4.6-1.9,6.2
			c-3.3,2.4-6.7,4.4-10.3,6.2c-3.4,1.7-6.6-0.7-7.4-3.5c-0.3,0.7-0.7,1.3-1.1,2c-3.1,5.1-10,1.5-9.1-3.9c0-0.2,0.1-0.5,0.2-0.7
			c-0.5,0.3-1,0.6-1.4,0.9c-0.8,0.5-1.7,1-2.8,1.7c-2.2,2.8-4.4,5.2-6.2,6.9c-3.3,3.2-10.4,0-8.4-4.9c0.4-1.1,1-2.2,1.7-3.2
			c-0.7,0.8-1.4,1.5-2.4,2.1c-0.9,0.6-1.9,0.9-2.9,1.3c-1.2,0.9-2.5,1.8-3.9,2.5c-2.6,1.4-5.2,0.3-6.5-1.6c-2.2,1.8-4.7,3.5-7.1,5.1
			h93.5v-32.3H593z"/>
		<path id="path47" class="st3" d="M568.9,325.4l155.8-156"/>
		<path id="path49" class="st9" d="M568.9,325.4l134.6-134.7"/>
		<path id="path51" class="st10" d="M709.7,196.9l10.9-23.3l-23.3,10.9L709.7,196.9z"/>
		<path class="st3" d="M238.1,239.7V272H320v-32.3H238.1z M313.3,260.5c-0.5,8.9-12.6,7.6-18.4,7.1c-10.7-1-21.4-0.3-32.1-2.1
			c-2.7-0.5-3.7-2.6-3.5-4.7c-2.6,1.6-5.4,2.9-7.9,4.5c-4.8,3-9.2-3.2-6.6-7.1c-1.8-1-3.5-2.4-4.9-4.4c-1.3-1.8-0.6-4.6,0.8-6.1
			c5.3-5.6,17.3-4.7,24-2.5c1.8,0.6,3,1.9,3.4,3.4c2.3,0.1,4.6,0.5,6.9,1.5c0.3,0.1,0.5,0.3,0.8,0.5c7.1-2.5,14.5-4.8,22.1-3.5
			C303.3,248.1,313.7,253.5,313.3,260.5z"/>
		<path id="path57" class="st1" d="M720,158.1L720,158.1c0-8.8,7.2-16,16-16l0,0c4.2,0,8.3,1.7,11.3,4.7c3,3,4.7,7.1,4.7,11.3l0,0
			c0,8.8-7.2,16-16,16l0,0C727.2,174.1,720,167,720,158.1z"/>
		<path id="path59" class="st2" d="M720,158.1L720,158.1c0-8.8,7.2-16,16-16l0,0c4.2,0,8.3,1.7,11.3,4.7c3,3,4.7,7.1,4.7,11.3l0,0
			c0,8.8-7.2,16-16,16l0,0C727.2,174.1,720,167,720,158.1z"/>
		<path class="st3" d="M700.8,99.5c0.4,1,0.8,2.2,1,2.6c0.9,1.8,2,3.3,3.2,4.9c1.2-2.4,2.4-4.8,3.6-7.2c-0.8-0.1-1.7-0.2-2.5-0.3
			C704.6,99.4,702.6,99.6,700.8,99.5z"/>
		<path class="st3" d="M720.9,101.4c-0.6-0.1-1.2-0.1-1.7-0.2c-0.5,0.8-0.9,1.7-1.4,2.6c-1.1,2.3-2.4,4.6-3.6,7
			c1.4-0.2,2.8-0.3,4.2-0.5c-0.6-1.1-0.8-2.4-0.3-3.5C718.8,104.8,719.7,103,720.9,101.4z"/>
		<path class="st3" d="M669.4,67.4v67.9h133.2V67.4H669.4z M787.5,127.8c-4,3-9.8,3.6-14.6,4.1c-5.3,0.5-11.2,0.6-16.3-1.2
			c-2.2-0.8-4.2-2-5.6-3.6c-0.6,0-1.2,0.1-1.8,0.1c-0.5,1.8-2,3.1-4.5,2.8c-10.2-1.1-20.4-1.8-30.6-3.3c-2-0.1-4-0.2-6-0.2
			c-0.3,1.3-0.4,2.5-0.5,3.8c-0.4,6.4-10.4,6.4-10,0c0.1-2.3,0.5-4.6,1-6.8c-0.9-0.2-1.8-0.5-2.7-0.8c-4.3-1.3-5.2-8.9,0-9.6
			c0.4-0.1,0.7-0.1,1.1-0.1c0,0-0.1-0.1-0.1-0.1c-1.9-2.4-3.5-5.1-4.8-7.9c-2.4-5.1-3.9-12.7,2.8-15c4.8-1.7,11-0.4,16,0.2
			c0,0,0.1,0,0.1,0c-0.7-0.3-1.4-0.6-2.1-0.9c-3.8-1.8-2.9-8.3,1.2-9.1c2-0.4,4.1-0.7,6.1-0.9c0.2-1.4,0.9-2.7,2.4-3.4
			c6-2.8,12.3-2.7,17.5,1.7c0.2,0.1,0.3,0.3,0.5,0.5c2.6-0.3,5.2-0.7,7.7-1.1c7-1.1,13.9-2.2,20.9-0.7c4.1,0.9,5,7.3,1.2,9.1
			c-3.2,1.6-6.4,2.5-9.8,3.1c5.6,3.7,2.3,9.5-1.9,13.6c2,0.4,3.9,1.1,5.8,2.3c1.1,0.7,1.9,1.7,2.2,2.9c1.8-0.9,4-0.5,5.5,0.7
			c1.4-1.7,3-3.3,4.2-4.9c4-5,11.1,2.1,7.1,7.1c-0.1,0.1-0.2,0.3-0.4,0.4c0.3,0,0.6-0.1,1-0.1c3.2-0.4,4.7,2.2,4.7,4.9
			c2.4,1.7,4.3,4,5.1,6.7C790.4,124.4,789.3,126.5,787.5,127.8z"/>
		<path id="path67" class="st3" d="M241.1,158l478.9,0.2"/>
		<path id="path69" class="st11" d="M241.1,158l448.9,0.1"/>
		<path id="path71" class="st12" d="M690,166.9l24.2-8.8l-24.1-8.8L690,166.9z"/>
		<g id="p3.1">
			<path class="st3" d="M318.4,158.9l-4.8,161.9l168,3.6C483.6,235.3,410.7,161.4,318.4,158.9z M454.7,268.8
				c-4.3,1.5-9.9-0.9-14.3-1.5c-15.5-2.2-31.4-4.9-46.8-1.4c-5.2,1.2-11.4,2.2-16-1.1c-2,0.3-4.2-0.4-5.1-2.3
				c-1.7-3.8-3.2-7.7-4-11.8c-0.8-3.8,3.5-8.5,7.3-5.6c1.1,0.8,2.1,1.7,3,2.7c0.6-0.2,1.2-0.4,1.9-0.4c4.9-0.1,9.7,0.9,14.6,1.2
				c4.2,0.3,10.3,1.1,13.4-2.4c3.6-4,9.1,0.3,8.3,4.6c5.3-0.2,10.7-0.4,16-0.9c8-0.6,21.5-2.4,26.2,6.2
				C461.7,260.5,459.9,267,454.7,268.8z"/>
			<path class="st3" d="M318.4,158.9l87.6,88.9c1-0.4,1.9-1,2.6-1.8c3.6-4,9.1,0.3,8.3,4.6c5.3-0.2,10.7-0.4,16-0.9
				c8-0.6,21.5-2.4,26.2,6.2c2.5,4.6,0.7,11.1-4.5,12.9c-4.3,1.5-9.9-0.9-14.3-1.5c-5.8-0.8-11.6-1.7-17.4-2.3l58.6,59.4
				C483.6,235.3,410.7,161.4,318.4,158.9z"/>
			<path id="path96" class="st13" d="M480.5,301.9l0-0.1c-0.1-0.7-0.2-1.3-0.3-2c-0.4-2.7-0.8-5.3-1.3-8c-2-10.5-5-20.7-9-30.5
				c-8-19.5-19.8-37.1-34.5-52.1c-29.5-29.9-70.8-49-117-50.3"/>
			<path id="path98" class="st14" d="M473.9,302.2l7.5,17.8l5.7-18.4L473.9,302.2z"/>
		</g>
		<path class="st3" d="M357.7,238.8v32.3h114.4v-32.3H357.7z M454.7,268.8c-4.3,1.5-9.9-0.9-14.3-1.5c-15.5-2.2-31.4-4.9-46.8-1.4
			c-5.2,1.2-11.4,2.2-16-1.1c-2,0.3-4.2-0.4-5.1-2.3c-1.7-3.8-3.2-7.7-4-11.8c-0.8-3.8,3.5-8.5,7.3-5.6c1.1,0.8,2.1,1.7,3,2.7
			c0.6-0.2,1.2-0.4,1.9-0.4c4.9-0.1,9.7,0.9,14.6,1.2c4.2,0.3,10.3,1.1,13.4-2.4c3.6-4,9.1,0.3,8.3,4.6c5.3-0.2,10.7-0.4,16-0.9
			c8-0.6,21.5-2.4,26.2,6.2C461.7,260.5,459.9,267,454.7,268.8z"/>
		<g id="p3.2">
			<path class="st3" d="M393.6,265.8c-5.2,1.2-11.4,2.2-16-1.1c-2,0.3-4.2-0.4-5.1-2.3c-1.7-3.8-3.2-7.7-4-11.8
				c-0.8-3.8,3.5-8.5,7.3-5.6c1.1,0.8,2.1,1.7,3,2.7c0.6-0.2,1.2-0.4,1.9-0.4c4.9-0.1,9.7,0.9,14.6,1.2c0.5,0,1,0.1,1.6,0.1l0.3-9.2
				l-174.4-66.1c-21.2,56.6-14,120,19.6,170.3c33.5,50.3,89.1,81.2,149.3,83l4.8-161.2C395.4,265.4,394.5,265.6,393.6,265.8z
				 M313.3,260.5c-0.5,8.9-12.6,7.6-18.4,7.1c-10.7-1-21.4-0.3-32.1-2.1c-2.7-0.5-3.7-2.6-3.5-4.7c-2.6,1.6-5.4,2.9-7.9,4.5
				c-4.8,3-9.2-3.2-6.6-7.1c-1.8-1-3.5-2.4-4.9-4.4c-1.3-1.8-0.6-4.6,0.8-6.1c5.3-5.6,17.3-4.7,24-2.5c1.8,0.6,3,1.9,3.4,3.4
				c2.3,0.1,4.6,0.5,6.9,1.5c0.3,0.1,0.5,0.3,0.8,0.5c7.1-2.5,14.5-4.8,22.1-3.5C303.3,248.1,313.7,253.5,313.3,260.5z"/>
			<path class="st3" d="M285.2,267c-7.5-0.2-15-0.3-22.5-1.5c-2.7-0.5-3.7-2.6-3.5-4.7c-2.6,1.6-5.4,2.9-7.9,4.5
				c-4.8,3-9.2-3.2-6.6-7.1c-1.8-1-3.5-2.4-4.9-4.4c-1.3-1.8-0.6-4.6,0.8-6.1c5.3-5.6,17.3-4.7,24-2.5c1.8,0.6,3,1.9,3.4,3.4
				c2,0.1,3.9,0.4,5.9,1.1l-51.1-76.6c-21.2,56.6-14,120,19.6,170.3c33.5,50.3,89.1,81.2,149.3,83L285.2,267z"/>
			<path id="path128" class="st15" d="M216,194.7L216,194.7c-1.8,7.3-3.1,14.6-4,21.9c-1.8,14.7-1.8,29.5-0.1,44.1
				c3.4,29.2,13.6,57.6,30.3,82.8c33.5,50.3,89.1,81.2,149.3,83"/>
			<path id="path130" class="st16" d="M222.3,196.6l-1-19.3l-11.6,15.4L222.3,196.6z"/>
		</g>
		<path class="st3" d="M162,317.8c0.5,0.7,0.8,1.7,0.7,2.9c-0.2,2.7-0.1,6.1-0.5,9.3c1.7,0,3.5,0.1,5.2,0.3c3.5-0.1,7-0.3,10.5-0.5
			c2-1.3,4.3-1.8,6.9-2c2.2-0.1,4.6,0.4,6.8,0.1c1.9-0.3,3.1-1.3,4.7-2.3c9.5-6.4,19.9-2.5,27.7,4.8c1.3,1.2,1.7,3.2,1.3,4.9
			c-0.6,2.3-0.1,4.9,0.2,7.2c0.5,4.4-5.8,6.5-8.5,3.5c-0.6-0.7-1.1-1.4-1.7-2.2c-0.4,0.2-0.9,0.4-1.4,0.5c-4.5,0.8-9.1,1.8-13.6,1.8
			c-2.7,0.9-5.5,1.7-8.3,1.4c-4.5-0.5-8.2-3-11.9-5.3c-0.9,0.4-2,0.4-3.3,0c-0.8-0.2-1.5-0.4-2.3-0.6c-6.3-1-13.7,2.8-19.2-1.3
			c-0.2,0.1-0.4,0.1-0.6,0.2c-6,1.5-8.7-7.3-3.4-9.4c0.1-3.5,1.1-7.2,1.5-10.4c0.1-1.2,0.6-2.2,1.2-2.9h-18.8v32.3h102.6v-32.3H162z
			"/>
	</g>
</g>
<text transform="matrix(1 0 0 1 50.5706 61.3959)" class="st17 st18">DID控制者</text>
<text transform="matrix(1 0 0 1 567.9781 63.1353)" class="st17 st18">DID对象</text>
<text transform="matrix(1 0 0 1 330.2415 112.3732)" class="st19 st17 st20">标记</text>
<text transform="matrix(1 0 0 1 48.7535 283.0063)" class="st21 st17 st20">控制者</text>
<text transform="matrix(1 0 0 1 141.6781 199.5721)" class="st21 st17 st20">控制</text>
<text transform="matrix(1 0 0 1 267.5789 183.0005)" class="st22 st17 st20">解析为</text>
<text transform="matrix(1 0 0 1 454.2854 191.9155)" class="st23 st17 st20">描述</text>
<text transform="matrix(1 0 0 1 310.0892 279.0153)" class="st17 st18">DID 文档</text>
</svg>
