<?xml version="1.0" encoding="utf-8"?>
<!-- Generator: $$$/GeneralStr/196=Adobe Illustrator 27.6.0, SVG Export Plug-In . SVG Version: 6.00 Build 0)  -->
<svg version="1.1"
	 id="svg227" xmlns:sodipodi="http://sodipodi.sourceforge.net/DTD/sodipodi-0.dtd" xmlns:inkscape="http://www.inkscape.org/namespaces/inkscape" xmlns:cc="http://creativecommons.org/ns#" xmlns:rdf="http://www.w3.org/1999/02/22-rdf-syntax-ns#" xmlns:svg="http://www.w3.org/2000/svg" xmlns:dc="http://purl.org/dc/elements/1.1/" sodipodi:docname="figure-a.2-also-known-as-graph.svg"
	 xmlns="http://www.w3.org/2000/svg" xmlns:xlink="http://www.w3.org/1999/xlink" x="0px" y="0px" viewBox="0 0 722.2 586.1"
	 style="enable-background:new 0 0 722.2 586.1;" xml:space="preserve">
<style type="text/css">
	.st0{fill-rule:evenodd;clip-rule:evenodd;}
	.st1{fill:none;stroke:#4A7DBA;stroke-linejoin:round;stroke-miterlimit:10;}
	.st2{fill-rule:evenodd;clip-rule:evenodd;fill-opacity:0;}
	.st3{fill:none;stroke:#15A50A;stroke-width:4;stroke-linejoin:round;stroke-miterlimit:10;}
	.st4{fill-rule:evenodd;clip-rule:evenodd;fill:#15A50A;stroke:#15A50A;stroke-width:4;stroke-miterlimit:10;}
	.st5{fill:#FF0000;}
	.st6{fill-rule:evenodd;clip-rule:evenodd;fill-opacity:0.2;}
	.st7{fill:none;stroke:#000000;stroke-width:2;stroke-linejoin:round;stroke-miterlimit:10;}
	.st8{fill:none;stroke:#2B40CD;stroke-width:4;stroke-linejoin:round;stroke-miterlimit:10;}
	.st9{fill-rule:evenodd;clip-rule:evenodd;fill:#2B40CD;stroke:#2B40CD;stroke-width:4;stroke-miterlimit:10;}
	.st10{fill:none;stroke:#FF0000;stroke-width:4;stroke-linejoin:round;stroke-miterlimit:10;}
	.st11{fill-rule:evenodd;clip-rule:evenodd;fill:#FF0000;stroke:#FF0000;stroke-width:4;stroke-miterlimit:10;}
	.st12{fill:none;stroke:#FF0000;stroke-width:3;stroke-linejoin:round;stroke-miterlimit:10;stroke-dasharray:12,9;}
	.st13{fill-rule:evenodd;clip-rule:evenodd;fill:#FF0000;stroke:#FF0000;stroke-width:3;stroke-miterlimit:10;}
	.st14{fill:none;stroke:#000000;stroke-width:4;stroke-linejoin:round;stroke-miterlimit:10;}
	.st15{fill-rule:evenodd;clip-rule:evenodd;stroke:#000000;stroke-width:4;stroke-miterlimit:10;}
	.st16{fill:none;stroke:#2B40CD;stroke-width:3;stroke-linejoin:round;stroke-miterlimit:10;}
	.st17{fill-rule:evenodd;clip-rule:evenodd;fill:#2B40CD;stroke:#2B40CD;stroke-width:3;stroke-miterlimit:10;}
	.st18{fill:none;stroke:#15A50A;stroke-width:3;stroke-linejoin:round;stroke-miterlimit:10;}
	.st19{fill-rule:evenodd;clip-rule:evenodd;fill:#15A50A;stroke:#15A50A;stroke-width:3;stroke-miterlimit:10;}
	.st20{fill:none;}
	.st21{font-family:'SimHei';}
	.st22{font-size:18px;}
	.st23{fill:#D23719;}
	.st24{font-size:14px;}
	.st25{fill:#62B62F;}
	.st26{fill:#E63B10;}
	.st27{fill:#1E4098;}
</style>
<sodipodi:namedview  bordercolor="#666666" borderopacity="1" fit-margin-bottom="0" fit-margin-left="0" fit-margin-right="0" fit-margin-top="0" gridtolerance="10" guidetolerance="10" id="namedview229" inkscape:current-layer="svg227" inkscape:cx="114.07109" inkscape:cy="282.0155" inkscape:pageopacity="0" inkscape:pageshadow="2" inkscape:window-height="1016" inkscape:window-maximized="1" inkscape:window-width="1920" inkscape:window-x="0" inkscape:window-y="27" inkscape:zoom="0.91702911" objecttolerance="10" pagecolor="#ffffff" showgrid="false">
	</sodipodi:namedview>
<path id="path7" class="st0" d="M69.4,90.6L69.4,90.6c0-8.8,7.2-16,16-16l0,0c4.2,0,8.3,1.7,11.3,4.7s4.7,7.1,4.7,11.3l0,0
	c0,8.8-7.2,16-16,16l0,0C76.5,106.6,69.4,99.5,69.4,90.6z"/>
<path id="path9" class="st1" d="M69.4,90.6L69.4,90.6c0-8.8,7.2-16,16-16l0,0c4.2,0,8.3,1.7,11.3,4.7s4.7,7.1,4.7,11.3l0,0
	c0,8.8-7.2,16-16,16l0,0C76.5,106.6,69.4,99.5,69.4,90.6z"/>
<path id="path11" class="st2" d="M96.7,101.9l155.8,157.5"/>
<path id="path13" class="st3" d="M96.7,101.9l134.7,136.2"/>
<path id="path15" class="st4" d="M225.2,244.3l23.2,11l-10.7-23.4L225.2,244.3z"/>
<path id="path23" class="st2" d="M274.8,42.3h132.1v48.5H274.8V42.3z"/>
<path id="path25" class="st5" d="M335.4,66.6c0,1.9-0.2,3.4-0.7,4.8c-0.5,1.3-1.2,2.4-2.1,3.2s-2,1.4-3.3,1.8s-2.8,0.6-4.6,0.6h-4.8
	c-0.3,0-0.6-0.1-0.9-0.3c-0.2-0.2-0.3-0.5-0.3-1V58.1c0-0.5,0.1-0.8,0.3-1c0.2-0.2,0.5-0.3,0.9-0.3h5.2c1.8,0,3.3,0.2,4.6,0.6
	c1.3,0.4,2.3,1,3.2,1.9c0.9,0.8,1.5,1.8,2,3.1C335.2,63.6,335.4,65,335.4,66.6z M331.1,66.8c0-1-0.1-1.8-0.3-2.7
	c-0.2-0.8-0.6-1.5-1.1-2.1s-1.1-1.1-1.9-1.4c-0.8-0.3-1.8-0.5-3-0.5h-2.1v13.7h2.1c1.1,0,2.1-0.1,2.8-0.4c0.8-0.3,1.4-0.7,1.9-1.3
	c0.5-0.6,0.9-1.3,1.2-2.2C331,69,331.1,67.9,331.1,66.8z M342.9,76.5c0,0.1,0,0.2-0.1,0.3c-0.1,0.1-0.2,0.2-0.3,0.2
	c-0.2,0.1-0.4,0.1-0.6,0.1c-0.3,0-0.6,0-1,0s-0.7,0-1,0s-0.5-0.1-0.6-0.1s-0.3-0.1-0.3-0.2c-0.1-0.1-0.1-0.2-0.1-0.3V57.4
	c0-0.1,0-0.2,0.1-0.3s0.2-0.2,0.3-0.2c0.2-0.1,0.4-0.1,0.6-0.1c0.3,0,0.6,0,1,0s0.7,0,1,0s0.5,0.1,0.6,0.1s0.3,0.1,0.3,0.2
	c0.1,0.1,0.1,0.2,0.1,0.3V76.5z M364.1,66.6c0,1.9-0.2,3.4-0.7,4.8c-0.5,1.3-1.2,2.4-2.1,3.2s-2,1.4-3.3,1.8s-2.8,0.6-4.6,0.6h-4.8
	c-0.3,0-0.6-0.1-0.9-0.3c-0.2-0.2-0.3-0.5-0.3-1V58.1c0-0.5,0.1-0.8,0.3-1c0.2-0.2,0.5-0.3,0.9-0.3h5.2c1.8,0,3.3,0.2,4.6,0.6
	c1.3,0.4,2.3,1,3.2,1.9c0.9,0.8,1.5,1.8,2,3.1C363.9,63.6,364.1,65,364.1,66.6z M359.8,66.8c0-1-0.1-1.8-0.3-2.7
	c-0.2-0.8-0.6-1.5-1.1-2.1s-1.1-1.1-1.9-1.4c-0.8-0.3-1.8-0.5-3-0.5h-2.1v13.7h2.1c1.1,0,2.1-0.1,2.8-0.4c0.8-0.3,1.4-0.7,1.9-1.3
	c0.5-0.6,0.9-1.3,1.2-2.2C359.7,69,359.8,67.9,359.8,66.8z"/>
<path class="st2" d="M274.8,89.5v32.3h132.1V89.5H274.8z M381.6,115.5c-4.9,3.5-11.6,3.2-17.3,2.9c-7.8-0.3-15.6-0.3-23.4-0.8
	c-7.9-0.5-15.7-1.2-23.5-2.4c-5.4-0.8-12.3-2.4-16.4,2.1c-4.3,4.8-11.3-2.3-7.1-7.1c2.5-2.8,5.6-4.4,9-5.2c-0.9-2.5,0.4-6,3.3-6.9
	c14.3-4.8,28.6-2,43.1-0.8c4.8,0.4,9.4,0.8,13.7,1.6c4.5,0.1,8.9,0.2,13.4,0.2c4.2,0,5.6,4.2,4.4,7.1c0.6,0.4,1.2,0.9,1.8,1.4
	C385.3,109.9,384,113.8,381.6,115.5z"/>
<path class="st2" d="M252.6,258.1v226.8h146.1l29.2-29.2V258.1H252.6z M412.5,288.9c-8,1.8-15.8,0.7-23.8-0.6
	c-8.7-1.5-16.5-1.7-25.3-0.6c-11.7,1.5-23.3,3.7-35.1,4.5c-9.1,0.6-18.2,1.2-27.4,1c-2.9-0.1-7,0.1-10.6-0.7c-0.5,1.1-1.2,2.1-2.3,3
	c-7.4,6.1-20.3-6.9-20.5-14.4c0-1.5,0.3-2.8,0.8-3.9c-3-3.3-0.1-8.9,3.9-8.5c0.8-1,2-1.7,3.8-1.7c9,0,18.1,0.7,26.9,2.5
	c0.3-0.1,0.5-0.1,0.8-0.2c4.8-0.6,9.6-0.3,14.4-0.3c1.8-1.7,4.5-2.1,6.5,0.3c0.5,0.6,0.9,1.2,1.3,1.8c0.6,0.2,1.2,0.4,1.7,0.6
	c10.2,0.6,20.5,1.1,30.8,1.3c14.2,0.3,27.8-0.5,41.9-1.9c4.3-0.4,9.7-1.3,13,2.1c2.8,2.8,2.4,7.1,2.9,10.7
	C416.4,286.2,414.4,288.5,412.5,288.9z"/>
<path id="path33" class="st2" d="M398.8,484.9l5.8-23.4l23.4-5.8L398.8,484.9z"/>
<path class="st2" d="M252.6,258.1v226.8h146.1l5.8-23.4l23.4-5.8V258.1H252.6z M412.5,288.9c-8,1.8-15.8,0.7-23.8-0.6
	c-8.7-1.5-16.5-1.7-25.3-0.6c-11.7,1.5-23.3,3.7-35.1,4.5c-9.1,0.6-18.2,1.2-27.4,1c-2.9-0.1-7,0.1-10.6-0.7c-0.5,1.1-1.2,2.1-2.3,3
	c-7.4,6.1-20.3-6.9-20.5-14.4c0-1.5,0.3-2.8,0.8-3.9c-3-3.3-0.1-8.9,3.9-8.5c0.8-1,2-1.7,3.8-1.7c9,0,18.1,0.7,26.9,2.5
	c0.3-0.1,0.5-0.1,0.8-0.2c4.8-0.6,9.6-0.3,14.4-0.3c1.8-1.7,4.5-2.1,6.5,0.3c0.5,0.6,0.9,1.2,1.3,1.8c0.6,0.2,1.2,0.4,1.7,0.6
	c10.2,0.6,20.5,1.1,30.8,1.3c14.2,0.3,27.8-0.5,41.9-1.9c4.3-0.4,9.7-1.3,13,2.1c2.8,2.8,2.4,7.1,2.9,10.7
	C416.4,286.2,414.4,288.5,412.5,288.9z"/>
<path id="path37" class="st6" d="M398.8,484.9l5.8-23.4l23.4-5.8L398.8,484.9z"/>
<path id="path39" class="st7" d="M398.8,484.9l5.8-23.4l23.4-5.8L398.8,484.9H252.6V258.1H428v197.6"/>
<path class="st2" d="M404.4,172.7c0.3,0.3,0.5,0.6,0.7,1.1c0.9,1.7,1.9,3.4,2.9,5c1.7,0.4,3.4,0.8,5.1,1.2c3.3-0.7,6.6-0.9,10-0.9
	c0.7-0.4,1.5-0.7,2.4-0.8c3.8-0.4,7.7-0.5,11.5-0.4c3.2-0.3,6.5-0.8,9.7-1.1c2.1-0.2,3.5,0.7,4.2,2.1c0,0,0,0,0.1,0
	c2.9-0.1,5.8-0.2,8.8-0.3c1.6-0.4,3.3-0.7,4.9-0.4c0.4,0.1,0.8,0.2,1.2,0.3c5.8-0.1,11.8-0.3,17,2.8c0.6,0.4,1.2,0.9,1.5,1.4
	c4.3,0,6.5,5,3.6,8.4c0.6,2.4-0.4,5.1-3.4,5.7c-1,0.2-2,0.4-2.9,0.5c-2.2,1.6-4.7,2.6-7.5,2.1c-1.4-0.2-2.5-0.7-3.4-1.3
	c-2.1,0-4.1,0-6.2,0c-3.5,0.6-7,0.9-10.5,0.4c-2.2,0.2-4.4,0.6-6.6,1.1c-1.2,0.3-2.3,0.2-3.2-0.2c-4.6,1-9.8,0.6-14.6,1.3
	c-1,0.2-1.9,0.4-2.9,0.6c-0.8,0.2-1.5,0.5-2.2,0.8c-1.5,0.6-2.9,0.6-4.1,0c-3.7,0.2-7.2-0.4-10.3-2.3c-3.6-0.5-5.7-3.6-6.9-6.9
	c-0.7-2-1-3.9-1.9-5.8c-3.9-0.9-7.8-1.9-11.6-2.8c-6.2-1.6-3.6-11.2,2.7-9.6c1.2,0.3,2.3,0.6,3.5,0.9c0.2-1.2,0.8-2.3,1.7-3.2h-11.6
	V205H507v-32.3H404.4z"/>
<path id="path47" class="st2" d="M429.1,258.1l155.8-156"/>
<path id="path49" class="st8" d="M429.1,258.1l134.6-134.7"/>
<path id="path51" class="st9" d="M569.9,129.5l10.9-23.3l-23.3,10.9L569.9,129.5z"/>
<path class="st2" d="M65.8,172.3v32.3h129.9v-32.3H65.8z M162.5,194.2c-0.1,0-0.2-0.1-0.3-0.1c0,3.9-5.4,5.7-8.4,3.2
	c-1.7,0.8-3.8,1.2-6.2,1.2c-7.5,0-14.4-3.4-21.9-3.2c-7,0.2-14.6,4.5-21.5,2.2c-6.9-2.2-9.7-10.8-2.7-14.9c4.7-2.8,11.2-1.3,16.4-1
	c9.1,0.6,18.5,2.1,27.6,1.8c0.4,0,0.9,0,1.3,0c0.1-0.6,0.3-1.2,0.5-1.7c2.3-4.7,8.6-4.6,11.4-0.6c0.6,0.8,0.9,1.6,1.2,2.5
	c2.5,0.3,5.1,0.9,7.5,2C173.4,188.1,168.3,196.7,162.5,194.2z"/>
<path id="path57" class="st0" d="M580.2,90.8L580.2,90.8c0-8.8,7.2-16,16-16l0,0c4.2,0,8.3,1.7,11.3,4.7s4.7,7.1,4.7,11.3l0,0
	c0,8.8-7.2,16-16,16l0,0C587.4,106.8,580.2,99.6,580.2,90.8z"/>
<path id="path59" class="st1" d="M580.2,90.8L580.2,90.8c0-8.8,7.2-16,16-16l0,0c4.2,0,8.3,1.7,11.3,4.7s4.7,7.1,4.7,11.3l0,0
	c0,8.8-7.2,16-16,16l0,0C587.4,106.8,580.2,99.6,580.2,90.8z"/>
<path class="st2" d="M569.6,57.3c3.8,0.3,7.7,0,11.7-0.6c-0.9,0-1.8,0.1-2.7,0.1C576.1,56.9,572.5,56.6,569.6,57.3z"/>
<path class="st2" d="M549.3,39.7c-0.6,1.7,1.9,2,4,2.3c0.4,0.1,0.8,0.1,1.2,0.1c-1.3-1.7-1-4,0.3-5.6
	C552.4,37,549.9,37.8,549.3,39.7z"/>
<path id="path67" class="st2" d="M101.4,90.6l478.9,0.2"/>
<path id="path69" class="st10" d="M101.4,90.6l448.9,0.1"/>
<path id="path71" class="st11" d="M550.2,99.6l24.2-8.8L550.3,82L550.2,99.6z"/>
<g id="p5.1" transform="translate(-122.17423,-7.136483)">
	<path class="st2" d="M300.8,98.6L296,260.5l168,3.6C466,175.1,393.1,101.2,300.8,98.6z M420.9,207.4c-10.2-0.5-20.2-3.1-30.4-3.7
		c-0.6,0-1.2-0.2-1.7-0.4c-5.6,3.3-11,2.3-14.9-2.9c-1,0.3-2,0.6-3,0.9c-3.7,1.3-7.7,4-11.8,3.6c-9.1-1-6.3-11.3-4.1-17
		c1.6-4.1,6.5-4.8,9.1-1.2c0.8,1.1,1.6,2.1,2.5,3.1c0.6,0.7,1,1.3,1.2,2.1c6.5-2.3,13.2-3.2,20-3.5c0,0,0,0,0.1,0
		c1.2-2.5,2.7-4.7,5.4-5.7c6.2-2.3,12.3,3.2,18,4.8c6.4,1.8,12.1,1.3,18.5,1.4c4.5,0.1,10,1.3,11.3,6.3
		C444.2,207.1,428.2,207.8,420.9,207.4z"/>
	<path class="st2" d="M300.8,98.6l87.6,88.8c1.1-2.1,2.5-3.8,4.9-4.7c6.2-2.3,12.3,3.2,18,4.8c6.4,1.8,12.1,1.3,18.5,1.4
		c4.5,0.1,10,1.3,11.3,6.3c3.1,11.8-12.9,12.5-20.2,12.1c-4.9-0.3-9.7-1-14.5-1.7L464,264C466,175.1,393.1,101.2,300.8,98.6z"/>
	<path id="path96" class="st12" d="M462.9,241.6v-0.1c-0.1-0.7-0.2-1.3-0.3-2c-0.4-2.7-0.8-5.3-1.3-8c-2-10.5-5-20.7-9-30.5
		c-8-19.5-19.8-37.1-34.5-52.1c-29.5-29.9-70.8-49-117-50.3"/>
	<path id="path98" class="st13" d="M456.3,241.9l7.5,17.8l5.7-18.4L456.3,241.9z"/>
</g>
<path class="st2" d="M217.9,171.4v32.3h114.4v-32.3H217.9z M298.7,200.3c-10.2-0.5-20.2-3.1-30.4-3.7c-0.6,0-1.2-0.2-1.7-0.4
	c-5.6,3.3-11,2.3-14.9-2.9c-1,0.3-2,0.6-3,0.9c-3.7,1.3-7.7,4-11.8,3.6c-9.1-1-6.3-11.3-4.1-17c1.6-4.1,6.5-4.8,9.1-1.2
	c0.8,1.1,1.6,2.1,2.5,3.1c0.6,0.7,1,1.3,1.2,2.1c6.5-2.3,13.2-3.2,20-3.5c0,0,0,0,0.1,0c1.2-2.5,2.7-4.7,5.4-5.7
	c6.2-2.3,12.3,3.2,18,4.8c6.4,1.8,12.1,1.3,18.5,1.4c4.5,0.1,10,1.3,11.3,6.3C322,200,306.1,200.7,298.7,200.3z"/>
<path class="st2" d="M530.6,410.1v168h111l22.2-22.2V410.1H530.6z M652.3,442.8c-0.4-0.3-0.8-0.7-1.1-1c-0.9,1.2-2.3,2.1-3.9,2.2
	c-16.9,0.7-33.6,1.8-50.6,1.1c-14.9-0.6-30.1-1-44.5-5.7c2.5,4.2-1.9,10.5-6.4,7.1c-6.7-5.1-11.5-19.6-2.3-25
	c4.7-2.8,11.3-1.6,16.3-1.2c6.4,0.5,12.8,1,19.3,1.4c9.6-2,18.9-4.1,28.9-3.4c11.3,0.8,23.1-0.1,34.2,2.2c3.8,0.8,8,2.1,10.8,4.9
	c2.1,2,2.8,4.9,4.1,7.4c1.1,1.3,2.1,2.6,3,3.9C663.8,441.8,656.4,446,652.3,442.8z"/>
<path class="st2" d="M548.8,430.1c-0.4,0.3-0.4,1.5-0.1,3c0.3-1.1,1-2.1,2.2-2.8c0.3-0.2,0.5-0.3,0.8-0.5
	C550.6,429.7,549.4,429.7,548.8,430.1z"/>
<path id="path107" class="st2" d="M641.6,578.1l4.4-17.8l17.8-4.4L641.6,578.1z"/>
<path class="st2" d="M548.8,430.1c-0.4,0.3-0.4,1.5-0.1,3c0.3-1.1,1-2.1,2.2-2.8c0.3-0.2,0.5-0.3,0.8-0.5
	C550.6,429.7,549.4,429.7,548.8,430.1z"/>
<path class="st2" d="M530.6,410.1v168h111l4.4-17.8l17.8-4.4V410.1H530.6z M652.3,442.8c-0.4-0.3-0.8-0.7-1.1-1
	c-0.9,1.2-2.3,2.1-3.9,2.2c-16.9,0.7-33.6,1.8-50.6,1.1c-14.9-0.6-30.1-1-44.5-5.7c2.5,4.2-1.9,10.5-6.4,7.1
	c-6.7-5.1-11.5-19.6-2.3-25c4.7-2.8,11.3-1.6,16.3-1.2c6.4,0.5,12.8,1,19.3,1.4c9.6-2,18.9-4.1,28.9-3.4c11.3,0.8,23.1-0.1,34.2,2.2
	c3.8,0.8,8,2.1,10.8,4.9c2.1,2,2.8,4.9,4.1,7.4c1.1,1.3,2.1,2.6,3,3.9C663.8,441.8,656.4,446,652.3,442.8z"/>
<path id="path111" class="st6" d="M641.6,578.1l4.4-17.8l17.8-4.4L641.6,578.1z"/>
<path id="path113" class="st7" d="M641.6,578.1l4.4-17.8l17.8-4.4L641.6,578.1h-111v-168h133.2v145.8"/>
<path id="path117" class="st2" d="M330.7,328.1l249.5-0.4"/>
<path id="path119" class="st14" d="M330.7,328.1l219.5-0.3"/>
<path id="path121" class="st15" d="M550.3,336.5l24.1-8.8l-24.2-8.8L550.3,336.5z"/>
<path id="path123" class="st0" d="M580.2,327.7L580.2,327.7c0-8.8,7.2-16,16-16l0,0c4.2,0,8.3,1.7,11.3,4.7s4.7,7.1,4.7,11.3l0,0
	c0,8.8-7.2,16-16,16l0,0C587.4,343.7,580.2,336.5,580.2,327.7z"/>
<path id="path125" class="st1" d="M580.2,327.7L580.2,327.7c0-8.8,7.2-16,16-16l0,0c4.2,0,8.3,1.7,11.3,4.7s4.7,7.1,4.7,11.3l0,0
	c0,8.8-7.2,16-16,16l0,0C587.4,343.7,580.2,336.5,580.2,327.7z"/>
<path id="path127" class="st2" d="M448.8,280.6h90.6v48.5h-90.6L448.8,280.6z"/>
<path id="path129" d="M489.1,307.8c0,1.2-0.2,2.3-0.5,3.3c-0.4,1-0.9,1.8-1.6,2.5s-1.6,1.2-2.6,1.5c-1,0.4-2.2,0.5-3.6,0.5
	c-1.3,0-2.4-0.2-3.4-0.5s-1.9-0.8-2.6-1.5c-0.7-0.6-1.2-1.4-1.6-2.4s-0.5-2.1-0.5-3.4v-12.3c0-0.1,0-0.2,0.1-0.3
	c0.1-0.1,0.2-0.2,0.3-0.2c0.2-0.1,0.4-0.1,0.6-0.1c0.3,0,0.6,0,1,0s0.7,0,1,0s0.5,0.1,0.6,0.1s0.3,0.1,0.3,0.2
	c0.1,0.1,0.1,0.2,0.1,0.3v11.9c0,0.8,0.1,1.5,0.3,2.1c0.2,0.6,0.5,1.1,0.8,1.5c0.4,0.4,0.8,0.7,1.3,0.9c0.5,0.2,1.1,0.3,1.7,0.3
	s1.2-0.1,1.7-0.3c0.5-0.2,0.9-0.5,1.3-0.9s0.6-0.9,0.8-1.4c0.2-0.6,0.3-1.2,0.3-1.9v-12.2c0-0.1,0-0.2,0.1-0.3
	c0.1-0.1,0.2-0.2,0.3-0.2c0.2-0.1,0.4-0.1,0.6-0.1c0.3,0,0.6,0,1,0s0.7,0,1,0s0.5,0.1,0.6,0.1s0.3,0.1,0.3,0.2
	c0.1,0.1,0.1,0.2,0.1,0.3L489.1,307.8z M508.5,314.8c0,0.1,0,0.2-0.1,0.3c0,0.1-0.1,0.1-0.3,0.2c-0.2,0.1-0.4,0.1-0.7,0.1
	c-0.3,0-0.7,0-1.2,0c-0.4,0-0.8,0-1,0c-0.3,0-0.5-0.1-0.6-0.1c-0.1-0.1-0.2-0.1-0.3-0.2c-0.1-0.1-0.1-0.2-0.2-0.3l-1.8-4.5
	c-0.2-0.5-0.4-1-0.6-1.4s-0.4-0.7-0.7-1c-0.2-0.3-0.5-0.5-0.9-0.6c-0.3-0.1-0.7-0.2-1.2-0.2h-1.3v7.7c0,0.1,0,0.2-0.1,0.3
	c-0.1,0.1-0.2,0.2-0.3,0.2c-0.2,0.1-0.4,0.1-0.6,0.1c-0.3,0-0.6,0-1,0s-0.7,0-1,0s-0.5-0.1-0.6-0.1s-0.3-0.1-0.3-0.2
	c-0.1-0.1-0.1-0.2-0.1-0.3v-18.4c0-0.5,0.1-0.8,0.3-1c0.2-0.2,0.5-0.3,0.9-0.3h5.2c0.5,0,1,0,1.3,0s0.7,0,0.9,0.1
	c0.8,0.1,1.5,0.3,2.2,0.6c0.7,0.3,1.2,0.7,1.7,1.1s0.8,1,1,1.6s0.4,1.3,0.4,2.1c0,0.7-0.1,1.3-0.3,1.9c-0.2,0.6-0.4,1-0.8,1.5
	c-0.3,0.4-0.7,0.8-1.2,1.1c-0.5,0.3-1,0.6-1.7,0.8c0.3,0.1,0.6,0.3,0.8,0.5c0.3,0.2,0.5,0.5,0.8,0.8c0.2,0.3,0.5,0.6,0.7,1
	s0.4,0.8,0.6,1.3l1.7,4c0.2,0.4,0.3,0.7,0.3,0.9C508.5,314.5,508.5,314.7,508.5,314.8L508.5,314.8z M503.2,301.1
	c0-0.7-0.2-1.2-0.5-1.7s-0.8-0.8-1.5-1c-0.2-0.1-0.4-0.1-0.7-0.1c-0.3,0-0.6,0-1.1,0h-1.8v5.7h2.1c0.6,0,1.1-0.1,1.5-0.2
	s0.8-0.3,1.1-0.6c0.3-0.3,0.5-0.6,0.7-0.9C503.1,301.9,503.2,301.5,503.2,301.1L503.2,301.1z M515.6,314.8c0,0.1,0,0.2-0.1,0.3
	c-0.1,0.1-0.2,0.2-0.3,0.2c-0.2,0.1-0.4,0.1-0.6,0.1c-0.3,0-0.6,0-1,0s-0.7,0-1,0s-0.5-0.1-0.6-0.1s-0.3-0.1-0.3-0.2
	c-0.1-0.1-0.1-0.2-0.1-0.3v-19.1c0-0.1,0-0.2,0.1-0.3c0.1-0.1,0.2-0.2,0.3-0.2c0.2-0.1,0.4-0.1,0.6-0.1c0.3,0,0.6,0,1,0s0.7,0,1,0
	s0.5,0.1,0.6,0.1s0.3,0.1,0.3,0.2c0.1,0.1,0.1,0.2,0.1,0.3V314.8z"/>
<path id="path131" class="st2" d="M596.2,343.7l0.9,66.4"/>
<path id="path133" class="st14" d="M596.2,343.7l0.5,36.4"/>
<path id="path135" class="st15" d="M588,380.2l9.1,24l8.4-24.3L588,380.2z"/>
<path id="path137" class="st2" d="M410.4,435.6h142v32.3h-142L410.4,435.6L410.4,435.6z"/>
<path id="path141" class="st2" d="M252.7,297.2h120.9v45.2H252.7V297.2z"/>
<path id="path143" d="M273.8,315.1c0,0.1,0,0.1-0.1,0.1c0,0-0.1,0-0.2,0s-0.2,0-0.3,0c-0.1,0-0.2,0-0.3,0c-0.1,0-0.1,0-0.2,0v-0.1
	v-0.6c-0.3,0.3-0.6,0.5-1,0.7c-0.3,0.2-0.7,0.2-1.1,0.2c-0.3,0-0.6,0-0.9-0.1s-0.5-0.2-0.7-0.4c-0.2-0.2-0.3-0.4-0.5-0.6
	c-0.1-0.2-0.2-0.5-0.2-0.8c0-0.4,0.1-0.7,0.2-0.9c0.2-0.3,0.4-0.5,0.6-0.7c0.3-0.2,0.6-0.3,1-0.4s0.9-0.1,1.4-0.1h0.9v-0.5
	c0-0.2,0-0.5-0.1-0.7s-0.1-0.3-0.2-0.5c-0.1-0.1-0.3-0.2-0.5-0.3c-0.2-0.1-0.4-0.1-0.7-0.1c-0.3,0-0.6,0-0.8,0.1
	c-0.2,0.1-0.4,0.1-0.6,0.2s-0.3,0.2-0.4,0.2c-0.1,0.1-0.2,0.1-0.3,0.1h-0.1c0,0-0.1,0-0.1-0.1c0,0,0-0.1,0-0.2s0-0.1,0-0.2
	s0-0.2,0-0.3c0-0.1,0.1-0.1,0.1-0.2c0.1-0.1,0.2-0.1,0.3-0.2c0.2-0.1,0.3-0.2,0.5-0.2c0.2-0.1,0.4-0.1,0.7-0.2
	c0.2,0,0.5-0.1,0.8-0.1c0.5,0,0.8,0.1,1.2,0.2c0.3,0.1,0.6,0.3,0.8,0.5c0.2,0.2,0.3,0.4,0.4,0.8c0.1,0.3,0.1,0.7,0.1,1L273.8,315.1z
	 M272.6,312.1h-1c-0.3,0-0.6,0-0.8,0.1c-0.2,0.1-0.4,0.1-0.6,0.2s-0.3,0.2-0.3,0.4c-0.1,0.1-0.1,0.3-0.1,0.5c0,0.3,0.1,0.6,0.3,0.8
	c0.2,0.2,0.5,0.3,0.9,0.3c0.3,0,0.6-0.1,0.9-0.2c0.3-0.2,0.5-0.4,0.8-0.7L272.6,312.1L272.6,312.1z M277.1,315.1L277.1,315.1
	c-0.1,0.1-0.1,0.1-0.1,0.2c0,0-0.1,0-0.2,0s-0.2,0-0.3,0c-0.1,0-0.2,0-0.3,0c-0.1,0-0.1,0-0.2,0c0,0-0.1,0-0.1-0.1v-0.1v-9.6v-0.1
	l0.1-0.1c0.1,0,0.1,0,0.2,0s0.2,0,0.3,0c0.1,0,0.2,0,0.3,0c0.1,0,0.1,0,0.2,0c0,0,0.1,0,0.1,0.1v0.1V315.1z M283.3,313.3
	c0,0.3-0.1,0.6-0.2,0.9c-0.1,0.2-0.3,0.5-0.5,0.6c-0.2,0.2-0.5,0.3-0.8,0.4s-0.6,0.1-1,0.1c-0.2,0-0.4,0-0.7-0.1
	c-0.2,0-0.4-0.1-0.6-0.1c-0.2-0.1-0.3-0.1-0.4-0.2s-0.2-0.1-0.2-0.2c-0.1-0.1-0.1-0.1-0.1-0.2s0-0.2,0-0.4c0-0.1,0-0.2,0-0.2
	c0-0.1,0-0.1,0-0.1s0-0.1,0.1-0.1h0.1c0.1,0,0.1,0,0.2,0.1s0.2,0.1,0.4,0.2c0.2,0.1,0.3,0.1,0.5,0.2s0.4,0.1,0.7,0.1
	c0.2,0,0.4,0,0.5-0.1c0.2,0,0.3-0.1,0.4-0.2s0.2-0.2,0.3-0.3c0.1-0.1,0.1-0.3,0.1-0.5s0-0.3-0.1-0.5s-0.2-0.2-0.4-0.3
	c-0.1-0.1-0.3-0.2-0.5-0.2c-0.2-0.1-0.4-0.2-0.6-0.2c-0.2-0.1-0.4-0.2-0.6-0.3c-0.2-0.1-0.4-0.2-0.5-0.4c-0.1-0.1-0.3-0.3-0.4-0.5
	s-0.1-0.5-0.1-0.8c0-0.2,0-0.5,0.1-0.7s0.3-0.4,0.5-0.6s0.4-0.3,0.7-0.4c0.3-0.1,0.6-0.2,1-0.2c0.2,0,0.3,0,0.5,0s0.3,0.1,0.5,0.1
	c0.1,0,0.2,0.1,0.3,0.1c0.1,0.1,0.2,0.1,0.2,0.1c0.1,0,0.1,0.1,0.1,0.1v0.1v0.1c0,0.1,0,0.1,0,0.2s0,0.2,0,0.2c0,0.1,0,0.1,0,0.1
	v0.1c0,0,0,0-0.1,0c0,0-0.1,0-0.2-0.1s-0.2-0.1-0.3-0.2c-0.1-0.1-0.3-0.1-0.5-0.2s-0.4-0.1-0.6-0.1s-0.4,0-0.5,0.1
	c-0.1,0-0.3,0.1-0.4,0.2s-0.2,0.2-0.2,0.3c0,0.1-0.1,0.2-0.1,0.4c0,0.2,0,0.3,0.1,0.5s0.2,0.2,0.4,0.3c0.2,0.1,0.3,0.2,0.5,0.3
	c0.2,0.1,0.4,0.2,0.6,0.2c0.2,0.1,0.4,0.2,0.6,0.3c0.2,0.1,0.4,0.2,0.5,0.4c0.2,0.1,0.3,0.3,0.4,0.5
	C283.3,312.8,283.3,313,283.3,313.3L283.3,313.3z M291,311.8c0,0.5-0.1,1-0.2,1.5c-0.1,0.4-0.3,0.8-0.6,1.1c-0.3,0.3-0.6,0.6-1,0.8
	c-0.4,0.2-0.9,0.3-1.4,0.3s-1-0.1-1.4-0.2c-0.4-0.2-0.7-0.4-1-0.7c-0.3-0.3-0.5-0.7-0.6-1.1s-0.2-0.9-0.2-1.5c0-0.5,0.1-1,0.2-1.4
	s0.3-0.8,0.6-1.1c0.3-0.3,0.6-0.6,1-0.8c0.4-0.2,0.9-0.3,1.4-0.3s1,0.1,1.4,0.2c0.4,0.2,0.7,0.4,1,0.7c0.3,0.3,0.5,0.7,0.6,1.1
	S291,311.2,291,311.8z M289.8,311.9c0-0.4,0-0.7-0.1-1s-0.2-0.6-0.3-0.8c-0.1-0.2-0.3-0.4-0.6-0.6c-0.2-0.1-0.6-0.2-0.9-0.2
	s-0.6,0.1-0.9,0.2s-0.5,0.3-0.6,0.5c-0.2,0.2-0.3,0.5-0.4,0.8s-0.1,0.7-0.1,1c0,0.4,0,0.7,0.1,1s0.2,0.6,0.3,0.8
	c0.2,0.2,0.4,0.4,0.6,0.5s0.6,0.2,0.9,0.2s0.6-0.1,0.9-0.2s0.5-0.3,0.6-0.5c0.2-0.2,0.3-0.5,0.4-0.8
	C289.7,312.6,289.8,312.2,289.8,311.9L289.8,311.9z M298.9,315.1v0.1c0,0,0,0.1-0.1,0.1c0,0-0.1,0-0.2,0s-0.2,0-0.3,0
	c-0.2,0-0.3,0-0.4,0s-0.2,0-0.2-0.1c-0.1,0-0.1-0.1-0.1-0.1l-3.4-4.6v4.6v0.1l-0.1,0.1c0,0-0.1,0-0.2,0s-0.2,0-0.3,0
	c-0.1,0-0.2,0-0.3,0c-0.1,0-0.1,0-0.2,0s-0.1,0-0.1-0.1v-0.1v-8.9v-0.1l0.1-0.1c0.1,0,0.1,0,0.2,0s0.2,0,0.3,0c0.1,0,0.2,0,0.3,0
	c0.1,0,0.1,0,0.2,0s0.1,0,0.1,0.1v0.1v4.1l3.3-4.1l0.1-0.1l0.1-0.1c0.1,0,0.1,0,0.2,0s0.2,0,0.3,0s0.2,0,0.3,0c0.1,0,0.1,0,0.2,0
	c0,0,0.1,0,0.1,0.1c0,0,0,0,0,0.1s0,0.1,0,0.2s-0.1,0.2-0.2,0.3l-3.1,3.7l3.3,4.4C298.9,314.9,298.9,315,298.9,315.1
	C298.9,315,298.9,315,298.9,315.1L298.9,315.1z M305.7,315.1L305.7,315.1c-0.1,0.1-0.1,0.1-0.1,0.2c0,0-0.1,0-0.2,0s-0.2,0-0.3,0
	c-0.1,0-0.2,0-0.3,0c-0.1,0-0.1,0-0.2,0c0,0-0.1,0-0.1-0.1v-0.1v-3.8c0-0.4,0-0.7-0.1-0.9c-0.1-0.2-0.1-0.4-0.2-0.6
	s-0.2-0.3-0.4-0.4c-0.2-0.1-0.4-0.1-0.6-0.1c-0.3,0-0.6,0.1-0.9,0.3c-0.3,0.2-0.6,0.5-0.9,0.9v4.5v0.1c0,0-0.1,0-0.1,0.1
	c0,0-0.1,0-0.2,0s-0.2,0-0.3,0c-0.1,0-0.2,0-0.3,0c-0.1,0-0.1,0-0.2,0c0,0-0.1,0-0.1-0.1V315v-6.5v-0.1l0.1-0.1c0,0,0.1,0,0.2,0
	s0.2,0,0.3,0c0.1,0,0.2,0,0.3,0c0.1,0,0.1,0,0.2,0c0,0,0.1,0,0.1,0.1c0,0,0,0,0,0.1v0.9c0.4-0.4,0.7-0.7,1.1-0.9
	c0.4-0.2,0.7-0.3,1.1-0.3s0.8,0.1,1.1,0.2c0.3,0.1,0.5,0.3,0.7,0.6c0.2,0.2,0.3,0.5,0.4,0.9c0.1,0.3,0.1,0.7,0.1,1.2L305.7,315.1z
	 M313.8,311.8c0,0.5-0.1,1-0.2,1.5c-0.1,0.4-0.3,0.8-0.6,1.1c-0.3,0.3-0.6,0.6-1,0.8c-0.4,0.2-0.9,0.3-1.4,0.3s-1-0.1-1.4-0.2
	c-0.4-0.2-0.7-0.4-1-0.7c-0.3-0.3-0.5-0.7-0.6-1.1s-0.2-0.9-0.2-1.5c0-0.5,0.1-1,0.2-1.4s0.3-0.8,0.6-1.1c0.3-0.3,0.6-0.6,1-0.8
	c0.4-0.2,0.9-0.3,1.4-0.3s1,0.1,1.4,0.2c0.4,0.2,0.7,0.4,1,0.7c0.3,0.3,0.5,0.7,0.6,1.1C313.7,310.8,313.8,311.2,313.8,311.8z
	 M312.6,311.9c0-0.4,0-0.7-0.1-1s-0.2-0.6-0.3-0.8c-0.1-0.2-0.3-0.4-0.6-0.6c-0.2-0.1-0.6-0.2-0.9-0.2s-0.6,0.1-0.9,0.2
	s-0.5,0.3-0.6,0.5c-0.2,0.2-0.3,0.5-0.4,0.8s-0.1,0.7-0.1,1c0,0.4,0,0.7,0.1,1s0.2,0.6,0.3,0.8c0.2,0.2,0.4,0.4,0.6,0.5
	s0.6,0.2,0.9,0.2s0.6-0.1,0.9-0.2s0.5-0.3,0.6-0.5c0.2-0.2,0.3-0.5,0.4-0.8C312.5,312.6,312.6,312.2,312.6,311.9L312.6,311.9z
	 M324.5,308.6v0.1c0,0,0,0.1,0,0.2l-1.9,6.1c0,0.1,0,0.1-0.1,0.1l-0.1,0.1c-0.1,0-0.1,0-0.2,0s-0.2,0-0.4,0s-0.3,0-0.4,0
	s-0.2,0-0.2,0c-0.1,0-0.1,0-0.1-0.1V315l-1.4-4.7v-0.1v0.1l-1.2,4.7c0,0.1,0,0.1-0.1,0.1l-0.1,0.1c-0.1,0-0.1,0-0.2,0s-0.2,0-0.4,0
	c-0.1,0-0.3,0-0.4,0s-0.2,0-0.2,0c-0.1,0-0.1,0-0.1-0.1l-0.1-0.1l-1.9-6.1c0-0.1,0-0.1,0-0.2s0-0.1,0-0.1v-0.1l0.1-0.1
	c0.1,0,0.1,0,0.2,0s0.2,0,0.3,0c0.1,0,0.2,0,0.3,0c0.1,0,0.1,0,0.2,0c0,0,0.1,0,0.1,0.1c0,0,0,0.1,0.1,0.1l1.5,5.3v0.1v-0.1l1.4-5.3
	v-0.1l0.1-0.1c0,0,0.1,0,0.2,0s0.2,0,0.3,0c0.1,0,0.2,0,0.3,0s0.1,0,0.2,0c0,0,0.1,0,0.1,0.1v0.1l1.5,5.3v0.1v-0.1l1.5-5.3v-0.1
	l0.1-0.1c0,0,0.1,0,0.2,0s0.2,0,0.3,0s0.2,0,0.3,0c0.1,0,0.1,0,0.2,0S324.5,308.5,324.5,308.6C324.5,308.5,324.5,308.6,324.5,308.6
	L324.5,308.6z M331.5,315.1L331.5,315.1c-0.1,0.1-0.1,0.1-0.1,0.2c0,0-0.1,0-0.2,0s-0.2,0-0.3,0s-0.2,0-0.3,0c-0.1,0-0.1,0-0.2,0
	c0,0-0.1,0-0.1-0.1v-0.1v-3.8c0-0.4,0-0.7-0.1-0.9c-0.1-0.2-0.1-0.4-0.2-0.6s-0.2-0.3-0.4-0.4c-0.2-0.1-0.4-0.1-0.6-0.1
	c-0.3,0-0.6,0.1-0.9,0.3c-0.3,0.2-0.6,0.5-0.9,0.9v4.5v0.1c0,0-0.1,0-0.1,0.1c0,0-0.1,0-0.2,0s-0.2,0-0.3,0s-0.2,0-0.3,0
	c-0.1,0-0.1,0-0.2,0c0,0-0.1,0-0.1-0.1V315v-6.5v-0.1l0.1-0.1c0,0,0.1,0,0.2,0s0.2,0,0.3,0c0.1,0,0.2,0,0.3,0c0.1,0,0.1,0,0.2,0
	c0,0,0.1,0,0.1,0.1c0,0,0,0,0,0.1v0.9c0.4-0.4,0.7-0.7,1.1-0.9c0.4-0.2,0.7-0.3,1.1-0.3s0.8,0.1,1.1,0.2c0.3,0.1,0.5,0.3,0.7,0.6
	c0.2,0.2,0.3,0.5,0.4,0.9c0.1,0.3,0.1,0.7,0.1,1.2L331.5,315.1z M340.8,314.8c0,0.1,0,0.2,0,0.3c0,0.1,0,0.1,0,0.1s-0.1,0.1-0.2,0.1
	s-0.2,0-0.3,0s-0.3,0-0.4,0s-0.2,0-0.2,0s-0.1,0-0.1-0.1c0,0,0-0.1-0.1-0.1l-0.8-2.3h-3.9L334,315c0,0,0,0.1-0.1,0.1l-0.1,0.1
	c0,0-0.1,0-0.2,0s-0.2,0-0.3,0s-0.2,0-0.3,0c-0.1,0-0.1,0-0.2-0.1V315c0-0.1,0-0.1,0.1-0.2l3.1-8.6c0-0.1,0-0.1,0.1-0.1l0.1-0.1
	c0.1,0,0.1,0,0.2,0s0.2,0,0.4,0s0.3,0,0.4,0s0.2,0,0.2,0c0.1,0,0.1,0,0.1,0.1l0.1,0.1L340.8,314.8z M336.8,307.2L336.8,307.2
	l-1.6,4.6h3.2L336.8,307.2z M346.2,313.3c0,0.3-0.1,0.6-0.2,0.9c-0.1,0.2-0.3,0.5-0.5,0.6c-0.2,0.2-0.5,0.3-0.8,0.4s-0.6,0.1-1,0.1
	c-0.2,0-0.4,0-0.7-0.1c-0.2,0-0.4-0.1-0.6-0.1c-0.2-0.1-0.3-0.1-0.4-0.2s-0.2-0.1-0.2-0.2c-0.1-0.1-0.1-0.1-0.1-0.2s0-0.2,0-0.4
	c0-0.1,0-0.2,0-0.2c0-0.1,0-0.1,0-0.1s0-0.1,0.1-0.1h0.1c0.1,0,0.1,0,0.2,0.1s0.2,0.1,0.4,0.2c0.2,0.1,0.3,0.1,0.5,0.2
	s0.4,0.1,0.7,0.1c0.2,0,0.4,0,0.5-0.1c0.2,0,0.3-0.1,0.4-0.2s0.2-0.2,0.3-0.3c0.1-0.1,0.1-0.3,0.1-0.5s0-0.3-0.1-0.5
	s-0.2-0.2-0.4-0.3c-0.1-0.1-0.3-0.2-0.5-0.2c-0.2-0.1-0.4-0.2-0.6-0.2c-0.2-0.1-0.4-0.2-0.6-0.3c-0.2-0.1-0.4-0.2-0.5-0.4
	c-0.1-0.1-0.3-0.3-0.4-0.5s-0.1-0.5-0.1-0.8c0-0.2,0-0.5,0.1-0.7s0.3-0.4,0.5-0.6s0.4-0.3,0.7-0.4c0.3-0.1,0.6-0.2,1-0.2
	c0.2,0,0.3,0,0.5,0s0.3,0.1,0.5,0.1c0.1,0,0.2,0.1,0.3,0.1c0.1,0.1,0.2,0.1,0.2,0.1c0.1,0,0.1,0.1,0.1,0.1v0.1v0.1
	c0,0.1,0,0.1,0,0.2s0,0.2,0,0.2c0,0.1,0,0.1,0,0.1v0.1c0,0,0,0-0.1,0c0,0-0.1,0-0.2-0.1s-0.2-0.1-0.3-0.2c-0.1-0.1-0.3-0.1-0.5-0.2
	s-0.4-0.1-0.6-0.1s-0.4,0-0.5,0.1c-0.1,0-0.3,0.1-0.4,0.2s-0.2,0.2-0.2,0.3c0,0.1-0.1,0.2-0.1,0.4c0,0.2,0,0.3,0.1,0.5
	c0.1,0.1,0.2,0.2,0.4,0.3c0.2,0.1,0.3,0.2,0.5,0.3c0.2,0.1,0.4,0.2,0.6,0.2c0.2,0.1,0.4,0.2,0.6,0.3c0.2,0.1,0.4,0.2,0.5,0.4
	c0.2,0.1,0.3,0.3,0.4,0.5C346.2,312.8,346.2,313,346.2,313.3L346.2,313.3z M349.6,309.5c0,0.1,0,0.3,0,0.4s-0.1,0.2-0.1,0.3
	c-0.1,0.1-0.1,0.1-0.2,0.1s-0.2,0-0.4,0c-0.2,0-0.3,0-0.4,0s-0.2-0.1-0.2-0.1c-0.1-0.1-0.1-0.2-0.1-0.3c0-0.1,0-0.2,0-0.4
	c0-0.2,0-0.3,0-0.4s0.1-0.2,0.1-0.3c0.1-0.1,0.1-0.1,0.2-0.1s0.2,0,0.4,0c0.1,0,0.3,0,0.4,0s0.2,0.1,0.2,0.1
	c0.1,0.1,0.1,0.2,0.1,0.3C349.6,309.2,349.6,309.4,349.6,309.5z M349.6,314.5c0,0.2,0,0.3,0,0.4s-0.1,0.2-0.1,0.2
	c-0.1,0.1-0.1,0.1-0.2,0.1s-0.2,0-0.4,0c-0.2,0-0.3,0-0.4,0s-0.2-0.1-0.2-0.1c-0.1-0.1-0.1-0.1-0.1-0.2s0-0.2,0-0.4
	c0-0.2,0-0.3,0-0.4s0.1-0.2,0.1-0.2c0.1-0.1,0.1-0.1,0.2-0.1s0.2,0,0.4,0c0.1,0,0.3,0,0.4,0s0.2,0.1,0.2,0.1
	c0.1,0.1,0.1,0.1,0.1,0.2S349.6,314.3,349.6,314.5z M357.9,317.1c0,0.2,0,0.3-0.1,0.3c0,0.1-0.1,0.1-0.1,0.1h-1.8
	c-0.1,0-0.1,0-0.2,0s-0.1-0.1-0.1-0.1l-0.1-0.1c0-0.1,0-0.1,0-0.2v-11.3c0-0.1,0-0.2,0-0.2c0-0.1,0.1-0.1,0.1-0.2l0.1-0.1
	c0.1,0,0.1,0,0.2,0h1.8c0,0,0,0,0.1,0c0,0,0.1,0,0.1,0.1v0.1c0,0.1,0,0.1,0,0.2s0,0.3-0.1,0.3c0,0.1-0.1,0.1-0.1,0.1h-1.2v10.6h1.2
	c0,0,0,0,0.1,0c0,0,0.1,0,0.1,0.1v0.1C357.9,317,357.9,317,357.9,317.1L357.9,317.1z"/>
<path id="path145" d="M308.6,329.4c0,0.6-0.1,1.1-0.2,1.5c-0.2,0.4-0.4,0.8-0.7,1.1c-0.3,0.3-0.7,0.5-1.1,0.7s-0.9,0.2-1.5,0.2
	c-0.5,0-1-0.1-1.4-0.2c-0.4-0.2-0.8-0.4-1.1-0.7c-0.3-0.3-0.5-0.7-0.7-1.1s-0.2-0.9-0.2-1.5v-5.8v-0.1l0.1-0.1c0.1,0,0.1,0,0.2,0
	s0.2,0,0.3,0c0.1,0,0.2,0,0.3,0c0.1,0,0.1,0,0.2,0s0.1,0,0.1,0.1v0.1v5.6c0,0.4,0.1,0.8,0.2,1.1c0.1,0.3,0.3,0.6,0.5,0.8
	c0.2,0.2,0.4,0.4,0.7,0.5c0.3,0.1,0.6,0.2,0.9,0.2c0.4,0,0.7-0.1,1-0.2s0.5-0.3,0.7-0.5s0.3-0.5,0.5-0.8c0.1-0.3,0.2-0.7,0.2-1.1
	v-5.7v-0.1l0.1-0.1c0.1,0,0.1,0,0.2,0s0.2,0,0.3,0c0.1,0,0.2,0,0.3,0c0.1,0,0.1,0,0.2,0c0,0,0.1,0,0.1,0.1v0.1L308.6,329.4z
	 M317.2,332.7v0.1c0,0,0,0-0.1,0.1c0,0-0.1,0-0.2,0s-0.2,0-0.3,0c-0.1,0-0.2,0-0.3,0c-0.1,0-0.1,0-0.2,0l-0.1-0.1c0,0,0-0.1-0.1-0.1
	l-0.9-2.2c-0.1-0.2-0.2-0.5-0.3-0.7c-0.1-0.2-0.2-0.4-0.4-0.5c-0.1-0.2-0.3-0.3-0.5-0.4s-0.4-0.1-0.7-0.1h-0.8v3.9v0.1
	c0,0-0.1,0-0.1,0.1c0,0-0.1,0-0.2,0s-0.2,0-0.3,0c-0.1,0-0.2,0-0.3,0c-0.1,0-0.1,0-0.2,0s-0.1,0-0.1-0.1v-0.1v-8.6
	c0-0.2,0-0.3,0.1-0.4s0.2-0.1,0.3-0.1h2c0.2,0,0.4,0,0.6,0s0.3,0,0.4,0c0.4,0.1,0.7,0.2,1,0.3s0.5,0.3,0.7,0.5s0.3,0.4,0.4,0.7
	c0.1,0.3,0.1,0.6,0.1,0.9s0,0.6-0.1,0.8c-0.1,0.2-0.2,0.5-0.4,0.7c-0.2,0.2-0.3,0.3-0.6,0.5c-0.2,0.1-0.5,0.2-0.7,0.3
	c0.2,0.1,0.3,0.2,0.4,0.3c0.1,0.1,0.2,0.2,0.3,0.4c0.1,0.1,0.2,0.3,0.3,0.5c0.1,0.2,0.2,0.4,0.3,0.6l0.8,2c0.1,0.2,0.1,0.3,0.1,0.4
	C317.2,332.6,317.2,332.6,317.2,332.7L317.2,332.7z M315.3,326.2c0-0.4-0.1-0.7-0.2-0.9c-0.2-0.2-0.4-0.4-0.8-0.5
	c-0.1,0-0.3-0.1-0.4-0.1s-0.3,0-0.6,0h-1v3.1h1.2c0.3,0,0.6,0,0.8-0.1c0.2-0.1,0.4-0.2,0.6-0.3c0.2-0.1,0.3-0.3,0.3-0.5
	C315.3,326.6,315.3,326.4,315.3,326.2L315.3,326.2z M320.2,332.7v0.1c0,0-0.1,0-0.1,0.1c0,0-0.1,0-0.2,0s-0.2,0-0.3,0
	c-0.1,0-0.2,0-0.3,0c-0.1,0-0.1,0-0.2,0s-0.1,0-0.1-0.1v-0.1v-8.9v-0.1l0.1-0.1c0.1,0,0.1,0,0.2,0s0.2,0,0.3,0c0.1,0,0.2,0,0.3,0
	c0.1,0,0.1,0,0.2,0s0.1,0,0.1,0.1v0.1V332.7z M324.6,334.7c0,0.1,0,0.2,0,0.2c0,0.1-0.1,0.1-0.1,0.1l-0.1,0.1c-0.1,0-0.1,0-0.2,0
	h-1.8c-0.1,0-0.1,0-0.2-0.1c0-0.1,0-0.2,0-0.3c0-0.1,0-0.2,0-0.2c0-0.1,0-0.1,0-0.1s0-0.1,0.1-0.1h0.1h1.2v-10.6h-1.2
	c-0.1,0-0.1,0-0.2-0.1c0-0.1,0-0.2,0-0.3c0-0.1,0-0.2,0-0.2c0-0.1,0-0.1,0-0.1s0-0.1,0.1-0.1h0.1h1.8c0.1,0,0.1,0,0.2,0
	s0.1,0,0.1,0.1c0.1,0,0.1,0.1,0.1,0.2s0,0.1,0,0.2V334.7z"/>
<path id="path147" class="st2" d="M473.6,222.7h132.1V255H473.6V222.7z"/>
<path id="path149" class="st5" d="M496.8,244.4c0,0.1-0.1,0.2-0.2,0.2s-0.3,0.1-0.5,0.1c-0.1,0-0.2,0-0.3,0c-0.1,0-0.1,0-0.2,0
	s-0.1,0-0.1-0.1v-0.1l0.3-1.5c-0.1,0.2-0.2,0.4-0.4,0.6c-0.2,0.2-0.4,0.4-0.7,0.6c-0.3,0.2-0.6,0.4-0.9,0.5s-0.7,0.2-1,0.2
	c-0.5,0-0.9-0.1-1.2-0.2c-0.3-0.2-0.6-0.4-0.8-0.7c-0.2-0.3-0.3-0.6-0.4-1s-0.1-0.7-0.1-1.1c0-0.3,0-0.7,0.1-1.2
	c0.1-0.4,0.2-0.9,0.3-1.3c0.1-0.4,0.3-0.9,0.6-1.3c0.2-0.4,0.5-0.8,0.8-1.1s0.7-0.6,1.1-0.8s0.9-0.3,1.5-0.3c0.5,0,1,0.1,1.4,0.3
	s0.7,0.5,1,0.9l0.2-0.8c0-0.1,0.1-0.2,0.2-0.2s0.3-0.1,0.5-0.1c0.1,0,0.2,0,0.3,0c0.1,0,0.2,0,0.2,0c0.1,0,0.1,0.1,0.1,0.1v0.1
	L496.8,244.4z M496.5,238.3c-0.3-0.4-0.6-0.7-0.9-1s-0.7-0.3-1.1-0.3c-0.3,0-0.6,0.1-0.9,0.2s-0.5,0.4-0.7,0.6
	c-0.2,0.2-0.4,0.5-0.5,0.9s-0.3,0.7-0.4,1s-0.2,0.7-0.2,1s-0.1,0.6-0.1,0.9c0,0.2,0,0.4,0,0.6c0,0.2,0.1,0.4,0.2,0.6
	c0.1,0.2,0.2,0.3,0.4,0.4c0.2,0.1,0.4,0.2,0.6,0.2c0.3,0,0.7-0.1,1-0.3s0.7-0.4,1-0.8c0.3-0.3,0.5-0.7,0.8-1.2
	c0.2-0.4,0.4-0.9,0.5-1.5L496.5,238.3z M501.1,244.4c0,0.1,0,0.1-0.1,0.1l-0.1,0.1c0,0-0.1,0-0.2,0s-0.2,0-0.4,0c-0.1,0-0.3,0-0.4,0
	s-0.2,0-0.2,0c-0.1,0-0.1,0-0.1-0.1v-0.1l2.4-12.2c0-0.1,0-0.1,0-0.1l0.1-0.1c0.1,0,0.2-0.1,0.2-0.1c0.1,0,0.2,0,0.4,0
	c0.1,0,0.3,0,0.4,0s0.2,0,0.2,0.1c0.1,0,0.1,0.1,0.1,0.1v0.1L501.1,244.4z M510.1,236.6c0,0.1,0,0.1,0,0.2c0,0.1,0,0.2-0.1,0.3
	c0,0.1-0.1,0.2-0.1,0.2c0,0.1-0.1,0.1-0.1,0.1c-0.1,0-0.2,0-0.3-0.1c-0.1-0.1-0.2-0.1-0.4-0.2c-0.1-0.1-0.3-0.1-0.5-0.2
	c-0.2-0.1-0.4-0.1-0.7-0.1c-0.3,0-0.5,0-0.7,0.1s-0.4,0.2-0.5,0.3s-0.2,0.3-0.3,0.4c-0.1,0.2-0.1,0.3-0.1,0.5c0,0.3,0.1,0.5,0.2,0.6
	c0.2,0.2,0.4,0.3,0.6,0.4c0.2,0.1,0.5,0.3,0.8,0.4c0.3,0.1,0.5,0.3,0.8,0.5c0.2,0.2,0.4,0.4,0.6,0.7s0.2,0.6,0.2,0.9
	c0,0.4-0.1,0.8-0.2,1.2c-0.2,0.4-0.4,0.7-0.7,1c-0.3,0.3-0.7,0.5-1.1,0.6s-0.9,0.2-1.5,0.2c-0.3,0-0.5,0-0.8-0.1
	c-0.2,0-0.5-0.1-0.7-0.2c-0.2-0.1-0.4-0.2-0.5-0.2c-0.1-0.1-0.3-0.2-0.3-0.2c-0.1,0-0.1-0.1-0.1-0.1c0-0.1,0-0.1,0-0.2
	c0-0.1,0-0.1,0-0.2c0-0.1,0-0.1,0-0.2c0-0.1,0-0.1,0.1-0.2c0-0.1,0-0.1,0.1-0.2c0-0.1,0.1-0.1,0.1-0.1h0.1c0.1,0,0.2,0,0.3,0.1
	c0.1,0.1,0.2,0.2,0.4,0.2c0.2,0.1,0.4,0.2,0.6,0.3s0.6,0.1,0.9,0.1s0.6,0,0.9-0.1c0.2-0.1,0.4-0.2,0.6-0.3s0.3-0.3,0.3-0.5
	c0.1-0.2,0.1-0.4,0.1-0.6c0-0.3-0.1-0.5-0.2-0.6s-0.4-0.3-0.6-0.4c-0.2-0.1-0.5-0.3-0.8-0.4s-0.5-0.3-0.8-0.4
	c-0.2-0.2-0.4-0.4-0.6-0.6c-0.2-0.3-0.2-0.6-0.2-1s0.1-0.8,0.2-1.1s0.4-0.6,0.7-0.9c0.3-0.3,0.6-0.5,1-0.6s0.9-0.2,1.4-0.2
	c0.2,0,0.4,0,0.7,0.1c0.2,0,0.4,0.1,0.6,0.1c0.2,0.1,0.3,0.1,0.5,0.2c0.1,0.1,0.2,0.1,0.3,0.2C510.1,236.4,510.1,236.5,510.1,236.6
	L510.1,236.6z M519.5,238.9c0,0.5,0,0.9-0.1,1.4s-0.2,0.9-0.4,1.3c-0.2,0.4-0.4,0.8-0.7,1.2s-0.6,0.7-0.9,1
	c-0.4,0.3-0.8,0.5-1.2,0.7s-1,0.2-1.5,0.2c-0.6,0-1.1-0.1-1.5-0.2c-0.4-0.1-0.8-0.3-1-0.6c-0.3-0.3-0.5-0.6-0.6-1s-0.2-0.8-0.2-1.3
	c0-0.4,0-0.9,0.1-1.4s0.2-0.9,0.4-1.3c0.2-0.4,0.4-0.8,0.7-1.2s0.6-0.7,0.9-1c0.4-0.3,0.8-0.5,1.2-0.7c0.5-0.2,1-0.3,1.5-0.3
	c0.6,0,1.1,0.1,1.5,0.2s0.8,0.4,1,0.6c0.3,0.3,0.5,0.6,0.6,1C519.4,238,519.5,238.4,519.5,238.9z M517.9,239c0-0.3,0-0.6-0.1-0.8
	s-0.2-0.5-0.3-0.6c-0.1-0.2-0.3-0.3-0.6-0.4c-0.2-0.1-0.5-0.1-0.9-0.1s-0.7,0.1-1,0.2c-0.3,0.1-0.6,0.3-0.8,0.5s-0.4,0.5-0.6,0.8
	c-0.2,0.3-0.3,0.6-0.4,0.9c-0.1,0.3-0.2,0.7-0.2,1c-0.1,0.4-0.1,0.7-0.1,1s0,0.6,0.1,0.8s0.2,0.4,0.3,0.6c0.2,0.2,0.3,0.3,0.6,0.4
	c0.2,0.1,0.5,0.1,0.9,0.1s0.7-0.1,1-0.2c0.3-0.1,0.6-0.3,0.8-0.5s0.4-0.5,0.6-0.8c0.2-0.3,0.3-0.6,0.4-1c0.1-0.3,0.2-0.7,0.2-1
	C517.8,239.7,517.9,239.3,517.9,239z M530.6,233.1c0,0.1,0,0.2-0.1,0.3s-0.2,0.2-0.3,0.3l-4.9,4.8l3.1,5.5c0.1,0.1,0.1,0.2,0.1,0.2
	c0,0.1,0,0.1,0,0.2c0,0.1,0,0.1,0,0.1l-0.1,0.1c-0.1,0-0.1,0-0.2,0c-0.1,0-0.2,0-0.4,0s-0.3,0-0.4,0c-0.1,0-0.2,0-0.2,0
	c-0.1,0-0.1,0-0.1-0.1c0,0-0.1-0.1-0.1-0.2l-3.2-5.9l-1.2,5.9c0,0.1,0,0.1-0.1,0.1c0,0-0.1,0.1-0.2,0.1c-0.1,0-0.1,0-0.2,0
	c-0.1,0-0.2,0-0.4,0s-0.3,0-0.4,0c-0.1,0-0.2,0-0.2,0c-0.1,0-0.1,0-0.1-0.1v-0.1l2.3-11.3v-0.1c0,0,0.1-0.1,0.2-0.1
	c0.1,0,0.2,0,0.3,0s0.2,0,0.4,0c0.1,0,0.3,0,0.4,0c0.1,0,0.2,0,0.2,0c0.1,0,0.1,0.1,0.1,0.1v0.1l-1,5.2l5.2-5.2
	c0.1-0.1,0.1-0.1,0.2-0.1c0.1,0,0.1-0.1,0.2-0.1c0.1,0,0.2-0.1,0.3-0.1s0.2,0,0.4,0s0.3,0,0.4,0c0.1,0,0.2,0,0.2,0.1
	c0.1,0,0.1,0.1,0.1,0.1C530.6,233,530.6,233,530.6,233.1L530.6,233.1z M538.3,238c0,0.2,0,0.4,0,0.6c0,0.2-0.1,0.4-0.1,0.6l-1,5.1
	c0,0.1,0,0.1-0.1,0.1l-0.1,0.1c-0.1,0-0.1,0-0.2,0c-0.1,0-0.2,0-0.4,0c-0.1,0-0.3,0-0.4,0c-0.1,0-0.2,0-0.2,0c-0.1,0-0.1,0-0.1-0.1
	v-0.1l1-5.1c0-0.2,0.1-0.4,0.1-0.5c0-0.2,0-0.3,0-0.5c0-0.4-0.1-0.7-0.2-0.9c-0.2-0.2-0.4-0.3-0.8-0.3c-0.3,0-0.7,0.1-1,0.3
	s-0.6,0.4-0.9,0.8c-0.3,0.3-0.6,0.7-0.8,1.2c-0.2,0.4-0.4,0.9-0.5,1.5l-0.7,3.7c0,0.1,0,0.1-0.1,0.1l-0.1,0.1c-0.1,0-0.1,0-0.2,0
	c-0.1,0-0.2,0-0.4,0s-0.3,0-0.4,0c-0.1,0-0.2,0-0.2,0c-0.1,0-0.1,0-0.1-0.1v-0.1l1.6-8.2v-0.1l0.1-0.1c0.1,0,0.1,0,0.2,0
	c0.1,0,0.2,0,0.3,0s0.2,0,0.3,0s0.1,0,0.2,0c0.1,0,0.1,0.1,0.1,0.1v0.1l-0.3,1.6c0.1-0.2,0.2-0.4,0.4-0.6c0.2-0.2,0.5-0.5,0.7-0.6
	c0.3-0.2,0.6-0.4,1-0.5c0.3-0.1,0.7-0.2,1.1-0.2c0.4,0,0.7,0.1,1,0.2c0.3,0.1,0.5,0.3,0.7,0.5s0.3,0.4,0.4,0.7
	C538.2,237.4,538.3,237.7,538.3,238z M548.2,238.9c0,0.5,0,0.9-0.1,1.4s-0.2,0.9-0.4,1.3c-0.2,0.4-0.4,0.8-0.7,1.2s-0.6,0.7-0.9,1
	c-0.4,0.3-0.8,0.5-1.2,0.7c-0.5,0.2-1,0.2-1.5,0.2c-0.6,0-1.1-0.1-1.5-0.2c-0.4-0.1-0.8-0.3-1-0.6c-0.3-0.3-0.5-0.6-0.6-1
	s-0.2-0.8-0.2-1.3c0-0.4,0-0.9,0.1-1.4s0.2-0.9,0.4-1.3c0.2-0.4,0.4-0.8,0.7-1.2s0.6-0.7,0.9-1c0.4-0.3,0.8-0.5,1.2-0.7
	c0.5-0.2,1-0.3,1.5-0.3c0.6,0,1.1,0.1,1.5,0.2c0.4,0.1,0.8,0.4,1,0.6c0.3,0.3,0.5,0.6,0.6,1C548.1,238,548.2,238.4,548.2,238.9z
	 M546.6,239c0-0.3,0-0.6-0.1-0.8s-0.2-0.5-0.3-0.6c-0.1-0.2-0.3-0.3-0.6-0.4c-0.2-0.1-0.5-0.1-0.9-0.1s-0.7,0.1-1,0.2
	c-0.3,0.1-0.6,0.3-0.8,0.5s-0.4,0.5-0.6,0.8c-0.2,0.3-0.3,0.6-0.4,0.9c-0.1,0.3-0.2,0.7-0.2,1c-0.1,0.4-0.1,0.7-0.1,1s0,0.6,0.1,0.8
	s0.2,0.4,0.3,0.6c0.2,0.2,0.3,0.3,0.6,0.4c0.2,0.1,0.5,0.1,0.9,0.1s0.7-0.1,1-0.2c0.3-0.1,0.6-0.3,0.8-0.5s0.4-0.5,0.6-0.8
	c0.2-0.3,0.3-0.6,0.4-1c0.1-0.3,0.2-0.7,0.2-1C546.6,239.7,546.6,239.3,546.6,239z M562.2,236.1c0,0.1,0,0.1,0,0.2
	c0,0.1,0,0.1,0,0.2c-0.2,0.7-0.5,1.3-0.8,2s-0.6,1.4-0.9,2c-0.3,0.7-0.7,1.3-1.1,2c-0.4,0.6-0.8,1.3-1.2,1.9c0,0.1-0.1,0.1-0.2,0.2
	c-0.1,0-0.1,0.1-0.2,0.1c-0.1,0-0.2,0-0.3,0s-0.2,0-0.3,0c-0.2,0-0.3,0-0.4,0c-0.1,0-0.2,0-0.2,0c-0.1,0-0.1-0.1-0.1-0.1
	c0-0.1,0-0.1,0-0.2l-0.6-6l-2.8,6c0,0.1-0.1,0.1-0.1,0.2c-0.1,0-0.1,0.1-0.2,0.1c-0.1,0-0.2,0-0.3,0s-0.3,0-0.4,0
	c-0.2,0-0.3,0-0.4,0s-0.2,0-0.3,0s-0.1-0.1-0.2-0.1c0-0.1,0-0.1,0-0.2l-0.9-7.8c0-0.1,0-0.1,0-0.2c0-0.1,0-0.1,0-0.1
	c0-0.1,0-0.1,0-0.2l0.1-0.1c0.1,0,0.1,0,0.2,0c0.1,0,0.2,0,0.4,0s0.3,0,0.4,0c0.1,0,0.2,0,0.2,0l0.1,0.1v0.1l0.6,6.8v0.1V243
	l3.1-6.8c0,0,0-0.1,0.1-0.1l0.1-0.1c0.1,0,0.1,0,0.2,0c0.1,0,0.2,0,0.3,0s0.3,0,0.4,0c0.1,0,0.2,0,0.2,0c0.1,0,0.1,0.1,0.1,0.1v0.1
	l0.7,6.8v0.1V243c0.3-0.4,0.5-0.9,0.8-1.5s0.6-1.1,0.8-1.7s0.5-1.2,0.7-1.8s0.5-1.2,0.7-1.8c0-0.1,0-0.1,0.1-0.1
	c0,0,0.1-0.1,0.2-0.1c0.1,0,0.1,0,0.2,0c0.1,0,0.2,0,0.4,0c0.1,0,0.3,0,0.4,0c0.1,0,0.2,0,0.2,0C562.1,236,562.1,236,562.2,236.1
	L562.2,236.1L562.2,236.1z M570.7,238c0,0.2,0,0.4,0,0.6c0,0.2-0.1,0.4-0.1,0.6l-1,5.1c0,0.1,0,0.1-0.1,0.1l-0.1,0.1
	c-0.1,0-0.1,0-0.2,0c-0.1,0-0.2,0-0.4,0s-0.3,0-0.4,0c-0.1,0-0.2,0-0.2,0c-0.1,0-0.1,0-0.1-0.1v-0.1l1-5.1c0-0.2,0.1-0.4,0.1-0.5
	c0-0.2,0-0.3,0-0.5c0-0.4-0.1-0.7-0.2-0.9c-0.2-0.2-0.4-0.3-0.8-0.3c-0.3,0-0.7,0.1-1,0.3s-0.6,0.4-0.9,0.8
	c-0.3,0.3-0.6,0.7-0.8,1.2c-0.2,0.4-0.4,0.9-0.5,1.5l-0.7,3.7c0,0.1,0,0.1-0.1,0.1l-0.1,0.1c-0.1,0-0.1,0-0.2,0c-0.1,0-0.2,0-0.4,0
	c-0.1,0-0.3,0-0.4,0c-0.1,0-0.2,0-0.2,0c-0.1,0-0.1,0-0.1-0.1v-0.1l1.6-8.2v-0.1l0.1-0.1c0.1,0,0.1,0,0.2,0c0.1,0,0.2,0,0.3,0
	s0.2,0,0.3,0s0.1,0,0.2,0c0.1,0,0.1,0.1,0.1,0.1v0.1l-0.3,1.6c0.1-0.2,0.2-0.4,0.4-0.6c0.2-0.2,0.5-0.5,0.7-0.6
	c0.3-0.2,0.6-0.4,1-0.5c0.3-0.1,0.7-0.2,1.1-0.2c0.4,0,0.7,0.1,1,0.2c0.3,0.1,0.5,0.3,0.7,0.5s0.3,0.4,0.4,0.7
	C570.6,237.4,570.7,237.7,570.7,238z M581.3,244.1c0,0.1,0,0.2,0,0.3s0,0.1-0.1,0.2c-0.1,0-0.1,0.1-0.3,0.1c-0.1,0-0.3,0-0.5,0
	c-0.1,0-0.3,0-0.4,0c-0.1,0-0.2,0-0.2,0c-0.1,0-0.1,0-0.1-0.1c0,0,0-0.1,0-0.2l-0.4-2.9h-4.9l-1.5,2.8c0,0.1-0.1,0.1-0.1,0.2
	c0,0-0.1,0.1-0.2,0.1c-0.1,0-0.2,0-0.3,0s-0.2,0-0.4,0s-0.3,0-0.4,0c-0.1,0-0.2,0-0.2-0.1s-0.1-0.1,0-0.2c0-0.1,0-0.2,0.1-0.3
	l6.1-11c0-0.1,0.1-0.1,0.1-0.2c0.1,0,0.1-0.1,0.2-0.1c0.1,0,0.2-0.1,0.3-0.1s0.3,0,0.5,0s0.4,0,0.5,0s0.2,0,0.3,0.1
	c0.1,0,0.1,0.1,0.2,0.1c0,0,0.1,0.1,0.1,0.2L581.3,244.1z M578.3,234.4L578.3,234.4l-3.2,5.9h4.1L578.3,234.4z M589.3,236.6
	c0,0.1,0,0.1,0,0.2c0,0.1,0,0.2-0.1,0.3c0,0.1-0.1,0.2-0.1,0.2c0,0.1-0.1,0.1-0.1,0.1c-0.1,0-0.2,0-0.3-0.1s-0.2-0.1-0.4-0.2
	c-0.1-0.1-0.3-0.1-0.5-0.2c-0.2-0.1-0.4-0.1-0.7-0.1s-0.5,0-0.7,0.1s-0.4,0.2-0.5,0.3s-0.2,0.3-0.3,0.4s-0.1,0.3-0.1,0.5
	s0.1,0.5,0.2,0.6c0.2,0.2,0.4,0.3,0.6,0.4c0.2,0.1,0.5,0.2,0.8,0.4s0.5,0.3,0.8,0.5s0.4,0.4,0.6,0.7c0.2,0.2,0.2,0.6,0.2,0.9
	c0,0.4-0.1,0.8-0.2,1.2c-0.2,0.4-0.4,0.7-0.7,1s-0.7,0.5-1.1,0.6c-0.4,0.1-0.9,0.2-1.5,0.2c-0.3,0-0.5,0-0.8-0.1s-0.5-0.1-0.7-0.2
	c-0.2-0.1-0.4-0.2-0.5-0.2s-0.3-0.2-0.3-0.2c-0.1,0-0.1-0.1-0.1-0.1c0-0.1,0-0.1,0-0.2c0-0.1,0-0.1,0-0.2c0-0.1,0-0.1,0-0.2
	c0-0.1,0-0.1,0.1-0.2c0-0.1,0-0.1,0.1-0.2c0-0.1,0.1-0.1,0.1-0.1h0.1c0.1,0,0.2,0,0.3,0.1s0.2,0.2,0.4,0.2c0.2,0.1,0.4,0.2,0.6,0.3
	c0.2,0.1,0.6,0.1,0.9,0.1c0.3,0,0.6,0,0.9-0.1c0.2-0.1,0.4-0.2,0.6-0.3c0.2-0.1,0.3-0.3,0.3-0.5c0.1-0.2,0.1-0.4,0.1-0.6
	c0-0.3-0.1-0.5-0.2-0.6c-0.2-0.2-0.4-0.3-0.6-0.4c-0.2-0.1-0.5-0.3-0.8-0.4c-0.3-0.1-0.5-0.3-0.8-0.4c-0.2-0.2-0.4-0.4-0.6-0.6
	c-0.2-0.3-0.2-0.6-0.2-1s0.1-0.8,0.2-1.1c0.2-0.3,0.4-0.6,0.7-0.9c0.3-0.3,0.6-0.5,1-0.6s0.9-0.2,1.4-0.2c0.2,0,0.4,0,0.7,0.1
	c0.2,0,0.4,0.1,0.6,0.1c0.2,0.1,0.3,0.1,0.5,0.2c0.1,0.1,0.2,0.1,0.3,0.2C589.2,236.4,589.3,236.5,589.3,236.6L589.3,236.6z"/>
<path id="path151" class="st2" d="M596.2,106.8v204.9"/>
<path id="path153" class="st10" d="M596.2,106.8v174.9"/>
<path id="path155" class="st11" d="M587.5,281.7l8.8,24.2l8.8-24.2H587.5z"/>
<g id="p5.2" transform="translate(-122.17423,-7.136483)">
	<path class="st2" d="M831.3,245.9c-9.6-60-45-111.8-96.7-141.9L625.1,286.6l159.6,129.5C823.9,368,841,305.8,831.3,245.9z
		 M822.3,280.6c-4.5,2.6-9.1,0.2-13.3-1.6c-1.7-0.7-3.5-1.3-5.3-1.8c-0.5,2-2,3.6-4.7,3.7c-8.3,0.1-21.8,3.6-28.5-3.1
		c-4.5,3.4-9.7,5.8-15.1,2.9c-1.4-0.8-2.3-1.7-3-2.8c-2.9,0.7-6.2-0.9-5.9-4.6c0.5-5,2.7-8.5,6.2-12.1c3.3-3.4,8-0.5,8.5,3.5
		c0,0.2,0,0.4,0,0.5c3.5-1.1,6.8-1.8,10.2-1c3.9-0.6,7.8-1.3,11.7-2.2c6-1.3,12.1-3.2,18.3-3.3c5.4-0.1,10.5,1.7,15.7,3
		c4.3,1.1,8.2,2.8,9.6,7.4C828.1,273.4,826.2,278.4,822.3,280.6z"/>
	<path class="st2" d="M831.3,245.9c-9.6-60-45-111.8-96.7-141.9l25.3,157.8c0.7,0.8,1.2,1.9,1.3,3.1c0,0.2,0,0.4,0,0.5
		c3.5-1.1,6.8-1.8,10.2-1c3.9-0.6,7.8-1.3,11.7-2.2c6-1.3,12.1-3.2,18.3-3.3c5.4-0.1,10.5,1.7,15.7,3c4.3,1.1,8.2,2.8,9.6,7.4
		c1.3,4.3-0.6,9.3-4.5,11.6c-4.5,2.6-9.1,0.2-13.3-1.6c-1.7-0.7-3.5-1.3-5.3-1.8c-0.5,2-2,3.6-4.7,3.7c-8.3,0.1-21.8,3.6-28.5-3.1
		c-2.3,1.7-4.7,3.2-7.3,3.9l21.6,134.4C823.9,368,841,305.8,831.3,245.9z"/>
	<path id="path180" class="st16" d="M753.4,116.3l1,0.7c0.4,0.3,0.7,0.6,1.1,0.8c0.7,0.6,1.5,1.1,2.2,1.7c1.5,1.1,2.9,2.3,4.3,3.5
		c2.8,2.4,5.6,4.8,8.3,7.3c10.7,10,20.3,21.2,28.6,33.3c16.5,24.2,27.7,52.2,32.6,82.2c9.6,60-7.4,122.1-46.6,170.3"/>
	<path id="path182" class="st17" d="M757,110.8l-18.7-4.5l11.5,15.5L757,110.8z"/>
</g>
<path class="st2" d="M427.3,324.8v32.3h132.1v-32.3H427.3z M526.7,353.5c-3.6-1.7-7.5-2.7-11.5-3.3c-6.5,1.3-13.2,2-18.8,4.8
	c-4.2,2-8.3-1.7-7.3-5.5c-0.7,0-1.5,0-2.2-0.1c-6.5-0.3-12.9-0.3-19.4-0.2c-5,0.1-9.6-1-12.4-5.5c-1.7-2.7-0.1-6.5,2.9-7.3
	c0.9-2,2.9-3.5,5.7-2.7c1.3,0.4,2.5,0.6,3.8,0.9c2.2-0.7,4.2-1.5,6.6-1.9c5.4-0.8,11,0.2,16.4,0.7c1,0.1,2.1,0.2,3.1,0.2
	c3.7-0.9,7.3-2.2,11.1-1.8c2.2,0.2,3.9,1.2,5.2,2.5c5.9,0.1,11.8,0.2,17.8,0.4c4.2,0.2,6.8,5.4,3.5,8.5c-0.3,0.3-0.7,0.6-1,0.9
	c0.5,0.2,1,0.4,1.5,0.7C537.6,347.6,532.5,356.3,526.7,353.5z"/>
<path class="st2" d="M607.3,248v32.3h120.9V248H607.3z M700.1,273.5c-4.5,2.6-9.1,0.2-13.3-1.6c-1.7-0.7-3.5-1.3-5.3-1.8
	c-0.5,2-2,3.6-4.7,3.7c-8.3,0.1-21.8,3.6-28.5-3.1c-4.5,3.4-9.7,5.8-15.1,2.9c-1.4-0.8-2.3-1.7-3-2.8c-2.9,0.7-6.2-0.9-5.9-4.6
	c0.5-5,2.7-8.5,6.2-12.1c3.3-3.4,8-0.5,8.5,3.5c0,0.2,0,0.4,0,0.5c3.5-1.1,6.8-1.8,10.2-1c3.9-0.6,7.8-1.3,11.7-2.2
	c6-1.3,12.1-3.2,18.3-3.3c5.4-0.1,10.5,1.7,15.7,3c4.3,1.1,8.2,2.8,9.6,7.4C705.9,266.3,704,271.2,700.1,273.5z"/>
<g id="p5.3" transform="translate(-122.17423,-7.136483)">
	<path class="st2" d="M373.9,200.5c-1,0.3-2,0.6-3,0.9c-3.7,1.3-7.7,4-11.8,3.6c-9.1-1-6.3-11.3-4.1-17c1.6-4.1,6.5-4.8,9.1-1.2
		c0.8,1.1,1.6,2.1,2.5,3.1c0.6,0.7,1,1.3,1.2,2.1c3.6-1.3,7.3-2.1,11-2.7l0.3-9.8l-174.4-66.1c-21.2,56.6-14,120,19.6,170.3
		c33.5,50.3,89.1,81.2,149.3,83l4.8-162.3C376.7,203.6,375.2,202.3,373.9,200.5z M284.6,201.3c-0.1,0-0.2-0.1-0.3-0.1
		c0,3.9-5.4,5.7-8.4,3.2c-1.7,0.8-3.8,1.2-6.2,1.2c-7.5,0-14.4-3.4-21.9-3.2c-7,0.2-14.6,4.5-21.5,2.2c-6.9-2.2-9.7-10.8-2.7-14.9
		c4.7-2.8,11.2-1.3,16.4-1c9.1,0.6,18.5,2.1,27.6,1.8c0.4,0,0.9,0,1.3,0c0.1-0.6,0.3-1.2,0.5-1.7c2.3-4.7,8.6-4.6,11.4-0.6
		c0.6,0.8,0.9,1.6,1.2,2.5c2.5,0.3,5.1,0.9,7.5,2C295.6,195.2,290.5,203.9,284.6,201.3z"/>
	<path class="st2" d="M266,205.3c-6.1-0.8-11.9-3-18.1-2.9c-7,0.2-14.6,4.5-21.5,2.2c-6.9-2.2-9.7-10.8-2.7-14.9
		c4.7-2.8,11.2-1.3,16.4-1c5.2,0.4,10.5,1,15.8,1.4l-51.2-76.7c-21.2,56.6-14,120,19.6,170.3c33.5,50.3,89.1,81.2,149.3,83
		L266,205.3z"/>
	<path id="path216" class="st18" d="M198.1,134.9L198.1,134.9c-1.8,7.3-3.1,14.6-4,21.9c-1.8,14.7-1.8,29.5-0.1,44.1
		c3.4,29.2,13.6,57.6,30.3,82.8c33.5,50.3,89.1,81.2,149.3,83"/>
	<path id="path218" class="st19" d="M204.4,136.9l-1-19.3L191.8,133L204.4,136.9z"/>
</g>
<path class="st20" d="M46.3,42.3v43.6h117.8V42.3H46.3z M105.8,60.6c-6.4,0-6.4-10,0-10C112.2,50.6,112.2,60.6,105.8,60.6z"/>
<text transform="matrix(1 0 0 1 46.2945 57.7805)" class="st21 st22">DID控制者</text>
<rect x="568.3" y="42.3" class="st20" width="117.8" height="43.6"/>
<text transform="matrix(1 0 0 1 568.2915 57.7805)" class="st21 st22">DID对象</text>
<rect x="322.1" y="100" class="st20" width="90.1" height="26.3"/>
<text transform="matrix(1 0 0 1 322.1479 112.0264)" class="st23 st21 st24">标记</text>
<rect x="17.4" y="233.3" class="st20" width="63.3" height="23"/>
<text transform="matrix(1 0 0 1 17.4417 245.3334)" class="st25 st21 st24">控制者</text>
<rect x="117.3" y="190.2" class="st20" width="63.3" height="23"/>
<text transform="matrix(1 0 0 1 117.279 202.2773)" class="st25 st21 st24">控制</text>
<rect x="244.9" y="158.1" class="st20" width="92.2" height="23.9"/>
<text transform="matrix(1 0 0 1 244.9171 170.1357)" class="st26 st21 st24">解析为</text>
<rect x="442.9" y="175.4" class="st20" width="71.6" height="20.6"/>
<text transform="matrix(1 0 0 1 442.9015 187.4187)" class="st27 st21 st24">描述</text>
<rect x="307.4" y="269.2" class="st20" width="150.5" height="25.6"/>
<text transform="matrix(1 0 0 1 307.3801 284.6758)" class="st21 st22">DID 文档</text>
<rect x="659.6" y="264.6" class="st20" width="71.6" height="20.6"/>
<text transform="matrix(1 0 0 1 659.6014 276.6111)" class="st27 st21 st24">描述</text>
<rect x="562.2" y="418.3" class="st20" width="117.5" height="26.2"/>
<text transform="matrix(1 0 0 1 562.1707 433.7644)" class="st21 st22">功能描述</text>
<rect x="470.6" y="335.6" class="st20" width="97.8" height="23.3"/>
<text transform="matrix(1 0 0 1 470.5848 347.6514)" class="st21 st24">标记</text>
<rect x="520.4" y="364.2" class="st20" width="113.4" height="21.2"/>
<text transform="matrix(1 0 0 1 520.4203 376.2155)" class="st21 st24">解引用为</text>
</svg>
